<?xml version="1.0" encoding="UTF-8" standalone="no"?>
<!-- Created with Inkscape (http://www.inkscape.org/) -->

<svg
   xmlns:dc="http://purl.org/dc/elements/1.1/"
   xmlns:cc="http://creativecommons.org/ns#"
   xmlns:rdf="http://www.w3.org/1999/02/22-rdf-syntax-ns#"
   xmlns:svg="http://www.w3.org/2000/svg"
   xmlns="http://www.w3.org/2000/svg"
   xmlns:sodipodi="http://sodipodi.sourceforge.net/DTD/sodipodi-0.dtd"
   xmlns:inkscape="http://www.inkscape.org/namespaces/inkscape"
   version="1.1"
   width="125"
   height="125"
   id="svg2948"
   sodipodi:docname="django.svg"
   inkscape:version="0.92.1 r15371">
  <metadata
     id="metadata14">
    <rdf:RDF>
      <cc:Work
         rdf:about="">
        <dc:format>image/svg+xml</dc:format>
        <dc:type
           rdf:resource="http://purl.org/dc/dcmitype/StillImage" />
        <dc:title></dc:title>
      </cc:Work>
    </rdf:RDF>
  </metadata>
  <sodipodi:namedview
     pagecolor="#ffffff"
     bordercolor="#666666"
     borderopacity="1"
     objecttolerance="10"
     gridtolerance="10"
     guidetolerance="10"
     inkscape:pageopacity="0"
     inkscape:pageshadow="2"
     inkscape:window-width="1042"
     inkscape:window-height="784"
     id="namedview12"
     showgrid="false"
     fit-margin-top="0"
     fit-margin-left="0"
     fit-margin-right="0"
     fit-margin-bottom="0"
     inkscape:zoom="1.0923077"
     inkscape:cx="194.20422"
     inkscape:cy="-62.281683"
     inkscape:window-x="0"
     inkscape:window-y="0"
     inkscape:window-maximized="0"
     inkscape:current-layer="layer2" />
  <defs
     id="defs2950" />
  <g
     inkscape:groupmode="layer"
     id="layer2"
     inkscape:label="Layer 1"
     transform="translate(97.619713,142.28169)">
    <circle
       style="fill:#008000"
       id="path12"
       cx="-35.485912"
       cy="-79.415489"
       r="58.133801" />
  </g>
  <g
     inkscape:groupmode="layer"
     id="layer3"
     inkscape:label="Layer 2"
     transform="translate(97.619713,142.28169)">
    <path
       inkscape:connector-curvature="0"
       style="fill:#000000;fill-opacity:1;fill-rule:evenodd;stroke:none"
       id="path2838"
       d="m -59.722573,-75.86447 c -0.0431,8.1975 5.967822,13.08438 15.560005,10.8625 v -21.725 c -9.713433,-2.95812 -15.519375,3.02656 -15.560005,10.8625 m 15.853442,-42.27625 h 13.21125 v 62.53344 c -12.663437,2.07031 -24.79187,3.38344 -33.468442,-1.46813 -11.17187,-6.24625 -12.07,-26.09562 -3.22968,-34.93625 4.48218,-4.48187 13.505622,-7.63718 23.193435,-5.57812 v -19.67 c -0.02531,-0.41688 -0.04875,-0.83188 0.293437,-0.88094" />
    <path
       inkscape:connector-curvature="0"
       style="fill:#000000;fill-opacity:1;fill-rule:evenodd;stroke:none"
       id="path2840"
       d="m -9.226222,-104.34234 h -13.211251 v -13.79844 h 13.211251 z" />
    <path
       inkscape:connector-curvature="0"
       style="fill:#000000;fill-opacity:1;fill-rule:evenodd;stroke:none"
       id="path2860"
       d="m -9.226192,-97.35528 c -0.015,9.72844 -0.0128,16.71906 -0.01375,28.53781 -0.56125,11.61469 -0.430625,20.86375 -4.683438,26.42125 -0.83875,1.09594 -2.62,2.69469 -4.110312,3.81688 -1.251564,0.94218 -3.636876,2.85281 -4.990939,2.93593 -1.365,0.0838 -4.871875,-1.895 -6.459062,-2.6425 -2.084063,-0.98156 -4.010625,-2.285 -6.165,-2.93562 5.025312,-3.11406 9.795625,-5.44875 11.743125,-11.74344 1.69375,-5.47437 1.468125,-13.40719 1.468125,-21.13812 0,-7.63375 0.03406,-16.50875 0.03406,-23.24875 l 13.177189,-0.003 z" />
  </g>
</svg>
