<?xml version="1.0" encoding="UTF-8" standalone="no"?>
<!-- Created with Inkscape (http://www.inkscape.org/) -->

<svg
   xmlns:dc="http://purl.org/dc/elements/1.1/"
   xmlns:cc="http://creativecommons.org/ns#"
   xmlns:rdf="http://www.w3.org/1999/02/22-rdf-syntax-ns#"
   xmlns:svg="http://www.w3.org/2000/svg"
   xmlns="http://www.w3.org/2000/svg"
   xmlns:sodipodi="http://sodipodi.sourceforge.net/DTD/sodipodi-0.dtd"
   xmlns:inkscape="http://www.inkscape.org/namespaces/inkscape"
   width="203.90295"
   height="181.89664"
   id="svg2"
   version="1.1"
   inkscape:version="0.92.1 r15371"
   sodipodi:docname="flask-final.svg">
  <defs
     id="defs4">
    <inkscape:perspective
       sodipodi:type="inkscape:persp3d"
       inkscape:vp_x="0 : 561.25983 : 1"
       inkscape:vp_y="0 : 1066.6667 : 0"
       inkscape:vp_z="793.70078 : 561.25983 : 1"
       inkscape:persp3d-origin="396.85039 : 374.17322 : 1"
       id="perspective10" />
    <inkscape:perspective
       id="perspective2824"
       inkscape:persp3d-origin="0.53333333 : 0.35555555 : 1"
       inkscape:vp_z="1.0666667 : 0.53333333 : 1"
       inkscape:vp_y="0 : 1066.6667 : 0"
       inkscape:vp_x="0 : 0.53333333 : 1"
       sodipodi:type="inkscape:persp3d" />
    <inkscape:perspective
       id="perspective2840"
       inkscape:persp3d-origin="0.53333333 : 0.35555555 : 1"
       inkscape:vp_z="1.0666667 : 0.53333333 : 1"
       inkscape:vp_y="0 : 1066.6667 : 0"
       inkscape:vp_x="0 : 0.53333333 : 1"
       sodipodi:type="inkscape:persp3d" />
    <inkscape:perspective
       id="perspective2878"
       inkscape:persp3d-origin="0.53333333 : 0.35555555 : 1"
       inkscape:vp_z="1.0666667 : 0.53333333 : 1"
       inkscape:vp_y="0 : 1066.6667 : 0"
       inkscape:vp_x="0 : 0.53333333 : 1"
       sodipodi:type="inkscape:persp3d" />
    <inkscape:perspective
       id="perspective2894"
       inkscape:persp3d-origin="0.53333333 : 0.35555555 : 1"
       inkscape:vp_z="1.0666667 : 0.53333333 : 1"
       inkscape:vp_y="0 : 1066.6667 : 0"
       inkscape:vp_x="0 : 0.53333333 : 1"
       sodipodi:type="inkscape:persp3d" />
    <inkscape:perspective
       id="perspective2910"
       inkscape:persp3d-origin="0.53333333 : 0.35555555 : 1"
       inkscape:vp_z="1.0666667 : 0.53333333 : 1"
       inkscape:vp_y="0 : 1066.6667 : 0"
       inkscape:vp_x="0 : 0.53333333 : 1"
       sodipodi:type="inkscape:persp3d" />
    <inkscape:perspective
       id="perspective2926"
       inkscape:persp3d-origin="0.53333333 : 0.35555555 : 1"
       inkscape:vp_z="1.0666667 : 0.53333333 : 1"
       inkscape:vp_y="0 : 1066.6667 : 0"
       inkscape:vp_x="0 : 0.53333333 : 1"
       sodipodi:type="inkscape:persp3d" />
    <inkscape:perspective
       id="perspective2976"
       inkscape:persp3d-origin="0.53333333 : 0.35555555 : 1"
       inkscape:vp_z="1.0666667 : 0.53333333 : 1"
       inkscape:vp_y="0 : 1066.6667 : 0"
       inkscape:vp_x="0 : 0.53333333 : 1"
       sodipodi:type="inkscape:persp3d" />
    <inkscape:perspective
       id="perspective3020"
       inkscape:persp3d-origin="0.53333333 : 0.35555555 : 1"
       inkscape:vp_z="1.0666667 : 0.53333333 : 1"
       inkscape:vp_y="0 : 1066.6667 : 0"
       inkscape:vp_x="0 : 0.53333333 : 1"
       sodipodi:type="inkscape:persp3d" />
    <inkscape:perspective
       id="perspective3036"
       inkscape:persp3d-origin="0.53333333 : 0.35555555 : 1"
       inkscape:vp_z="1.0666667 : 0.53333333 : 1"
       inkscape:vp_y="0 : 1066.6667 : 0"
       inkscape:vp_x="0 : 0.53333333 : 1"
       sodipodi:type="inkscape:persp3d" />
    <inkscape:perspective
       id="perspective3052"
       inkscape:persp3d-origin="0.53333333 : 0.35555555 : 1"
       inkscape:vp_z="1.0666667 : 0.53333333 : 1"
       inkscape:vp_y="0 : 1066.6667 : 0"
       inkscape:vp_x="0 : 0.53333333 : 1"
       sodipodi:type="inkscape:persp3d" />
    <inkscape:perspective
       id="perspective3866"
       inkscape:persp3d-origin="0.53333333 : 0.35555555 : 1"
       inkscape:vp_z="1.0666667 : 0.53333333 : 1"
       inkscape:vp_y="0 : 1066.6667 : 0"
       inkscape:vp_x="0 : 0.53333333 : 1"
       sodipodi:type="inkscape:persp3d" />
  </defs>
  <sodipodi:namedview
     id="base"
     pagecolor="#ffffff"
     bordercolor="#666666"
     borderopacity="1.0"
     inkscape:pageopacity="0.0"
     inkscape:pageshadow="2"
     inkscape:zoom="2.8229028"
     inkscape:cx="227.52415"
     inkscape:cy="85.940115"
     inkscape:document-units="px"
     inkscape:current-layer="layer1"
     showgrid="false"
     inkscape:window-width="1600"
     inkscape:window-height="877"
     inkscape:window-x="-8"
     inkscape:window-y="-8"
     inkscape:window-maximized="1"
     fit-margin-top="0"
     fit-margin-left="0"
     fit-margin-right="0"
     fit-margin-bottom="0" />
  <metadata
     id="metadata7">
    <rdf:RDF>
      <cc:Work
         rdf:about="">
        <dc:format>image/svg+xml</dc:format>
        <dc:type
           rdf:resource="http://purl.org/dc/dcmitype/StillImage" />
        <dc:title></dc:title>
      </cc:Work>
    </rdf:RDF>
  </metadata>
  <g
     inkscape:label="Layer 1"
     inkscape:groupmode="layer"
     id="layer1"
     transform="translate(-42.475522,-32.199327)">
    <path
       style="fill:#000000;stroke-width:1.06666672"
       d="M 103.40791,194.16935 C 95.640193,188.05982 87.354186,182.20211 81.692071,173.95377 69.777965,159.40799 60.604667,142.56715 54.333424,124.86949 50.542885,113.36164 49.244691,101.02381 44.358186,89.960636 c -5.111773,-8.035247 0.875972,-16.81909 9.67757,-19.373248 3.918658,-0.752111 10.808882,-4.448275 2.491681,-1.806442 -7.456632,5.470796 -8.178271,-4.965976 -0.532078,-5.626848 5.218161,-0.693599 7.139088,-4.96538 5.35463,-8.810934 -5.601414,-3.652762 13.582653,-7.667211 3.929998,-13.117653 -10.055453,-10.84871 14.065428,-12.937115 8.114435,-0.616305 -1.424476,9.474199 16.854641,-1.736434 12.613459,9.204208 4.310701,5.254074 16.142469,1.19584 15.848939,8.566819 6.27956,0.431656 8.43473,5.715265 14.32959,6.120903 6.10943,2.758994 17.18485,4.933111 19.26379,11.817759 -6.06125,4.798673 -20.09695,-9.912186 -20.77126,3.37109 1.83103,19.622483 1.36455,39.836205 8.54385,58.522655 3.39577,11.31476 11.62795,20.22164 19.0625,29.03409 7.11333,8.63068 16.74865,14.70629 26.56944,19.82227 8.6149,4.06295 17.90275,6.75763 27.29155,8.44847 3.80811,-2.91274 10.53123,-13.74165 16.47187,-9.17534 0.28185,5.13074 -11.79104,10.72546 -0.56797,10.1584 6.59007,-1.98803 11.16091,5.09657 16.58772,-1.29375 4.99967,5.9222 20.78077,-3.78383 17.22339,8.32123 -4.81037,3.10352 -11.82602,1.22818 -16.64431,5.49757 -7.94407,-3.96778 -14.2687,3.55032 -23.06336,2.59954 -9.76684,1.74935 -19.70304,2.45551 -29.60504,2.47085 -16.24483,-1.2835 -32.83369,-1.82452 -48.28767,-7.48044 -8.70577,-2.52972 -17.20159,-7.48679 -24.853,-12.44618 z m 13.71951,5.94443 c 8.50091,3.67628 16.81326,7.55082 26.12967,8.71954 14.78061,2.05576 30.0443,5.21774 44.87788,2.33341 -6.7135,-3.03146 -13.65416,1.181 -20.34236,-2.16768 -8.02169,1.72609 -16.62986,-0.43971 -24.78479,-1.50602 -9.27355,-4.13076 -19.28128,-6.97118 -27.96557,-12.333 -10.85136,-3.9635 5.61218,5.08292 8.54265,5.81562 6.78348,3.85033 -7.45966,-1.9738 -9.46762,-3.57441 -5.68158,-3.1871 -6.40564,-2.52114 -0.56261,0.71557 1.17687,0.68882 2.33983,1.41041 3.57275,1.99697 z m -16.17568,-11.43137 c 8.23764,3.05122 -0.0363,-5.79287 -3.811134,-5.27898 -1.672433,-2.90149 -6.389653,-4.73444 -3.062103,-6.29304 -5.985625,2.07797 -6.270206,-7.90202 -9.083737,-6.47615 -6.332284,-1.99951 -2.464529,-9.08268 -10.007391,-13.43245 -0.688521,-4.58343 -7.494155,-8.55886 -9.664854,-15.47226 -0.958706,-3.53966 -7.688892,-13.70436 -3.554527,-4.24456 3.520207,9.10664 9.713725,16.90538 14.867925,24.6952 4.002222,7.41683 8.727997,15.16828 16.016818,19.79507 2.456998,2.35694 4.829282,5.96835 8.299003,6.70717 z M 77.220864,162.62779 c 0.287531,-1.24401 1.506586,2.6925 0,0 z m 33.596166,29.71227 c 1.82414,-0.81682 -2.62306,-1.02907 0,0 z m 4.47177,1.63119 c -0.46314,-2.25237 -2.04134,1.25946 0,0 z m 5.59732,2.33484 c 2.66483,-2.53729 -4.10676,-1.59982 0,0 z m 9.59349,5.34692 c 1.61931,-2.39349 -5.18264,-0.90327 0,0 z m -18.42208,-12.84195 c 4.13899,-2.67758 -5.34599,-0.037 0,0 z m 4.19904,2.09379 c -0.11738,-1.41556 -1.49651,0.63394 0,0 z m 20.98637,13.09873 c 3.37367,2.12908 19.70092,4.66656 9.47709,0.87304 -1.71069,0.36065 -18.95747,-4.87825 -9.47709,-0.87304 z m -33.31658,-25.94789 c -0.32801,-1.41967 -5.236635,-1.56736 0,0 z m 9.76992,5.69401 c 2.54262,-1.77339 -5.27741,-1.36784 0,0 z m 8.21787,5.03874 c 3.6487,-1.37561 -5.919,-1.38209 0,0 z M 99.950855,173.72592 c 3.958795,3.03596 15.965525,0.38905 6.062695,-1.81233 -4.50722,-2.40256 -14.665483,-4.04709 -7.741408,1.44876 l 1.678704,0.3636 z m 27.529305,16.8023 c 1.64901,-2.80947 -6.91518,-1.60438 0,0 z m -8.36532,-6.64836 c 9.68021,2.73834 -8.14018,-6.1216 -2.38839,-1.00764 l 1.27481,0.57688 1.11359,0.43083 z m 16.77177,9.69365 c 9.16773,0.0875 -8.28057,-1.26385 0,2e-5 z m -39.46316,-25.1517 c -0.358075,-1.70767 -2.26236,0.14314 0,0 z m 54.97109,33.85069 c 0.24448,-3.08417 -2.99185,2.29501 0,0 z m -39.32605,-24.26985 c -0.55452,-1.62402 -2.86451,-0.0663 0,0 z M 97.292887,167.35039 c 5.263183,-0.31604 -7.205676,-2.31913 0,0 z M 79.789213,156.0362 c -0.655089,-2.52305 -5.727161,-4.53536 0,0 z m 45.951277,29.16204 c -0.96398,-1.09941 -0.45344,0.24049 0,0 z m 28.60169,17.55173 c -0.0917,-1.68003 -1.55775,0.63591 0,0 z m -31.13293,-20.16563 c 0.51484,-2.16461 -4.48791,-0.65538 0,0 z m -21.3078,-13.50396 c 3.91551,-0.41925 -6.27246,-2.64705 0,0 z m 36.04411,22.39695 c 6.10178,-2.41735 -5.94711,-1.1801 0,0 z m -18.74861,-12.72688 c 7.0323,0.90669 -8.36738,-4.7832 -1.54294,-0.50912 l 1.54293,0.50917 z m 24.44049,15.02784 c 6.56548,-3.92506 4.40094,9.19122 11.13871,1.10806 6.64625,-4.85272 -5.73958,5.99947 2.4516,0.86523 5.92383,-3.962 14.67353,1.87814 20.20105,3.78368 3.97503,-0.19527 7.83934,3.43719 11.91438,1.2273 7.84448,-2.11287 -15.3397,-3.13375 -9.26234,-6.88245 -7.17775,2.08904 -12.48099,-2.49049 -16.01294,-7.08809 -8.05132,-1.85918 -17.36051,-5.97547 -21.37874,-13.10063 -1.63829,-2.67522 2.36677,0.37689 -1.41425,-3.99614 -4.85156,-4.31515 -7.27411,-9.2135 -10.53096,-14.45888 -3.89072,-2.07559 -4.34399,-8.18501 -4.73732,-0.20481 0.0308,-5.03641 -4.69752,-8.42628 -5.85161,-7.01716 -0.0207,-4.85036 5.06022,-2.41906 1.50341,-6.00777 -0.76556,-5.02722 -3.28624,-10.2657 -4.04389,-15.94165 -1.17717,-2.73602 -0.16577,-8.59587 -4.01773,-2.40217 -1.40337,6.5458 -0.46579,-8.04405 1.71659,-3.23289 2.86446,-4.90934 -1.02838,-4.33195 -1.18785,-3.65025 1.86593,-4.14222 1.181,-10.0177 -0.48687,-7.77625 0.99427,-4.39025 1.57076,-16.15736 -1.48811,-14.07208 1.85422,-4.590889 3.51646,-21.007016 -4.53292,-14.74808 -3.26225,0.0458 -8.911507,1.184208 -11.581897,2.512259 8.372797,4.615314 -0.84218,1.666749 -4.250462,0.933204 -0.4441,4.270552 -3.819936,2.423559 -8.037465,2.465428 6.736291,0.833429 -3.28027,6.88956 -7.144674,4.537074 -5.018775,2.398673 4.331329,8.386173 0.100693,10.237425 0.519929,2.79102 -7.688775,-1.0079 -7.044087,5.43756 -4.872256,-2.04966 -0.670892,7.64582 1.766691,4.36674 8.286808,2.24278 5.833715,7.35606 6.044744,12.21325 -1.350222,2.83029 -6.666128,-6.65271 -1.183935,-6.21352 -4.32503,-7.02585 -4.784248,-2.53953 -8.378204,0.72439 -0.836114,0.23703 9.16736,4.64401 2.889663,6.82314 5.523076,0.85221 5.680212,5.68542 6.804569,8.74384 3.31967,3.45762 2.640241,-3.81793 6.612343,0.33732 -2.513587,-3.70187 -13.313952,-10.43029 -4.618205,-8.27232 -0.04649,-3.72578 -1.572706,-6.73015 1.091435,-6.65726 2.638258,-4.77788 -2.763078,11.78026 3.183706,5.70799 1.646171,-0.71881 2.05391,-4.78394 5.012847,0.38388 4.297703,4.22787 1.552352,7.29149 -4.510039,3.42024 1.084616,3.67943 8.109933,4.99432 6.789704,10.74823 1.399574,5.06069 3.357701,3.19674 5.064533,2.90417 1.338912,4.91704 2.099217,1.30144 2.162729,-1.03845 6.130511,1.31235 4.694551,4.93624 6.612751,7.46809 4.22445,1.90679 -6.046607,-12.92494 1.20604,-4.4598 7.63048,6.88918 2.86165,9.76495 -3.98598,8.66128 4.334,-0.35012 5.73165,5.85926 11.15274,5.6411 4.94353,2.35176 8.29053,11.38444 -0.23054,7.62432 -2.95546,-2.66475 -13.414117,-5.9521 -4.8718,-0.88344 7.88968,3.65358 14.15592,5.83927 21.7652,10.42543 5.4457,3.88761 7.79844,8.34035 9.86247,9.22177 -4.57689,2.18609 -13.79295,-1.74566 -6.94948,-2.95059 -4.26846,-0.77754 -9.06942,-2.9361 -4.98092,2.38218 3.47655,2.90269 12.31689,2.59518 13.90165,2.92408 -1.34329,2.95987 -3.64874,3.19526 0.055,3.42483 -4.132,2.202 1.32498,2.54296 1.70789,3.80119 z m -8.4496,-23.86126 c -2.51394,-2.62906 -3.16395,-7.55342 -0.44642,-3.26854 1.39358,0.55964 4.46424,8.04723 0.44647,3.26854 z m 27.51715,17.4794 c 1.56804,-0.10155 0.0455,1.19126 0,0 z m -31.48658,-23.92575 c -0.0964,-3.9748 0.90933,3.0658 0,0 z m -2.73485,-3.67963 c -3.16209,-6.10973 3.98636,1.73026 0,0 z M 95.341489,136.91644 c 1.857707,-0.49543 0.913964,3.17721 0,0 z m 26.376851,14.29714 c 1.14087,-4.28431 1.34071,3.59481 0,0 z m -18.63445,-12.95731 c -1.31364,-2.36414 2.74775,2.21722 0,0 z m 15.99231,5.12659 c -2.99574,-6.71171 2.12092,-3.66612 0.66278,1.09999 z M 91.497341,124.99055 c -1.339332,-2.20194 -3.554841,-8.66277 -2.841581,-10.63512 0.645264,3.21216 6.830842,13.82354 3.034209,4.3957 -4.195612,-7.90302 5.015259,2.56523 5.962722,4.53642 0.441199,1.96093 -2.588575,-0.53573 -0.535671,4.06217 -3.743797,-5.23484 -2.210098,2.8916 -5.619679,-2.35917 z m -8.523415,-5.8732 c 0.350868,-5.11979 1.951213,3.51075 0,0 z m 3.833913,1.31977 c 1.82952,-3.86434 3.102126,5.38722 0,0 z m -9.222571,-7.13437 c -3.173286,-3.1533 -5.469663,-6.06007 0.148473,-1.95705 2.164781,0.0845 -4.809602,-6.61019 0.521334,-2.12592 5.605664,1.0221 2.768107,9.19119 -0.669807,4.08297 z m 4.844498,-0.12664 c 1.842823,-1.82617 0.978317,1.79765 0,0 z m 2.980893,0.95562 c -2.793793,-5.23669 3.390721,2.19544 0,0 z m -5.925824,-5.66303 c -9.225002,-8.20961 11.591796,4.29281 1.507094,1.52203 l -1.507152,-1.52195 z m 26.431015,15.35699 c -3.992,-2.39358 -1.05789,-16.85064 0.30347,-6.96304 3.88085,-1.25542 -0.21427,5.10643 2.68031,5.04755 -0.45618,4.01392 -1.75114,5.457 -2.98378,1.91549 z m 9.77622,5.77796 c 0.39152,-4.35693 0.82399,2.97879 0,0 z m -1.69811,-1.67782 c 0.43953,-1.8613 0.0454,2.19187 0,0 z M 81.29447,105.77101 c -5.926449,-8.176703 17.223812,8.27107 3.795793,2.07392 -1.403127,-0.36698 -3.091421,-0.49801 -3.795793,-2.07392 z m 18.82572,9.98132 c -0.560831,-6.88492 1.25245,1.14124 -2e-4,-2e-5 z m 14.29308,9.16891 c 1.10611,-3.92179 0.0825,2.59435 0,0 z M 82.202331,102.65037 c 3.522316,-0.75338 14.597008,6.18601 4.426905,1.98221 -1.130022,-1.25098 -3.538989,-0.68261 -4.426905,-1.98221 z m 30.247199,15.07533 c 0.37649,-7.04003 2.1028,-4.20516 0.013,1.00772 l -0.0129,-1.00771 -5e-5,-1e-5 z M 84.824288,100.20064 c 1.435153,-2.105185 -3.80974,-9.517935 0.756048,-2.658985 1.972846,1.567579 5.71211,2.626095 2.410685,3.285565 5.19226,4.58044 -1.266394,1.24119 -3.166733,-0.62658 z m 26.129192,15.32604 c 0.99149,-8.01966 0.87436,4.6985 0,0 z M 81.826939,92.793495 c 1.096219,-0.468487 0.578929,1.460624 0,0 z m 6.815596,4.056632 c 1.754044,-3.680557 3.235744,4.104853 0,0 z m 19.225125,10.694693 c -0.0186,-1.41355 0.3627,2.05616 0,0 z m -1.11364,-2.46548 c -2.66839,-6.58309 2.48205,3.48543 0,0 z m -1.63841,-4.31613 c -0.4479,-2.720202 1.52227,3.41745 -8e-5,-1e-5 z m 2.66643,-4.334416 c -1.83107,-3.226798 2.31229,-14.219812 2.77463,-7.402046 -1.93264,5.312273 -0.55752,8.284063 0.79071,1.158814 2.48978,-5.607637 -0.53782,11.065658 -3.56539,6.24326 z m 2.74015,-16.348426 c 0.79822,-0.980182 0.17716,1.180887 0,0 z m -4.57602,90.169852 c -1.08539,-0.94722 0.13629,0.60273 0,0 z m 9.42691,4.76869 c 5.24372,1.34544 5.21691,-0.81586 0.47767,-1.45795 -2.54912,-2.37137 -10.5925,-4.88666 -3.39327,-0.29425 0.47679,1.20775 1.98341,1.17962 2.9156,1.7522 z M 96.755271,162.65307 c 2.888794,2.15419 10.881299,6.10533 4.115399,0.81992 2.28116,-2.65031 -4.366225,-4.06103 -2.161138,-5.83389 -5.60872,-3.43205 -4.424493,-3.12675 -0.495052,-3.01877 -6.740677,-3.01293 0.972974,-2.78755 0.609772,-4.33138 -2.599153,-0.51334 -12.909946,-4.58308 -6.844155,0.3343 -6.166279,-3.14401 -1.469443,1.17119 -3.333205,0.71498 -6.305425,-1.71923 5.615351,4.80239 -1.001435,3.18344 3.617416,2.86667 9.736854,7.34286 1.529372,3.03368 -1.081404,1.55663 5.873358,3.91612 7.580442,5.09772 z m 9.859409,5.66414 c 11.98802,3.86307 -5.87735,-4.71958 0,0 z m 50.47082,30.57527 c 0.15463,-2.37829 -1.63844,2.02881 0,0 z m 5.18746,2.18324 c 2.76583,-2.68005 0.11307,4.26904 4.58299,-0.65609 0.0483,-3.52581 -0.13765,-5.60836 -5.13668,-1.32536 -1.37806,0.76425 -1.99329,4.01374 0.55369,1.98145 z M 79.92787,149.36146 c -0.849445,-3.33909 -5.954079,-3.32179 0,0 z m 5.539231,3.6298 c -2.056957,-3.41055 -7.339227,-3.08767 0,0 z m 31.512929,19.00477 c 3.0767,2.73279 14.13079,2.00516 3.73687,0.33629 -1.53943,-2.27612 -9.7751,-1.72832 -3.73687,-0.33629 z m 43.31985,26.75363 c 4.73529,-3.97346 -4.58797,1.77262 0,0 z m 9.84832,6.76772 c 0.0296,-1.27513 -2.04109,0.55827 0,0 z m 0.0152,-1.78518 c 5.24375,-5.5559 -5.08102,0.32861 -4e-5,0 z M 66.303797,137.95562 c -4.469273,-6.37681 -2.778225,-9.24314 -7.088145,-14.44989 -0.815907,-3.98164 -7.393783,-13.01681 -3.402217,-3.44477 3.656042,5.59825 4.742457,14.26596 10.490362,17.89466 z m 102.214773,64.01042 c 9.64724,-6.23547 -3.96,-2.71617 0,0 z m 7.36437,2.88491 c 4.83105,-4.14791 -3.0559,-0.86756 0,0 z M 78.285967,142.31294 c 1.382618,-2.05694 -3.570818,-0.26311 0,0 z m 96.059303,60.56827 c 4.67761,-3.01596 -1.07772,-2.55291 -0.84782,0.27736 l 0.84783,-0.27736 z m -63.48145,-40.01257 c -0.1608,-2.03652 -2.47012,0.17286 0,0 z m 3.92313,2.25738 c -1.2468,-2.52073 -1.91697,0.39595 0,0 z m 67.064,39.79333 c 5.9926,-4.32302 -3.63264,-0.82767 -1.25788,0.81904 z m -2.29473,-1.10911 c 4.88174,-4.09073 -5.15395,1.81284 0,0 z m 11.72441,7.80782 c 3.27765,-2.19537 -3.98204,-0.71013 0,0 z M 81.291999,140.82966 c 4.393563,0.98439 17.557754,10.82016 9.79143,0.68024 -3.97759,-1.17743 -1.592112,-10.90033 -5.64929,-9.17951 2.72317,4.54923 2.240491,6.48552 -3.476952,3.61749 -7.185928,-3.50776 -4.03828,1.73835 -2.633912,3.18419 -1.913798,0.43491 2.531441,1.66102 1.968724,1.69759 z M 61.27506,125.02139 c 0.786568,-3.25324 -7.242468,-17.8974 -3.791428,-7.33777 1.245718,2.21197 1.119065,6.40412 3.791428,7.33777 z m 36.739681,22.6508 c -2.262388,-1.89203 -0.107511,-0.26776 0,0 z m 5.571199,1.29651 c -0.003,-3.44617 -6.158146,-1.39942 0,0 z m 48.2789,30.43543 c -0.92081,-2.35455 -3.63977,-0.0546 9e-5,4e-5 z m 2.31841,1.69353 c -0.34226,-1.31782 -1.33759,0.25438 0,0 z m 19.13616,12.05344 c 1.84049,-1.3597 -2.29672,-0.17365 0,0 z M 71.273661,127.57397 c 5.264259,-2.0381 -5.640267,-1.45331 0,0 z m 76.341049,48.09533 c -0.0586,-3.40799 -3.35597,0.84548 0,0 z M 69.193762,122.7272 c 3.381512,-1.14223 -3.128174,-0.75233 0,0 z m 9.814968,4.75441 c -0.06133,-1.12015 -1.038225,0.42397 0,0 z m 119.7135,73.40993 c 4.34827,-0.8816 14.25713,2.21322 15.85869,-1.15292 -5.28047,-0.1282 -18.26917,-3.72547 -18.88369,0.85845 l 1.15592,0.1821 1.86908,0.11236 z M 82.128172,128.26772 c 0.07559,-3.45338 -2.692981,-0.12898 0,0 z M 56.322131,110.36661 c -1.17195,-6.57966 -4.457377,-0.9958 0,0 z m 6.153808,1.54681 c 0.07559,-2.11275 -5.632599,-1.90106 0,0 z m 3.516712,1.72718 c -1.016554,-0.82343 -0.79569,1.04022 0,0 z m 22.1277,14.19493 c 1.041723,-0.95699 -2.466257,-0.70885 0,0 z m -24.47,-18.09028 c -0.594799,-4.96957 -7.127466,-0.74459 0,0 z M 51.03407,101.5591 c -0.179433,-2.293531 -1.229466,0.86519 0,0 z m 1.876625,-1.41725 c -0.306165,-2.719552 -1.611216,0.34602 0,0 z m 10.368845,6.18928 c 4.384519,-1.7223 -7.986404,-3.5625 -0.895886,-0.3254 z m 138.77077,85.7164 c 2.80632,-2.57291 -3.56664,-0.79549 0,0 z m 16.76447,8.69004 c 1.12462,-3.32651 -2.83148,0.43795 0,0 z M 64.339213,100.89647 c 0.461886,-3.217896 -3.476013,0.63895 0,0 z M 49.586866,91.012525 c -0.792496,-4.543051 -0.684096,-12.517403 6.896142,-9.822489 -10.118359,2.008895 7.003029,12.576102 4.840914,4.232921 4.254535,0.208313 8.322847,-2.514436 6.09012,1.617496 8.382677,-0.925822 14.194271,-8.194786 22.29138,-7.176192 6.307262,-0.834659 13.203398,-1.467685 20.000278,-4.006567 5.58832,-0.402592 10.96784,-6.419266 7.90472,-9.985475 -7.62086,-0.644814 -15.59828,0.308686 -24.021451,1.982926 -9.33393,1.940391 -17.812282,5.626994 -27.23,7.209457 -9.179618,1.233109 1.846397,3.397509 -0.783013,3.879708 -4.790059,1.662012 5.712521,2.782776 -0.620994,4.534857 -3.91146,-0.743722 -7.98279,-2.087663 -6.311988,-6.209625 -8.793267,1.141039 -16.520026,4.790538 -9.572813,13.738823 l 0.516696,0.0039 9e-6,-2.73e-4 z M 70.775443,80.221271 c 2.061713,-7.595161 11.045578,6.249893 3.379256,1.008828 -0.915684,-0.685287 -2.421654,-1.24436 -3.379256,-1.008828 z m 0.401107,-3.682343 c 2.975639,-2.216807 1.581829,1.242837 0,0 z m 3.778361,0.05997 c 0.268622,-3.494912 8.649335,1.850187 1.381885,1.258132 z m 5.168459,-2.078073 c 1.887446,-2.20537 0.542528,1.961664 0,0 z m 1.3222,-0.885386 c 3.142804,-3.776231 17.797984,-2.410041 7.070897,-0.368203 -2.875246,-2.164654 -5.07925,1.276347 -7.070897,0.368203 z m 19.12535,-2.948145 c -0.47808,-10.314904 9.50162,3.665575 0,0 z m 5.42671,-0.0297 c 1.98402,-5.198833 7.69928,-2.086159 0.91811,-1.044701 0.14726,0.553233 -0.19884,2.683918 -0.91811,1.044701 z M 62.199298,98.227988 c 5.928032,-3.630093 -6.293275,-3.149377 0,0 z m 4.383162,1.217991 c 2.078414,-2.21001 -4.516114,-0.896394 0,0 z M 53.667621,90.280181 c 3.387274,-2.602043 -4.008364,-0.989304 0,0 z M 228.71017,199.78679 c 0.0979,-3.01886 -2.589,1.3604 0,0 z m -17.78653,-12.13797 c 0.50578,-3.47568 -2.28572,0.30302 0,0 z m 22.67757,13.3085 c 4.73593,0.016 14.34949,-1.47076 4.04498,-1.46605 -1.61701,0.25218 -9.42199,0.1981 -4.04497,1.46602 z M 70.437977,97.315616 c 3.832808,-0.263261 5.996651,-4.227871 -0.741261,-3.999975 -10.442613,-1.081111 9.213342,3.575604 -1.339625,2.244085 -1.417992,0.939036 1.998513,2.015702 2.080886,1.75589 z m 3.375592,1.708531 c -0.400189,-2.460867 -1.185233,1.307293 0,0 z m 4.004156,-10.677228 c 1.663233,-2.062992 -2.301544,-0.551523 0,0 z M 65.070931,67.039989 c 6.840404,-2.327073 16.194552,-4.941959 19.424358,1.145797 -3.287029,-3.956192 -1.326518,-7.850835 1.778089,-2.066568 4.389948,5.852447 6.587643,-2.661855 3.732359,-4.624876 3.253832,4.042929 6.954713,5.953367 2.17859,0.255535 5.190073,-6.243124 -10.392226,0.817529 -13.933978,0.746427 -1.704068,0.764866 -17.593148,4.052149 -13.179418,4.543685 z M 69.079795,59.3623 c 3.901146,-2.944444 13.492233,1.751455 7.337683,-2.926258 -0.601724,-0.531512 -13.478482,3.547173 -7.337683,2.926258 z m 14.222388,0.587171 c 4.565749,0.116507 -1.969408,-6.13364 3.471258,-3.301503 -0.893542,-2.919069 -6.334462,-3.465553 -8.99447,-4.631799 -1.504506,2.668857 3.062375,7.969175 5.523212,7.933302 z M 71.573644,47.039106 c 1.579523,-2.141233 -2.768224,1.085546 0,0 z m 5.812891,1.39131 c 7.357725,-0.975894 -1.875511,-3.168578 -1.482617,-0.07842 l 1.482617,0.07842 v -1e-5 z M 66.532678,39.937533 c -5.180657,-6.762886 9.74292,1.13682 4.479372,-5.944156 -4.430137,-3.527728 -8.68725,3.969893 -4.479372,5.944156 z m 66.485462,35.810989 c 2.37613,-4.212254 -9.8101,-5.677879 -1.60096,-1.492884 0.75582,0.252567 0.58476,1.784214 1.60096,1.492884 z"
       id="path2900"
       inkscape:connector-curvature="0" />
  </g>
</svg>
