<?xml version="1.0" encoding="UTF-8" standalone="no"?>
<svg
   xmlns:dc="http://purl.org/dc/elements/1.1/"
   xmlns:cc="http://creativecommons.org/ns#"
   xmlns:rdf="http://www.w3.org/1999/02/22-rdf-syntax-ns#"
   xmlns:svg="http://www.w3.org/2000/svg"
   xmlns="http://www.w3.org/2000/svg"
   viewBox="0 0 226.87169 318.9816"
   height="340.24704"
   width="241.99648"
   version="1.1"
   id="svg3406">
  <metadata
     id="metadata3412">
    <rdf:RDF>
      <cc:Work
         rdf:about="">
        <dc:format>image/svg+xml</dc:format>
        <dc:type
           rdf:resource="http://purl.org/dc/dcmitype/StillImage" />
        <dc:title></dc:title>
      </cc:Work>
    </rdf:RDF>
  </metadata>
  <defs
     id="defs3410" />
  <g
     id="layer1">
    <path
       id="path10"
       d="M 7.9687499,110.38785 53.268421,302.3414"
       style="fill:none;stroke:#000000;stroke-width:0.9375px;stroke-linecap:butt;stroke-linejoin:miter;stroke-opacity:1" />
    <path
       id="path12"
       d="m 105,315.70035 46.875,-0.46875"
       style="fill:none;stroke:#000000;stroke-width:0.9375px;stroke-linecap:butt;stroke-linejoin:miter;stroke-opacity:1" />
    <path
       id="path14"
       d="m 178.59375,310.5441 21.5625,-7.5"
       style="fill:none;stroke:#000000;stroke-width:0.9375px;stroke-linecap:butt;stroke-linejoin:miter;stroke-opacity:1" />
    <path
       id="path16"
       d="M 206.25,285.70035 217.96875,133.3566"
       style="fill:none;stroke:#000000;stroke-width:0.9375px;stroke-linecap:butt;stroke-linejoin:miter;stroke-opacity:1" />
    <path
       id="path18"
       d="m 209.53125,131.01285 -24.375,24.84375 -22.5,10.3125"
       style="fill:none;stroke:#000000;stroke-width:0.9375px;stroke-linecap:butt;stroke-linejoin:miter;stroke-opacity:1" />
    <path
       id="path20"
       d="m 136.40625,170.38785 -35.625,-1.875"
       style="fill:none;stroke:#000000;stroke-width:0.9375px;stroke-linecap:butt;stroke-linejoin:miter;stroke-opacity:1" />
    <path
       id="path22"
       d="m 74.999999,158.20035 -10.3125,-11.25"
       style="fill:none;stroke:#000000;stroke-width:0.9375px;stroke-linecap:butt;stroke-linejoin:miter;stroke-opacity:1" />
    <path
       id="path24"
       d="m 65.624999,140.8566 8.4375,-7.03125 -19.6875,-5.15625"
       style="fill:none;stroke:#000000;stroke-width:0.9375px;stroke-linecap:butt;stroke-linejoin:miter;stroke-opacity:1" />
  </g>
  <g
     id="layer2">
    <path
       id="path3432"
       d="m 111.17171,318.67651 c -27.351044,-1.38961 -44.769844,-4.77518 -59.361126,-11.53759 -1.738343,-0.80564 -1.531137,-0.3614 -3.692759,-7.91721 -3.659401,-12.79123 -7.352004,-28.27281 -10.42563,-43.71043 -1.792969,-9.00538 -2.040161,-10.11521 -6.265935,-28.13209 -6.780979,-28.91121 -8.505401,-37.61082 -10.680399,-53.88203 -1.413908,-10.57748 1.624031,-17.47703 3.658714,-8.30941 8.004807,36.06706 14.931925,62.39991 22.256716,84.60699 2.525477,7.65667 2.327481,7.33894 4.446136,7.1348 1.455504,-0.14025 1.457322,-0.12841 0.369259,2.40486 -1.485624,3.45891 -0.760706,5.30254 3.870197,9.84281 3.470033,3.40212 3.504313,3.60329 0.540406,3.1713 -2.312592,-0.33706 -2.198325,-0.57607 -1.358215,2.84082 0.391578,1.59262 1.073623,4.5802 1.515655,6.63906 3.512287,16.35924 8.096077,24.35967 14.774477,25.78696 19.50744,4.16909 47.842574,5.98039 72.795164,4.65339 28.98449,-1.54141 35.91953,-2.64246 44.92059,-7.13189 6.08801,-3.03647 11.33027,-8.7266 8.11778,-8.81129 -2.36645,-0.0624 -2.58859,-0.61643 -0.58092,-1.44889 4.37151,-1.81266 6.21822,-3.74275 5.8609,-6.12551 -0.10674,-0.71184 0.0283,-1.45371 0.56063,-3.07949 1.63671,-4.99887 1.91095,-9.06371 1.49143,-22.10645 -0.19418,-6.03703 -0.18031,-6.47067 0.27944,-8.73456 1.21158,-5.96595 1.75365,-10.47725 2.64427,-22.00655 0.62865,-8.138 0.83211,-10.17541 1.48396,-14.8601 0.653,-4.69297 0.86147,-7.35612 1.23427,-15.76758 0.72923,-16.45331 1.54161,-23.00558 3.0379,-24.50214 2.50407,-2.50453 2.49004,-3.83809 -0.0788,-7.48324 -2.92958,-4.1571 -2.92051,-6.33121 0.0394,-9.44653 1.44136,-1.51703 1.5036,-3.21332 0.51925,-14.15166 -0.25265,-2.80753 -0.5234,-7.01884 -0.60167,-9.35845 -0.0965,-2.88395 -0.22352,-4.25385 -0.39449,-4.25385 -0.545,0 -4.06379,3.00685 -11.81607,10.09697 -8.81372,8.0609 -11.11718,9.96328 -16.05952,13.26319 -10.19488,6.80696 -19.98329,10.1404 -36.91502,12.5714 -17.09015,2.45374 -37.20979,1.87425 -50.381554,-1.45111 -8.87576,-2.24078 -14.0146,-4.65961 -24.02615,-11.30897 -9.37662,-6.22767 -8.86622,-16.31047 1.05072,-20.75684 4.46538,-2.00209 1.00958,-4.18309 -7.95387,-5.01976 -6.7415,-0.62928 -3.31508,-1.94056 5.30883,-2.03168 10.47798,-0.11071 17.92281,-3.83134 27.54854,-13.76765 4.030524,-4.16057 4.968854,-4.97682 10.339034,-8.994 8.53904,-6.387653 11.5519,-9.160823 12.91399,-11.886603 1.02932,-2.05986 0.9722,-4.09516 -0.12668,-4.51295 -0.3598,-0.1368 -0.53623,-0.38448 -0.53623,-0.75279 0,-0.68616 2.08726,-0.58674 -34.030764,-1.62103 -38.104641,-1.09118 -66.950959,-2.813413 -81.6718239,-4.876112 -2.875672,-0.402942 -1.505624,2.146392 2.004031,3.729024 1.110417,0.500729 1.214328,0.948678 0.262701,1.132488 -2.593142,0.50087 -2.449142,0.13263 -1.705205,4.36066 2.886846,16.406883 7.3712879,20.483733 16.1443379,14.676993 1.738506,-1.15069 2.344664,-1.36488 6.590988,-2.3289 9.299069,-2.11112 19.337628,-3.27402 34.326571,-3.976543 15.45435,-0.72431 54.627644,-0.7819 54.813704,-0.59584 0.40483,0.40482 -44.938254,1.463183 -58.670524,2.856773 -14.214662,1.44255 -18.981178,2.09534 -25.587711,3.50436 -1.782467,0.38015 -3.72222,0.69256 -4.310562,0.69423 -3.846718,0.0109 -9.45196,3.89392 -11.483819,7.95537 -2.559427,5.11599 -0.202998,8.17383 6.784161,8.80352 2.340199,0.2109 8.055052,1.22694 9.068667,1.61232 0.874869,0.33263 0.698198,0.88015 -0.447543,1.38696 -1.238025,0.54764 19.671772,2.19697 20.79346,2.90506 2.2434,1.4162 -19.619009,-0.35518 -25.820735,-2.14729 -10.344507,-2.98924 -12.447495,-3.16022 -9.60573,-0.78096 1.347771,1.12842 1.290765,1.45575 -0.176007,1.01065 -2.275242,-0.69043 -2.226926,-1.15003 -0.845135,8.03924 1.769617,11.76842 0.412089,11.18479 -2.053149,-0.88269 -3.392423,-16.6061 -8.8823219,-30.74762 -6.4294149,-16.56163 0.532426,3.0792 1.1331729,5.50743 2.9186659,11.79732 2.40628,8.47679 3.816097,16.59655 2.972182,17.11812 -0.394348,0.24372 -2.530429,-6.43611 -4.023058,-12.58068 -1.6466309,-6.77875 -2.3472879,-10.63557 -5.7494549,-31.6486 -1.725191,-10.655433 -3.221984,-17.886274 -5.022781,-24.264531 -1.026571,-3.636018 -0.660115,-5.355152 1.701415,-7.981741 4.840769,-5.384101 16.9334399,-8.673005 16.9334399,-4.605475 0,1.952728 -2.483471,3.265476 -8.550145,4.519561 -6.9144719,1.42934 -7.4824149,2.326647 -3.8493349,6.081664 3.3027959,3.413647 24.1016009,6.388123 49.4930009,7.078086 4.866398,0.132236 12.114948,0.343592 16.107888,0.469683 28.349024,0.895213 58.291044,0.880491 60.028524,-0.02952 0.1987,-0.104066 1.11104,-1.393816 2.02742,-2.866111 3.75432,-6.031784 7.33394,-10.5622 12.54885,-15.881956 3.69565,-3.769952 3.80537,-3.908591 3.21129,-4.057695 -1.75408,-0.440245 -1.8966,-7.468911 -0.16924,-8.346299 3.16537,-1.607801 4.70596,-3.876518 9.67579,-14.248831 2.63073,-5.490461 4.1088,-7.911805 6.34588,-10.395635 1.93604,-2.149589 3.41323,-5.114738 5.59399,-11.228713 2.14358,-6.009727 10.53672,-9.7519146 12.07777,-11.3303586 2.96407,-3.035981 -3.94372,-0.430507 -6.54913,7.4507886 -2.15225,6.510503 -9.44717,22.399778 -14.96937,32.605208 -4.71544,8.714494 -4.07897,11.227828 2.49881,9.867515 1.17294,-0.242569 2.26627,-0.318331 3.27115,-0.22667 1.73527,0.158284 3.61747,-0.230629 8.25361,-1.705415 3.84262,-1.222364 4.33677,-1.021435 2.67092,1.086021 -1.18451,1.498517 -1.17884,1.517738 0.70429,2.389985 1.86552,0.864095 1.72803,1.040138 -0.81238,1.040138 -3.52138,0 -5.97602,1.407279 -6.33143,3.629907 -0.15732,0.983851 -0.15732,0.983851 -1.62908,-0.628719 -4.0622,-4.450839 -8.57182,-3.729959 -11.30602,1.807312 -0.95629,1.936663 -2.46581,3.358881 -3.56506,3.358881 -0.68201,0 -0.52286,-0.450456 1.08875,-3.081768 3.89279,-6.355808 3.96593,-7.464333 0.37211,-5.640205 -4.09115,2.076563 -10.4109,10.975506 -10.66856,15.022581 -0.22459,3.527735 3.92727,5.424514 7.07806,3.233612 11.97915,-8.329704 17.90707,-11.620961 13.01156,-7.224183 -1.0167,0.91312 -2.11195,1.966495 -2.4339,2.340833 -2.31738,2.69448 -4.12667,3.896208 -7.51489,4.991381 -11.28342,3.647135 -11.28342,8.712245 0,8.442377 3.00923,-0.07197 5.61286,-0.02881 6.34276,0.105146 5.47285,1.004418 29.67191,-3.158546 42.00325,-7.225814 7.80843,-2.575467 9.09247,-5.704577 4.28903,-10.452071 -6.17338,-6.101481 -12.7388,-4.894864 -8.58983,1.578673 2.57214,4.013253 -5.15661,8.279453 -18.20794,10.050615 -5.87761,0.797638 -8.12101,1.192966 -10.27989,1.811521 -1.47228,0.421836 -5.81683,0.954045 -9.35273,1.145718 -4.68016,0.253697 -6.16753,-0.363689 -2.55794,-1.061769 5.52438,-1.068398 7.73485,-1.396059 14.32627,-2.123601 17.67329,-1.950726 23.37161,-4.714185 23.41804,-11.356818 0.0258,-3.688505 -2.95823,-4.248962 -11.30016,-2.122407 -2.67104,0.680912 -2.78136,0.430532 -0.33014,-0.74931 3.74861,-1.804317 3.4529,-3.3467 -0.95289,-4.970032 -1.46979,-0.541552 -1.46979,-0.541552 0.68549,-0.714251 9.8614,-0.790174 14.67803,-4.711127 10.08802,-8.2121 -0.89967,-0.68621 -0.87284,-0.910972 0.13274,-1.112089 0.38588,-0.07717 1.14292,-0.457248 1.6823,-0.844605 2.17032,-1.558608 3.98188,3.267749 2.06646,5.50548 -2.63061,3.073281 -0.47607,7.058044 4.74255,8.771195 5.35476,1.757843 7.82239,-0.671542 5.61023,-5.523284 -0.39825,-0.873456 -1.18154,-3.425763 -1.74065,-5.671792 -3.18521,-12.795602 -10.09039,-27.111168 -13.0772,-27.111168 -0.28604,0 -0.47905,-0.260249 -0.63098,-0.850768 -2.85159,-11.083636 -3.82324,-13.1425576 -7.10512,-15.0556426 -5.57292,-3.248593 -7.32048,-8.884803 -2.17286,-7.00788696 11.78841,4.29826796 24.20914,19.25461356 33.64445,40.51273056 7.51259,16.926164 9.2093,42.089089 4.30341,63.821832 -2.6973,11.94888 -4.82277,35.41402 -7.25657,80.11239 -0.99429,18.26081 -1.98159,31.73001 -3.168,43.21906 -0.29636,2.86992 -0.60186,6.23897 -0.67889,7.48676 -0.58067,9.40622 -2.70218,26.93621 -4.79115,39.58911 -0.43784,2.65202 -0.62884,4.91085 -0.77692,9.18831 -0.56131,16.21356 -5.73243,24.2151 -16.71487,25.86373 -1.15306,0.17308 -3.09606,0.62161 -4.31778,0.99672 -14.34954,4.40567 -28.77554,6.25589 -57.69145,7.39928 -9.67228,0.38249 -9.41534,0.38278 -17.35569,-0.0206 z m 3.47315,-3.13051 c 0.6292,-0.62921 -3.20382,-1.19101 -11.75396,-1.72282 -2.18364,-0.13583 -4.684914,-0.34616 -5.558364,-0.4674 -5.54992,-0.77039 -15.54071,-1.36761 -15.54071,-0.92898 0,1.69551 31.304544,4.66769 32.853034,3.1192 z M 60.239016,304.0755 c 0,-0.53921 -4.469677,-18.19838 -5.372518,-21.22618 -1.663913,-5.58019 -5.003578,-13.4959 -5.621969,-13.32525 -0.925444,0.25537 1.312584,12.01347 3.659062,19.22391 2.316643,7.11876 7.335425,17.60561 7.335425,15.32752 z m -6.970595,-1.7341 c 0.5757,-3.64723 -0.55425,-8.94332 -4.451255,-20.86312 -2.337672,-7.15022 -3.110145,-9.84945 -3.665572,-12.80845 -0.587591,-3.13033 -0.534821,-2.98592 -1.062447,-2.90733 -2.19848,0.32744 -2.007027,3.78753 0.716921,12.95677 1.971778,6.63734 2.196964,7.53675 2.496553,9.97145 0.850644,6.91298 5.389863,17.29944 5.9658,13.65068 z M 42.768554,258.7442 c -0.002,-4.56403 -0.644767,-8.28227 -2.716092,-15.71087 -2.316224,-8.30688 -3.234762,-11.90325 -3.752304,-14.69144 -0.99049,-5.3361 -3.045738,-8.251 -2.401166,-3.40549 0.344282,2.58812 2.856124,15.66603 3.541194,18.43724 0.308466,1.24779 0.820709,4.34117 1.138315,6.87414 0.879754,7.01626 1.351997,8.94506 2.617975,10.69269 1.296288,1.78948 1.573621,1.40203 1.572078,-2.19627 z M 119.58752,149.53753 c 0.62548,-0.69236 0.51094,-2.2036 -0.46239,-6.10087 -1.3267,-5.31217 -1.32246,-7.78776 0.0169,-9.83234 2.26825,-3.46264 -10.84592,-5.00595 -18.57341,-2.18576 -7.041354,2.56977 -8.607634,6.87428 -4.240194,11.65296 2.14323,2.34504 -0.99238,3.61347 -3.94856,1.59729 -4.04092,-2.756 -3.67482,-11.44138 0.48226,-11.44138 0.48052,0 1.40767,-0.97128 1.40767,-1.47466 0,-0.74609 -0.89575,-1.37489 -2.80282,-1.96752 -2.63602,-0.81917 -2.62309,-0.98386 0.11249,-1.43316 6.41886,-1.05424 12.474064,-5.60529 22.038564,-16.56403 12.42277,-14.233693 17.37013,-18.501483 10.78287,-9.30174 -3.32688,4.6463 -6.10972,7.86571 -11.66835,13.49886 -9.9658,10.09943 -11.20559,12.25108 -7.05912,12.25108 6.27121,0 9.06933,-2.57309 14.80275,-13.61231 5.41492,-10.42595 8.08317,-13.108 11.90807,-11.96967 1.6159,0.48091 1.60818,0.51181 -2.90413,11.62937 -4.17139,10.27757 -3.98249,13.09897 0.72101,10.76888 2.3473,-1.16285 2.25853,-1.01162 3.19177,-5.4374 2.29886,-10.90208 7.04046,-25.863383 8.19673,-25.863383 1.53266,0 0.6154,6.714323 -1.89061,13.839183 -3.77614,10.73604 -3.95877,14.19582 -0.90875,17.21566 3.32263,3.28974 7.04713,2.68367 9.92874,-1.61567 1.05436,-1.5731 1.52122,-1.35878 2.34227,1.07521 0.61075,1.81055 0.71232,1.87023 3.24309,1.90567 3.47585,0.0487 8.22922,-1.20872 8.49111,-2.24611 0.085,-0.33677 0.27326,-0.53313 0.4634,-0.48337 1.87221,0.48999 1.84498,-1.41513 -0.0318,-2.22248 -1.21945,-0.52459 -1.32655,-0.85735 -0.42415,-1.31777 1.99003,-1.01536 4.06577,0.50581 4.06577,2.97951 0,1.04257 0.24752,1.17553 2.72246,1.46249 16.17625,1.87552 25.90258,-2.33796 31.40771,-13.60591 0.93714,-1.91815 2.72417,-5.42729 3.97117,-7.7981 4.44923,-8.458863 6.27937,-14.647413 5.47601,-18.516929 -0.46851,-2.256711 -0.22469,-2.179511 -5.03766,-1.594981 -24.68729,2.998241 -46.88731,5.041427 -65.53742,6.031747 -3.55621,0.18884 -7.37676,0.39702 -8.49011,0.46262 -2.02427,0.11928 -2.02427,0.11928 -6.01228,4.03251 -6.43739,6.31669 -12.01268,11.433653 -22.59113,20.733973 -2.994714,2.63287 -5.751204,5.11817 -6.125544,5.52288 -1.06709,1.15368 -4.57178,3.92495 -9.75548,7.71395 -10.82787,7.91459 -16.44936,14.0061 -14.57821,15.79711 2.14298,2.05119 18.21453,4.98305 31.593594,5.76348 2.24603,0.13101 5.35984,0.38601 6.91959,0.56666 4.11553,0.47666 4.23809,0.48678 6.37396,0.52655 1.72184,0.0321 2.00053,-0.0197 2.38215,-0.4421 z m 65.54436,-35.71433 c -8.4391,-1.36797 -16.57227,-6.13247 -25.01406,-14.653543 -5.56605,-5.61833 -4.92093,-6.05437 2.99672,-2.02551 5.80271,2.952693 7.89738,3.688963 10.33345,3.632143 0.93585,-0.0218 2.16096,-0.0488 2.72246,-0.06 2.52791,-0.0502 12.29162,5.33669 11.36046,6.26785 -0.31909,0.3191 -2.11311,-0.25457 -5.57523,-1.78278 -11.08844,-4.89452 -18.18016,-4.93034 -10.66297,-0.0539 7.90986,5.13121 16.59917,7.58547 21.78874,6.15414 1.93879,-0.53474 2.47204,-0.52262 2.55493,0.0581 0.32117,2.25001 -4.64151,3.41383 -10.5045,2.46345 z m -46.72204,35.74134 c 0.9908,-0.24826 4.81317,-0.96807 8.49417,-1.59958 17.4028,-2.98558 21.37833,-4.5024 32.18406,-12.27949 7.33241,-5.27728 8.22472,-10.47815 1.66636,-9.71241 -7.33034,0.85587 -8.13792,1.50535 -10.28968,8.2753 -2.50493,7.88109 -3.61454,8.83432 -10.29352,8.8428 -7.00308,0.009 -9.82926,-2.40543 -11.81193,-10.0906 -0.70102,-2.71726 -0.88848,-2.95234 -2.87713,-3.60804 -7.3848,-2.43492 -11.05459,2.46883 -11.05592,14.77349 -2.2e-4,2.10717 -0.12863,2.22195 -2.55958,2.28808 -3.96052,0.10773 -4.38797,-1.20778 -2.04932,-6.30707 3.10082,-6.76115 3.21977,-8.08873 0.8159,-9.10618 -5.20695,-2.20387 -10.40357,3.38207 -9.42058,10.12635 0.88123,6.04612 5.22585,9.23638 10.65929,7.82713 1.54179,-0.39989 1.54179,-0.39989 2.89872,0.29995 1.63296,0.84221 1.41981,0.82638 3.63916,0.27027 z m 24.20481,-10.32097 c 3.09165,-0.27558 5.15159,-2.45442 5.15159,-5.44896 0,-4.32906 -3.75333,-6.2205 -8.35927,-4.21253 -1.34807,0.58769 -1.62531,0.63355 -2.74219,0.45358 -4.74451,-0.76453 -6.67334,3.17211 -3.38476,6.90812 2.11798,2.40616 3.7182,2.80041 9.33463,2.29979 z m -42.65274,-12.6238 c 4.95596,-2.52834 11.06206,-15.46125 9.09133,-19.25571 -0.5818,-1.12019 -0.79568,-1.02055 -2.10078,0.97866 -0.63648,0.97499 -2.22663,3.19137 -3.53366,4.92529 -6.08485,8.0722 -7.67453,11.52176 -6.05567,13.14062 0.81942,0.81942 1.32581,0.86056 2.59878,0.21114 z M 90.790646,282.59683 c -1.352,-0.17329 -6.04824,-1.02551 -10.43609,-1.89383 -8.54665,-1.69133 -12.38859,-2.27768 -14.92403,-2.27768 -2.34206,0 -2.87302,-0.45327 -2.21716,-1.89273 0.71148,-1.56151 2.88473,-1.39551 10.05958,0.76842 4.73102,1.42686 8.00047,2.21962 9.88011,2.39567 0.81106,0.076 1.98513,0.2781 2.60902,0.44921 1.78886,0.49061 16.017504,2.36312 17.956594,2.36312 0.0586,0 0.0434,0.10209 -0.0337,0.22687 -0.21029,0.34026 -9.976384,0.23495 -12.894304,-0.13905 z m 23.365104,-9.94247 c -2.96414,-1.45216 -3.88121,-3.37118 -4.66886,-9.76975 -0.82514,-6.7032 -2.11341,-8.76946 -6.01653,-9.6499 -0.63065,-0.14225 -1.31908,-0.30569 -1.52985,-0.36318 -0.53743,-0.14658 -0.95166,-2.29986 -0.75115,-3.90469 0.45217,-3.61901 2.72128,-6.53077 9.52861,-12.22722 1.49735,-1.25302 3.11933,-2.69079 3.60439,-3.19506 4.7883,-4.9779 20.33351,1.39923 26.42942,10.8422 4.32777,6.70401 4.27791,8.21529 -0.37213,11.28035 -5.73199,3.77823 -6.55413,4.8593 -6.4378,8.46529 0.0383,1.1854 0.0861,2.71679 0.10624,3.40308 0.12645,4.29806 -2.35343,5.41268 -8.57217,3.85289 -5.26584,-1.32078 -6.95057,-1.11315 -9.07188,1.11805 -0.79336,0.83443 -0.84064,0.83754 -2.24829,0.14794 z m 15.12025,-2.99468 c 4.11852,-2.10669 4.98053,-7.3232 1.95808,-11.84935 -3.24074,-4.85304 -7.43731,-3.18041 -7.28727,2.90452 0.18466,7.4886 2.05121,10.62154 5.32919,8.94483 z m -11.50074,-1.09287 c 3.25357,-1.46804 4.33148,-7.13534 2.21145,-11.6271 -2.06724,-4.37994 -5.92963,-1.79957 -6.66328,4.45156 -0.11104,0.94612 -0.3088,2.27012 -0.43947,2.94225 -0.89103,4.58317 0.82477,6.06816 4.8913,4.23329 z m -7.17073,-15.10189 c 3.60601,-2.41306 7.2018,-2.52531 18.26318,-0.57018 6.34462,1.12145 11.46199,0.37743 11.45366,-1.66524 -0.031,-7.60614 -4.62737,-9.86116 -16.33141,-8.01224 -7.367,1.16376 -10.08243,1.16805 -13.39656,0.0211 -3.6483,-1.26257 -7.99076,2.19491 -7.3494,5.85161 0.59772,3.40791 4.94462,5.99161 7.36053,4.37492 z M 83.720236,241.66464 c -16.49947,-3.46885 -26.964512,-23.21898 -18.31783,-34.57029 2.64993,-3.4788 3.48618,-2.26511 1.63714,2.37607 -7.71525,19.36567 16.34484,37.49637 35.010524,26.38249 13.64389,-8.12382 13.4763,-27.98926 -0.29353,-34.79357 -0.56151,-0.27747 -1.73557,-0.94412 -2.609034,-1.48145 -5.33392,-3.2813 -11.33791,-3.06724 -22.8044,0.81306 -6.69589,2.26591 -13.05227,8.98417 -10.9407,6.7034 8.03394,-8.67762 31.78149,-15.13333 42.252794,-6.17373 19.03029,16.28295 1.51723,46.09508 -23.934964,40.74399 z m 66.927154,-1.49418 c -26.02693,-3.98477 -34.81066,-29.05099 -15.32378,-43.7296 17.41242,-13.11601 44.13645,-0.12465 43.27912,21.03929 -0.52802,13.0347 -14.88883,24.69082 -27.95534,22.69031 z m 5.33148,-4.25607 c 19.97026,-0.26559 26.64933,-25.64864 9.76586,-37.114 -10.6048,-7.20157 -27.80229,-3.91977 -33.9473,6.47817 -7.20107,12.1849 0.62962,28.51964 14.76627,30.80229 0.37434,0.0604 1.95677,0.0569 3.51651,-0.008 1.55974,-0.0648 4.21414,-0.13612 5.89866,-0.15854 z m -19.98073,-11.10034 c -5.8485,-1.65474 -6.7687,-8.69435 -1.83495,-14.03738 4.45718,-4.82691 10.85562,-2.73949 13.52797,4.41334 1.18449,3.1704 0.77009,3.65104 -2.95661,3.42912 -2.38182,-0.14182 -3.50534,0.0327 -3.50094,0.54394 6.8e-4,0.0892 0.80191,0.7523 1.78032,1.47357 2.91891,2.15178 2.98576,2.86014 0.35563,3.76804 -1.91298,0.66035 -5.7343,0.87256 -7.37142,0.40937 z m -61.823454,1.4233 c -6.19455,-0.58971 -8.37815,-3.94752 -5.86884,-9.02477 2.97461,-6.01871 9.7246,-7.77843 13.47844,-3.51384 5.68092,6.45385 1.4639,13.40239 -7.6096,12.53861 z M 23.818014,65.152824 c -0.08157,-0.131981 0.116344,-0.616919 0.439806,-1.077641 0.323465,-0.460719 0.852269,-1.212781 1.175123,-1.671243 0.322854,-0.458465 0.642453,-1.246951 0.71022,-1.752192 0.07685,-0.572948 0.261676,-0.96062 0.491179,-1.030233 0.937557,-0.284388 9.157624,-1.975052 12.619039,-2.595426 8.893205,-1.593887 11.304778,-1.752881 31.421725,-2.071624 37.332254,-0.591511 51.615564,-1.063121 65.424964,-2.160211 4.7512,-0.37746 4.50045,-0.427347 5.62371,1.118838 1.7692,2.43532 0.21687,4.133296 -4.48568,4.906547 -5.64956,0.928969 -28.40172,0.342876 -34.46064,-0.887703 -6.427034,-1.305343 -8.449314,-1.236487 -10.303734,0.350823 -1.07847,0.923134 -0.84123,0.92464 -3.68678,-0.0234 -3.58635,-1.194859 -6.73492,-1.575343 -11.64599,-1.407349 -3.98837,0.136432 -5.53846,0.312538 -15.08697,1.714052 -2.55798,0.375457 -6.131207,0.794119 -7.940509,0.930362 -6.27371,0.472417 -13.456332,1.801307 -23.330945,4.316565 -6.613359,1.684554 -6.736796,1.708301 -6.964518,1.339839 z M 183.20348,49.102446 c 0,-1.133699 1.46297,-2.775937 7.90267,-8.870992 3.57604,-3.384665 6.16337,-6.396949 6.16337,-7.17568 0,-0.738453 0.63313,-0.795142 0.88276,-0.07904 1.38729,3.979586 -1.41831,7.929958 -9.27701,13.062295 -1.8093,1.181613 -3.72652,2.446368 -4.26048,2.810568 -1.12594,0.767967 -1.41131,0.819095 -1.41131,0.252851 z"
       style="fill:#000000" />
    <path
       transform="scale(0.93749999)"
       id="path28"
       d="m 120.61855,333.05341 c -24.870648,-1.47525 -43.918333,-4.04356 -48.088188,-6.48402 -3.74304,-2.19066 -6.84769,-6.94958 -9.379435,-14.37714 -1.11278,-3.26464 -5.282375,-20.0361 -5.282375,-21.24742 0,-0.20624 0.9,-0.28916 2,-0.18426 1.355435,0.12926 2,-0.008 2,-0.42599 0,-0.3392 -1.41695,-2.11876 -3.148775,-3.95459 -4.218056,-4.47136 -4.757049,-5.82565 -3.67929,-9.24469 1.064863,-3.37814 1.082718,-3.28904 -0.659095,-3.28904 -1.996251,0 -2.217327,-0.48918 -6.681555,-14.78445 -6.432424,-20.59778 -12.670087,-44.29668 -19.06321,-72.42731 -3.297759,-14.5106 -4.006176,-16.35014 -5.659741,-14.69657 -0.325417,0.32542 -0.670314,0.49417 -0.766438,0.375 -0.369702,-0.45833 -12.3599424,-52.11529 -12.146229,-52.329 0.467415,-0.46742 3.988611,11.49692 6.354117,21.59004 2.291144,9.77584 2.997002,11.89217 3.723935,11.16524 0.159711,-0.15971 -0.075,-3.06971 -0.521591,-6.46667 -0.446587,-3.39695 -0.945983,-7.2757 -1.109769,-8.61943 l -0.297794,-2.44316 1.577718,0.23156 c 1.868491,0.27424 1.929934,0.0941 0.49056,-1.43802 l -1.087157,-1.15723 1.212157,7.5e-4 c 0.666687,4.3e-4 3.687157,0.66146 6.712157,1.46897 6.980334,1.86336 15.151558,3.01946 23.75,3.36024 5.977695,0.23692 7.836949,0.55022 16.25,2.73828 5.225,1.35892 9.67883,2.52159 9.897395,2.58372 0.21857,0.0621 -1.4011,1.57211 -3.59926,3.35551 -3.83886,3.11451 -4.66444,4.32811 -2.834945,4.16736 0.603075,-0.053 0.76116,0.16834 0.53568,0.75 -0.175935,0.45384 -0.44707,1.88825 -0.60253,3.18756 -0.155455,1.29931 -0.476975,2.24228 -0.71449,2.09549 -0.23752,-0.14679 -0.667315,-0.12137 -0.9551,0.0565 -0.97524,0.60273 10.126045,12.85667 11.25489,12.42349 0.32591,-0.12506 2.70611,1.02155 5.289335,2.54802 5.271625,3.1151 10.412675,5.23044 16.989423,6.9905 2.4487,0.65531 4.64873,1.31295 4.88896,1.46142 1.76482,1.09072 38.60064,2.82467 38.60064,1.81702 0,-0.27765 1.06875,-0.50604 2.375,-0.50753 2.98482,-0.004 15.01342,-1.75148 20.59967,-2.99368 2.32356,-0.51669 4.38207,-0.84215 4.57447,-0.72324 0.63825,0.39446 13.10996,-4.81314 18.95086,-7.91299 3.1625,-1.67838 7.18842,-4.3039 8.94649,-5.83449 3.29246,-2.86645 7.77529,-6.8329 18.26032,-16.1569 3.32376,-2.95571 6.17812,-5.37446 6.34303,-5.375 0.16491,-5.5e-4 0.44527,2.30526 0.62301,5.12401 0.17775,2.81875 0.57788,8.725 0.88918,13.125 0.60788,8.59187 0.5577,8.92737 -1.82479,12.19894 -1.82637,2.50793 -1.63497,4.65365 0.76276,8.55106 1.09969,1.7875 1.99547,3.8125 1.99062,4.5 -0.005,0.6875 -0.65635,2.20531 -1.44777,3.3729 -1.95561,2.88511 -2.60655,7.75389 -3.55999,26.6271 -0.28479,5.6375 -0.84275,12.8375 -1.2399,16 -0.39715,3.1625 -1.18204,11.15 -1.74421,17.75 -0.56216,6.6 -1.46686,14.67195 -2.01043,17.93767 -0.79593,4.78181 -0.989,8.33442 -0.99182,18.25 -0.003,10.56603 -0.14484,12.90189 -1,16.46901 -0.54807,2.28617 -1.00447,4.76117 -1.01422,5.5 -0.0295,2.2381 -1.22572,3.71556 -4.51199,5.57285 -3.455,1.95265 -3.91959,2.69001 -1.84529,2.92868 2.64841,0.30474 1.15797,2.76897 -3.82569,6.32523 -8.25354,5.88961 -16.53681,7.89929 -39.29931,9.53476 -10.17096,0.73078 -38.75887,1.32399 -45.25,0.93895 z m -9.95378,-31.63237 c -0.14454,-0.23387 -2.00644,-0.57261 -4.13757,-0.75275 -7.541718,-0.63751 -20.230488,-2.88738 -27.453208,-4.86778 -7.858195,-2.15464 -10.95252,-2.36257 -11.90452,-0.79996 -0.869325,1.42691 0.65023,2.15271 5.318145,2.54012 2.272015,0.18856 8.630935,1.21638 14.130935,2.28403 8.60366,1.67014 10.999015,1.9468 17.154508,1.98138 3.93498,0.0221 7.03625,-0.15117 6.89171,-0.38504 z m 14.59638,-11.32478 c 2.10522,-1.43053 3.63406,-1.52977 7.8574,-0.51 3.52587,0.85136 6.94081,0.96066 8.24283,0.26384 1.34971,-0.72234 2.00458,-3.26586 1.87619,-7.2871 -0.1416,-4.43524 0.25807,-5.0671 5.67265,-8.96808 5.17553,-3.72876 5.67044,-4.86647 3.8393,-8.82574 -3.84255,-8.30832 -12.73047,-15.29855 -21.87644,-17.20554 -6.06153,-1.26387 -7.23192,-0.71113 -15.85459,7.48759 -5.72802,5.44641 -7.14994,7.77591 -7.14994,11.71361 0,2.37474 0.12051,2.65037 1.375,3.14494 4.04584,1.59503 4.63621,1.99895 5.5458,3.79439 0.52721,1.04065 1.35035,4.25459 1.8292,7.14209 0.98405,5.93389 2.13027,8.63173 4.12775,9.71546 1.88716,1.02387 2.40108,0.97088 4.51485,-0.46546 z m -21.91874,-32.57064 c 9.00713,-2.52891 16.48393,-9.69672 19.10046,-18.31108 1.58935,-5.23259 1.20317,-11.92678 -0.95326,-16.52433 -2.12937,-4.53984 -6.6822,-9.28605 -10.58992,-11.03973 -9.56594,-4.29294 -25.774613,-1.79431 -37.381328,5.76247 -9.77942,6.36709 -9.629735,20.6685 0.330385,31.56645 7.537795,8.24755 18.866125,11.5301 29.493663,8.54622 z m 68.71656,-2.44784 c 9.38412,-3.20988 17.00544,-11.91155 18.41128,-21.02113 1.9754,-12.80027 -7.70679,-25.86237 -21.83175,-29.45287 -3.82957,-0.97346 -10.74301,-0.97028 -14.4938,0.007 -9.93479,2.58768 -18.83174,11.45153 -20.82547,20.74799 -2.67475,12.47194 6.21742,25.01707 20.89181,29.47428 7.44416,2.26109 11.77997,2.32062 17.84793,0.24505 z"
       style="fill:#2a7fff;stroke-width:0.5" />
    <path
       transform="scale(0.93749999)"
       id="path30"
       d="m 62.868552,137.79286 c -1.7875,-0.51704 -4.4875,-1.04674 -6,-1.17713 -1.5125,-0.13039 -6.575,-0.69334 -11.25,-1.25101 -4.675,-0.55766 -8.647685,-1.01495 -8.82819,-1.0162 -0.180505,-0.001 -0.217548,-0.42535 -0.08232,-0.94247 0.216788,-0.829 -0.276661,-1.03163 -4.17181,-1.71306 -2.429724,-0.42507 -5.5374,-0.92341 -6.905946,-1.10741 -3.434196,-0.46175 -5.986739,-1.86831 -6.754601,-3.7221 -1.394029,-3.36548 2.575997,-9.23145 8.124097,-12.00386 1.66567,-0.83235 3.498804,-1.5155 4.07363,-1.51811 0.574827,-0.003 3.974554,-0.5491 7.55495,-1.2144 7.892853,-1.46663 21.25887,-3.06069 31.740189,-3.7854 8.62721,-0.5965 53.659439,-2.46767 53.908519,-2.23998 0.0872,0.0797 -2.72532,2.35462 -6.25,5.05539 -3.52468,2.70077 -9.13012,7.52459 -12.45652,10.71961 -12.125709,11.64677 -17.141369,14.05507 -31.090394,14.92827 -7.056505,0.44173 -8.377109,0.70716 -7.840252,1.57581 0.361207,0.58445 0.189206,0.55763 -3.771353,-0.58795 z"
       style="fill:#2a7fff;stroke-width:0.5" />
    <path
       transform="scale(0.93749999)"
       id="path34"
       d="m 121.82689,159.64962 c -0.11459,-0.10816 -4.82084,-0.56864 -10.45834,-1.02328 -19.764997,-1.59399 -34.499998,-4.56999 -34.499998,-6.9679 0,-2.18951 6.229138,-8.2513 16.453524,-16.01147 7.624564,-5.78695 24.921584,-20.979 37.229814,-32.69912 5.57462,-5.308264 7.82508,-7.137589 9,-7.31582 0.86166,-0.130711 6.06666,-0.482837 11.56666,-0.782503 17.46601,-0.951631 35.62455,-2.598129 64.40063,-5.839428 9.0872,-1.02357 8.82918,-1.118775 8.84172,3.26241 0.0106,3.688688 -2.19954,10.004481 -6.51614,18.621251 -6.33324,12.64236 -9.13001,16.12806 -15.26999,19.03144 -5.46767,2.58548 -13.67523,3.54444 -21.41624,2.50226 -2.17195,-0.29241 -2.51626,-0.50685 -2.94024,-1.8312 -0.92995,-2.90475 -2.89152,-4.01673 -4.84974,-2.74923 -0.62627,0.40537 -0.50254,0.68541 0.75,1.69753 0.825,0.66663 1.3875,1.28848 1.25,1.38188 -3.49582,2.37462 -5.54979,3.04807 -9.48685,3.11053 l -3.73685,0.0593 -0.89208,-1.875 c -0.49065,-1.03125 -1.17157,-1.87499 -1.51315,-1.87498 -0.34159,0 -1.26795,0.81074 -2.05858,1.80163 -2.71155,3.39835 -5.77134,3.78089 -8.99406,1.12445 -3.34883,-2.76039 -3.4171,-6.55269 -0.28332,-15.73918 2.14115,-6.27665 3.45731,-12.00378 3.46139,-15.06192 0.0103,-7.690848 -4.12475,2.03357 -8.67888,20.41032 -2.05884,8.30781 -2.23684,8.76721 -3.81258,9.83968 -0.90911,0.61875 -2.21363,1.125 -2.89893,1.125 -1.205,0 -1.23705,-0.0868 -0.9737,-2.63841 0.15612,-1.5127 1.67928,-6.22593 3.56995,-11.04675 1.8137,-4.62459 3.29764,-8.84288 3.29764,-9.37397 0,-1.3894 -2.20607,-2.11543 -4.314,-1.41975 -2.4429,0.80624 -4.97621,4.09212 -9.45591,12.26501 -4.85764,8.86241 -7.40699,12.22621 -10.34328,13.64765 -2.2452,1.08688 -7.06838,1.48596 -7.5982,0.62868 -0.45227,-0.73178 2.50141,-4.37291 9.33843,-11.51188 9.0694,-9.46993 16.2648,-18.62507 15.78039,-20.07831 -0.3191,-0.95729 -2.94292,1.57751 -11.62691,11.23245 -13.36001,14.85376 -17.82483,18.57424 -24.679979,20.56555 -2.007204,0.58306 -3.635082,1.26703 -3.617508,1.51992 0.01757,0.2529 0.647333,0.68481 1.399462,0.95981 2.720963,0.99486 3.379815,1.58148 2.698379,2.40256 -0.342039,0.41213 -1.171068,0.88716 -1.842286,1.05563 -3.704561,0.92978 -3.60714,9.35613 0.142268,12.30541 1.493583,1.17485 5.008904,1.35547 5.422144,0.27858 0.14939,-0.3893 -0.53267,-1.87704 -1.51569,-3.3061 -3.017649,-4.38689 -2.03795,-7.33179 3.30001,-9.91951 5.563,-2.69683 14.8756,-3.34896 19.60502,-1.37288 1.74678,0.72985 1.89173,0.93134 1.5684,2.18024 -0.87559,3.38208 -0.81301,6.28931 0.23953,11.1273 1.29933,5.97237 1.09859,6.49877 -2.47816,6.49877 -1.29549,0 -2.44919,-0.0885 -2.56377,-0.19664 z m 86.12078,-39.16025 c 0.5829,-0.58291 0.93102,-1.39551 0.77358,-1.80579 -0.23534,-0.61327 -0.67014,-0.65678 -2.44447,-0.24462 -5.09429,1.18333 -13.46068,-0.76878 -20.57495,-4.80071 -9.47234,-5.36833 -6.54998,-6.914 4.77491,-2.52551 7.16172,2.77523 9.34027,3.452 9.75764,3.03121 0.58029,-0.58505 -2.15468,-2.595 -6.54873,-4.81272 -3.35461,-1.6931 -4.40057,-1.98497 -7.11358,-1.98497 -3.54093,0 -6.93739,-1.10203 -13.45352,-4.36519 -2.2,-1.10172 -4.50625,-2.16042 -5.125,-2.35266 -2.10347,-0.653543 -1.24137,1.19415 2.25,4.82231 7.40937,7.69965 16.13452,13.36454 23.74636,15.41755 5.0615,1.36515 12.41328,1.16558 13.95776,-0.3789 z"
       style="fill:#ffff00;stroke-width:0.5" />
    <path
       transform="scale(0.93749999)"
       id="path36"
       d="m 125.46855,134.74626 c -0.84044,-0.84044 -0.73104,-2.31822 0.34426,-4.65 1.01934,-2.21044 10.34159,-15.4055 11.06408,-15.66052 0.81617,-0.28808 1.09841,2.29915 0.5366,4.9188 -0.9019,4.20542 -3.99293,9.94751 -7.06087,13.11672 -2.81473,2.90764 -3.79488,3.36419 -4.88407,2.275 z"
       style="fill:#ffff00;stroke-width:0.5" />
    <path
       transform="scale(0.93749999)"
       id="path38"
       d="m 143.86855,159.11853 c -0.87758,-0.48605 -2.22593,-0.61061 -4.52569,-0.41809 -3.82235,0.31997 -5.71664,-0.41767 -7.64936,-2.97865 -3.09053,-4.09518 -2.9837,-9.95152 0.2487,-13.63302 2.05801,-2.34394 4.62067,-3.09256 7.07539,-2.06692 2.38115,0.99491 2.36897,1.63899 -0.14904,7.88442 -2.0989,5.20591 -2.39211,6.84788 -1.4,7.83999 0.74682,0.74682 5.22112,0.79395 5.67486,0.0598 0.18363,-0.29712 0.52,-2.86567 0.74749,-5.70788 0.47272,-5.90613 1.82588,-9.7197 3.99748,-11.26602 1.65156,-1.17601 5.2295,-1.31295 7.66933,-0.29352 1.49873,0.62621 1.78605,1.10613 3.00741,5.02347 2.20616,7.07591 5.33873,9.32361 12.89984,9.25595 6.28239,-0.0562 7.65168,-1.24566 10.3589,-8.99833 2.53495,-7.25936 3.31915,-8.01885 9.25959,-8.96784 5.8197,-0.9297 7.63322,1.22699 4.49333,5.3436 -2.1031,2.75731 -9.43229,7.90896 -15.45823,10.86552 -6.19624,3.04011 -9.91027,4.10484 -21.75,6.23525 -4.5375,0.81647 -9.2625,1.71873 -10.5,2.00503 -2.76137,0.63885 -2.49453,0.65104 -4,-0.18274 z"
       style="fill:#ffff00;stroke-width:0.5" />
    <path
       transform="scale(0.93749999)"
       id="path40"
       d="m 165.48898,147.34896 c -1.72519,-1.05186 -3.61543,-3.7015 -3.61856,-5.07231 -0.004,-1.94668 1.769,-3.13431 5.31587,-3.55992 8.41751,-1.01005 8.36944,-1.01045 9.75738,0.0813 2.78971,2.19439 2.04374,7.16609 -1.31432,8.7596 -2.46195,1.16827 -8.07133,1.05284 -10.14037,-0.20867 z"
       style="fill:#ffff00;stroke-width:0.5" />
    <path
       transform="scale(0.93749999)"
       id="path42"
       d=""
       style="fill:#ffff00;stroke-width:0.5" />
    <path
       transform="scale(0.93749999)"
       id="path44"
       d=""
       style="fill:#ffff00;stroke-width:0.5" />
    <path
       transform="scale(0.93749999)"
       id="path25"
       d="m 167.86855,88.9783 c -6.60612,-0.29708 -8.60729,-0.778425 -9.15345,-2.201715 -0.66729,-1.73892 3.18768,-4.382405 9.65345,-6.619725 2.14158,-0.741035 3.71795,-1.879975 7.125,-5.14785 2.40625,-2.307955 4.375,-4.39378 4.375,-4.63516 0,-0.70562 -3.55862,1.30345 -10.80833,6.10199 -4.70505,3.114245 -7.22013,4.479455 -8.25237,4.479455 -2.00819,0 -3.9393,-1.975405 -3.9393,-4.02966 0,-4.232775 7.82359,-14.939515 11.9737,-16.38625 2.08336,-0.726265 1.995,-0.167645 -0.72742,4.59844 -1.23545,2.162895 -2.24628,4.131645 -2.24628,4.375 0,0.24336 0.43289,0.44247 0.96197,0.44247 0.96335,0 1.82642,-0.9199 4.55699,-4.85706 2.9221,-4.213325 6.45183,-4.53416 9.96832,-0.90607 0.93989,0.96972 1.87747,1.76313 2.08352,1.76313 0.20605,0 0.66842,-0.61875 1.02749,-1.375 0.83758,-1.764035 3.56827,-3.123235 6.27671,-3.124225 2.3334,-10e-4 2.74684,-0.64206 1,-1.55091 -0.61875,-0.321925 -1.20317,-0.651765 -1.29871,-0.732975 -0.0956,-0.08121 0.23012,-0.83131 0.72371,-1.66689 0.49359,-0.83558 0.73707,-1.679605 0.54106,-1.87561 -0.19601,-0.19601 -2.43418,0.23081 -4.97372,0.94849 -2.95587,0.83533 -6.60501,1.42511 -10.14124,1.639035 -8.59222,0.51979 -8.59452,0.479085 -0.84595,-15.011915 5.65722,-11.30996 10.49621,-21.956165 13.06765,-28.75 1.89971,-5.0190921 2.05362,-5.2374494 5.33299,-7.5659708 l 2.53078,-1.7969908 1.52388,1.3064806 c 0.83814,0.7185643 2.36957,1.9559924 3.40318,2.7498401 2.188,1.6804639 3.69889,4.7433649 5.33076,10.8066409 1.00576,3.736908 1.4288,4.528909 3.50407,6.560236 4.06031,3.974327 7.63849,12.301663 13.48365,31.379874 2.038,6.651885 1.79927,7.738035 -1.7506,7.964695 -1.82843,0.116745 -3.08816,-0.169885 -5.12378,-1.16582 -4.02969,-1.97154 -5.20842,-4.93029 -3.18273,-7.988985 0.54638,-0.825 0.9949,-1.995665 0.99671,-2.601474 0.005,-1.488561 -0.97076,-3.531582 -1.84611,-3.867482 -0.57381,-0.220194 -3.24529,0.767555 -4.08781,1.511427 -0.10297,0.09091 0.40328,0.86706 1.125,1.724774 1.61637,1.920955 1.61715,2.043625 0.025,3.935795 -1.35199,1.60675 -6.29108,3.498555 -9.39046,3.5968 -0.86478,0.0274 -2.13483,0.21489 -2.82233,0.41662 -1.18896,0.34887 -1.13403,0.42237 1.125,1.505225 3.07454,1.47376 3.10033,2.56109 0.10242,4.317985 -1.24993,0.732505 -2.16578,1.43863 -2.03524,1.56917 0.13053,0.13054 1.81636,-0.121795 3.74628,-0.56075 1.92992,-0.43895 4.75309,-0.79809 6.27372,-0.79809 2.38752,0 2.87506,0.16832 3.57302,1.23355 1.07589,1.64202 0.54404,4.798455 -1.14721,6.808385 -2.93393,3.48678 -8.63746,5.15118 -24.63799,7.18984 -11.5475,1.471295 -15.8658,2.31543 -15.5,3.02992 0.4132,0.807065 9.20795,0.38155 14.92141,-0.72194 2.93073,-0.566035 8.14109,-1.48497 11.57859,-2.042075 7.49004,-1.213895 12.15778,-2.616785 15.64264,-4.70141 3.07973,-1.84228 3.89886,-3.52131 2.89751,-5.939235 -1.09291,-2.63898 -1.21716,-4.587685 -0.33898,-5.316505 2.47293,-2.05235 10.99464,3.6522 12.07192,8.08111 0.46095,1.895045 -2.07518,4.359875 -6.02309,5.853755 -9.14291,3.45967 -37.15793,8.83248 -43.99693,8.43788 -0.82669,-0.0477 -4.54057,-0.22332 -8.25307,-0.39027 z m 32.87344,-39.087168 c 8.49437,-5.690023 11.32304,-9.021435 11.03176,-12.992426 -0.1701,-2.31879 -1.12071,-3.127436 -1.66405,-1.415529 -0.18904,0.595611 -3.58313,4.314776 -7.54243,8.264812 -4.76908,4.757925 -7.19872,7.541738 -7.19872,8.248089 0,1.362731 0.47375,1.177149 5.37344,-2.104946 z"
       style="fill:#ffff00;stroke-width:0.5" />
    <path
       transform="scale(0.93749999)"
       id="path27"
       d="m 113.24984,269.6726 c -1.50145,-0.81468 -2.88129,-3.07378 -2.88129,-4.71731 0,-1.76784 1.33296,-3.75257 3.19303,-4.75428 1.58861,-0.85553 2.07032,-0.8914 4.69373,-0.34954 3.92962,0.81165 6.61781,0.76591 14.71928,-0.25045 8.10974,-1.0174 11.60034,-0.59315 13.99485,1.70093 1.55297,1.48784 2.59474,4.25232 2.32239,6.1628 -0.36798,2.58133 -5.16906,3.16231 -13.92328,1.68487 -2.6125,-0.44091 -6.775,-0.83375 -9.25,-0.87299 -3.75043,-0.0595 -4.88026,0.11606 -6.78286,1.05366 -2.63625,1.29916 -4.16402,1.38509 -6.08585,0.34231 z"
       style="fill:#803300;stroke-width:0.5" />
  </g>
</svg>
