<?xml version="1.0" encoding="UTF-8" standalone="no"?>
<!-- Created with Inkscape (http://www.inkscape.org/) -->

<svg
   xmlns:dc="http://purl.org/dc/elements/1.1/"
   xmlns:cc="http://creativecommons.org/ns#"
   xmlns:rdf="http://www.w3.org/1999/02/22-rdf-syntax-ns#"
   xmlns:svg="http://www.w3.org/2000/svg"
   xmlns="http://www.w3.org/2000/svg"
   xmlns:sodipodi="http://sodipodi.sourceforge.net/DTD/sodipodi-0.dtd"
   xmlns:inkscape="http://www.inkscape.org/namespaces/inkscape"
   version="1.1"
   id="svg2"
   width="2212.697"
   height="2496.8445"
   viewBox="0 0 2212.697 2496.8445"
   sodipodi:docname="perl.svg"
   inkscape:version="0.92.1 r15371">
  <metadata
     id="metadata8">
    <rdf:RDF>
      <cc:Work
         rdf:about="">
        <dc:format>image/svg+xml</dc:format>
        <dc:type
           rdf:resource="http://purl.org/dc/dcmitype/StillImage" />
        <dc:title></dc:title>
      </cc:Work>
    </rdf:RDF>
  </metadata>
  <defs
     id="defs6" />
  <sodipodi:namedview
     pagecolor="#ffffff"
     bordercolor="#666666"
     borderopacity="1"
     objecttolerance="10"
     gridtolerance="10"
     guidetolerance="10"
     inkscape:pageopacity="0"
     inkscape:pageshadow="2"
     inkscape:window-width="640"
     inkscape:window-height="480"
     id="namedview4"
     showgrid="false"
     fit-margin-top="0"
     fit-margin-left="0"
     fit-margin-right="0"
     fit-margin-bottom="0"
     inkscape:zoom="0.094516327"
     inkscape:cx="1471.7546"
     inkscape:cy="1000.1452"
     inkscape:window-x="383"
     inkscape:window-y="141"
     inkscape:window-maximized="0"
     inkscape:current-layer="svg2" />
  <g
     id="g30"
     transform="translate(-0.12338893,0.03329467)">
    <path
       style="fill:#b9b9b9;fill-opacity:1;stroke-width:0.92307693"
       d="m 686.30766,2495.9548 c -31.04972,-3.1875 -59.26962,-12.7612 -82.15385,-27.8709 -10.91108,-7.2043 -14.101,-10.3979 -15.67299,-15.6914 -4.41466,-14.8658 1.52318,-27.8865 18.5882,-40.7611 10.46684,-7.8965 39.66771,-22.4736 51.77007,-25.8434 30.45251,-8.4797 53.68199,-32.1331 62.61895,-63.7619 1.15168,-4.0759 5.38729,-14.4722 9.41245,-23.103 42.57595,-91.2916 63.85083,-197.7888 59.42371,-297.4615 -0.6032,-13.5808 -1.71184,-30.5077 -2.46364,-37.6154 -0.7518,-7.1077 -1.79764,-18.9462 -2.3241,-26.3077 -2.59869,-36.3383 -3.96091,-51.8422 -6.04224,-68.7693 -3.84826,-31.297 -11.27292,-71.8226 -18.32973,-100.048 -1.50782,-6.031 -2.70574,-15.2348 -3.73817,-28.7212 -4.01374,-52.4308 -11.44869,-102.9296 -22.49222,-152.7692 -3.60228,-16.2572 -4.0266,-25.7224 -4.82091,-107.5385 -0.42636,-43.9154 -0.98896,-81.3 -1.25025,-83.0769 -0.26129,-1.7769 -0.92237,-7.5923 -1.46908,-12.9231 -1.53661,-14.9831 -7.09141,-45.1268 -8.87768,-48.1758 -0.20537,-0.3505 -3.58339,1.6688 -7.50673,4.4873 -27.76229,19.945 -63.79055,35.5344 -98.79356,42.7482 -4.92534,1.015 -11.45104,2.864 -14.50156,4.1089 -13.67235,5.5792 -27.93498,5.0171 -41.99205,-1.655 -7.73448,-3.6712 -18.95529,-14.6023 -22.50313,-21.9223 -3.56682,-7.3592 -8.80009,-11.899 -13.71648,-11.899 -4.28568,0 -11.465,4.7014 -21.4727,14.0612 -11.99394,11.2175 -14.44705,13.0502 -19.48259,14.5563 -3.2569,0.9742 -4.26696,0.9074 -7.17772,-0.4738 -1.8631,-0.8841 -4.51901,-3.2963 -5.90203,-5.3605 -8.47641,-12.6511 -43.37832,-44.4269 -73.5915,-66.9999 -7.61538,-5.6897 -18.04108,-13.8777 -23.16823,-18.1956 -19.4326,-16.3656 -36.883,-25.7538 -58.13233,-31.2749 -4.99444,-1.2977 -9.42558,-2.8681 -9.84697,-3.4899 -4.60844,-6.8002 -5.60293,-14.1104 -4.2655,-31.354 1.57949,-20.3647 -0.71938,-28.8803 -9.70352,-35.9445 -2.60127,-2.0453 -5.41339,-5.0255 -6.24914,-6.6226 -3.50971,-6.7068 -8.51824,-8.2462 -18.32661,-5.6326 -14.1183,3.7619 -18.53612,3.4379 -23.34725,-1.7124 -4.05511,-4.3411 -6.65021,-10.9895 -13.21825,-33.8645 -3.44523,-11.9989 -7.50918,-23.9636 -9.62395,-28.334 -4.79894,-9.9175 -11.76153,-17.4375 -20.29856,-21.9235 -16.84529,-8.852 -33.89519,-33.9913 -41.93782,-61.8355 -5.61337,-19.434 -8.14921,-40.96484 -10.17222,-86.36851 -1.42056,-31.88251 -2.60094,-48.75794 -4.1968,-60 -2.37662,-16.74222 -4.555,-59.95348 -4.56038,-90.46154 -0.006,-34.28277 2.51809,-76.88582 6.43862,-108.67286 1.72738,-14.00534 1.75927,-14.11489 8.5963,-29.53846 18.2032,-41.06439 35.24872,-84.14548 49.52365,-125.16678 5.4719,-15.72437 5.65087,-16.51437 4.03064,-17.79117 -8.60914,-6.78434 -20.71621,-13.09506 -32.52815,-16.95502 -12.50327,-4.08588 -26.98845,-7.01373 -55.01351,-11.11973 C 74.31711,474.82532 58.336161,470.74261 41.775465,461.98673 24.076064,452.62879 8.7955313,436.6602 2.609981,421.05768 0.79217102,416.47242 0.53894534,414.12683 0.502716,401.53847 0.45411411,384.6511 1.8684785,378.43806 9.3224331,362.79513 18.951827,342.5868 32.753632,325.12018 61.766097,296.42599 81.15377,277.251 87.493895,271.98759 96.923072,267.23952 c 13.829568,-6.96387 26.857988,-9.62861 60.923078,-12.46074 25.51318,-2.12113 36.82859,-3.80894 47.53845,-7.09086 14.18471,-4.34673 21.16243,-5.78121 39.59178,-8.13929 21.81499,-2.79128 30.90153,-4.8791 39.98322,-9.18701 10.96375,-5.20065 18.42123,-14.53313 21.43407,-26.82316 2.65628,-10.83554 10.9645,-21.86108 22.37712,-29.69586 3.72221,-2.55531 13.60061,-8.11957 21.952,-12.36504 17.93175,-9.11568 27.08273,-14.91758 34.1285,-21.6381 12.01952,-11.46468 28.39993,-12.58758 48.99484,-3.35869 4.31539,1.93379 14.89365,7.53654 23.50725,12.45055 16.30642,9.30271 26.60753,13.83436 35.44406,15.59246 5.6183,1.11782 10.91014,4.07764 28.12287,15.72968 28.29557,19.15449 54.01964,42.55301 76.84771,69.90039 15.87036,19.01225 16.61449,20.70981 20.23166,46.15385 3.06615,21.56798 4.70005,28.76735 8.27497,36.46153 3.67515,7.9099 7.42695,12.66428 13.70324,17.3651 13.9062,10.41549 28.73752,39.60145 34.30331,67.50411 4.50153,22.56729 4.65814,25.74276 4.39018,89.01707 -0.14246,33.6376 0.15316,65.12475 0.68122,72.56002 2.05371,28.91678 -3.19772,58.68997 -14.66971,83.17057 -2.38522,5.08992 -4.16926,10.70953 -5.08555,16.01914 -1.96313,11.37574 -5.73443,21.21405 -16.41156,42.81334 -14.74183,29.82198 -17.52988,40.57615 -15.42425,59.49526 1.00339,9.01537 0.92907,13.24664 -0.55606,31.6597 -1.35127,16.75359 -1.50661,22.6947 -0.73364,28.06008 1.65925,11.51743 6.16378,16.32218 15.47743,16.509 8.6164,0.17284 11.36241,-0.87938 13.56563,-5.19805 4.58336,-8.98412 5.79703,-13.92995 13.86798,-56.51379 1.05845,-5.58462 3.3228,-14.3077 5.03187,-19.38462 1.70907,-5.07692 6.06071,-18.16154 9.67031,-29.07692 28.17179,-85.19114 58.53877,-147.34355 96.21831,-196.93102 28.65971,-37.71708 59.24743,-65.10552 97.54275,-87.34039 31.0891,-18.05084 81.97292,-69.34281 112.90245,-113.80816 28.63444,-41.16579 49.05804,-80.77852 65.61784,-127.26972 5.1908,-14.573 18.6043,-29.82304 62.4052,-70.9492 26.7153,-25.08395 40.413,-40.8469 50.2176,-57.788925 l 4.324,-7.472017 9.4203,-2.070911 c 37.7867,-8.306871 87.162,-22.601988 99.8818,-28.91774 3.0462,-1.512502 15.2271,-8.134518 27.0687,-14.715589 40.3585,-22.429536 54.9197,-27.499328 80.4698,-28.017191 30.8766,-0.625824 69.3875,-4.7368301 95.4471,-10.1889145 l 6.3703,-1.33275717 15.7213,4.71436937 c 24.2901,7.2838883 54.5102,18.4765623 77.8959,28.8505073 26.9051,11.935073 67.7964,47.659886 93.1623,81.391498 27.5755,36.66993 45.6841,75.33566 56.691,121.04708 9.2849,38.56043 28.9535,81.24598 59.7022,129.5683 11.6185,18.25877 25.9503,38.85493 53.3129,76.61539 39.5547,54.58551 50.5223,70.50136 66.154,96 20.4072,33.2885 34.2693,61.83935 45.7142,94.15385 8.1161,22.9162 36.92,74.88478 65.113,117.47875 29.8763,45.13692 61.5963,85.36725 98.0589,124.3674 18.3138,19.58843 25.5753,30.89994 34.9618,54.46154 8.3663,21.00074 12.8257,39.70265 21.4574,89.98991 5.1582,30.0501 8.2343,45.3036 11.6306,57.6715 1.5278,5.5637 2.7589,7.8641 6.3868,11.9346 4.8379,5.428 10.703,16.002 13.2851,23.951 0.9252,2.8484 1.6018,7.7849 1.6018,11.6866 0,5.5567 -0.4328,7.5502 -2.4394,11.2371 -2.6192,4.8122 -9.1027,9.9128 -13.9196,10.9505 -6.6597,1.4346 -6.295,0.902 -5.6314,8.2256 0.3329,3.6729 1.8634,12.6626 3.4014,19.9771 5.2338,24.8932 6.3839,32.4375 6.3839,41.877 0,12.7499 -2.1552,20.4833 -9.1427,32.8068 -1.0076,1.7769 -5.0089,13.2 -8.8919,25.3846 -16.2991,51.1447 -36.8279,101.1055 -63.1519,153.6923 -6.4806,12.9462 -13.1344,26.3838 -14.786,29.8613 -8.0198,16.8853 -27.5424,29.1984 -38.2436,24.1203 -6.9036,-3.276 -9.8143,-9.5472 -11.6205,-25.0372 -0.5835,-5.004 -2.5047,-18.6521 -4.2694,-30.329 -4.449,-29.4393 -5.8726,-43.9126 -5.8841,-59.8231 -0.019,-26.4022 4.5598,-43.9874 16.1575,-62.0528 4.33,-6.7447 4.9863,-8.5043 7.2668,-19.4824 11.1008,-53.4368 8.821,-110.422 -6.531,-163.2571 -2.912,-10.0217 -3.1789,-11.8952 -2.8022,-19.6679 0.9484,-19.5654 -2.1249,-42.4502 -8.1905,-60.9893 -4.9947,-15.2664 -17.8956,-40.7274 -20.6362,-40.7274 -2.1516,0 -7.6383,6.1763 -10.1363,11.4103 -3.0112,6.3095 -4.8345,15.618 -6.9202,35.329 -0.7593,7.1759 -2.2124,16.3143 -3.2291,20.3077 -2.2671,8.9042 -6.631,38.9802 -9.6925,66.7991 -9.4045,85.4561 -9.3979,171.9445 0.019,258.0001 4.0511,37.0196 9.1245,69.1775 17.4698,110.7345 7.7351,38.5183 8.0203,45.8151 3.9876,102.0347 -2.1767,30.346 -1.953,58.6223 0.5719,72.2742 1.3668,7.3901 1.9188,8.6353 6.139,13.8462 6.2177,7.6771 13.2414,22.1291 16.2414,33.418 2.2829,8.5908 2.4562,10.6068 2.4992,29.077 0.053,22.4483 -0.3834,25.957 -8.2513,66.4615 -2.712,13.9615 -5.6158,30.5769 -6.4529,36.9231 -0.837,6.3461 -2.5104,17.9769 -3.7186,25.8461 -6.8619,44.6939 -8.7582,69.0961 -8.7513,112.6154 0.011,68.7789 9.173,131.5978 28.5771,195.939 3.5287,11.7007 4.9755,18.5168 6.5172,30.7041 2.9231,23.1078 7.5855,47.4279 13.4623,70.2234 2.8657,11.1157 5.3963,21.2489 5.6235,22.5181 0.8675,4.8471 -13.7231,24.7638 -24.7714,33.8139 -18.6169,15.25 -39.1206,22.7007 -62.613,22.7526 -13.7572,0.03 -24.1631,-1.8898 -33.0465,-6.0982 -6.1123,-2.8957 -6.3451,-2.9292 -20.0304,-2.8803 -7.6154,0.027 -19.6615,0.2298 -26.7692,0.4503 -10.4409,0.3238 -13.9136,0.096 -18.0805,-1.1855 -6.7097,-2.0636 -12.9067,-7.5342 -16.2523,-14.3472 -2.2943,-4.6718 -2.578,-6.2244 -2.4828,-13.5825 0.1998,-15.4544 3.7416,-26.2321 19.258,-58.6015 13.7729,-28.7322 17.096,-39.3021 17.096,-54.3764 0,-4.0499 0.3675,-8.3299 0.8166,-9.5111 1.2588,-3.3109 9.8141,-40.1709 12.9199,-55.6648 11.8331,-59.031 17.3365,-111.4289 18.2754,-174 0.8959,-59.7082 -2.1012,-103.2155 -11.255,-163.3846 -4.918,-32.3262 -6.1437,-44.1493 -10.1441,-97.8462 -3.6558,-49.0721 -6.5439,-73.7972 -11.4835,-98.3077 -4.4134,-21.9002 -6.2494,-27.5926 -10.9592,-33.9797 -2.3169,-3.1419 -8.8561,-12.7741 -14.5314,-21.4049 -33.3765,-50.7576 -58.163,-106.1455 -73.7358,-164.7692 -1.6857,-6.3462 -5.7749,-18.6 -9.087,-27.2308 -3.312,-8.6308 -8.3738,-22.3385 -11.2486,-30.4615 -2.8746,-8.1231 -6.1872,-17.4693 -7.3612,-20.7693 -7.9734,-22.4126 -23.3016,-74.1081 -31.0599,-104.7521 -2.6374,-10.4171 -5.0579,-18.9402 -5.379,-18.9402 -0.321,0 -2.8322,3.6346 -5.5803,8.0769 -50.024,80.8625 -80.3998,170.0579 -89.9845,264.2308 -3.4422,33.82 -3.9857,76.0249 -1.3686,106.2683 0.4998,5.7755 1.2862,18.6009 1.7476,28.5009 0.6097,13.0823 1.9168,25.0615 4.7845,43.8462 3.7098,24.3016 3.9446,27.0045 3.9273,45.2308 -0.017,17.1258 -0.2562,20.2451 -2.0597,26.7692 -2.8063,10.1518 -8.4629,21.1791 -14.484,28.2355 -2.7774,3.2551 -10.7086,14.4337 -17.6248,24.8414 -6.9163,10.4077 -24.0926,35.9539 -38.1696,56.7692 -55.5659,82.164 -77.4119,122.2053 -94.9323,174 -6.8024,20.11 -7.6279,26.581 -4.5333,35.5385 3.557,10.2959 10.9489,17.2092 33.0646,30.9236 10.2525,6.3579 16.2139,10.799 21.683,16.1533 6.7307,6.5895 8.0911,8.5325 12.6346,18.0453 14.014,29.3409 23.363,59.0765 28.2823,89.9547 2.9843,18.7323 3.7691,29.5026 3.7691,51.728 0,20.5659 0,20.6105 -2.0769,21.2544 -1.1423,0.3548 -8.7004,3.7189 -16.7957,7.4757 -31.8943,14.8013 -46.6198,18.3181 -61.0103,14.5709 -12.8683,-3.3509 -18.162,-8.7898 -33.5748,-34.4946 -12.4786,-20.8112 -31.0449,-49.1611 -44.3731,-67.7559 l -7.8228,-10.9138 -1.7101,3.9908 c -2.7408,6.3961 -4.9885,16.6588 -7.5457,34.4522 -3.9839,27.7215 -7.4448,38.155 -15.7026,47.3398 -7.7228,8.5896 -15.6491,12.3304 -42.5031,20.0592 -31.8323,9.1617 -58.5801,12.8243 -93.6541,12.8243 -26.3443,0 -41.2296,-1.3024 -62.7048,-5.4864 -10.2238,-1.992 -11.8121,-2.5633 -14.5778,-5.2439 -1.7071,-1.6546 -4.2284,-5.2981 -5.6029,-8.0968 -2.094,-4.2636 -2.4954,-6.2855 -2.4766,-12.4731 0.019,-6.338 0.4364,-8.265 2.9427,-13.5965 4.0415,-8.5974 7.908,-13.9727 15.3042,-21.2763 10.5296,-10.398 21.6459,-17.5545 36.1922,-23.2999 38.1298,-15.0603 67.4537,-45.7083 80.1692,-83.7891 1.535,-4.5971 3.706,-8.7609 6.0163,-11.5385 11.8893,-14.2941 13.892,-34.7298 5.103,-52.0739 -1.2325,-2.4322 -4.869,-7.2269 -8.0811,-10.6548 -3.212,-3.4279 -8.8566,-9.7633 -12.5433,-14.0787 -25.2593,-29.5661 -51.2095,-53.7605 -115.8465,-108.0082 -42.1143,-35.3453 -62.2959,-53.391 -82.6638,-73.9155 -14.7025,-14.8156 -17.8774,-18.5414 -22.8343,-26.7962 -11.028,-18.365 -18.1761,-40.5877 -21.0676,-65.4978 -2.9901,-25.7595 -0.9002,-62.0532 5.6042,-97.3208 4.689,-25.4241 6.4526,-31.5479 12.3614,-42.923 10.2724,-19.7758 16.4372,-39.8448 19.1397,-62.3077 1.6676,-13.8611 1.2308,-34.6387 -1.0092,-48 -1.7933,-10.6967 -1.8028,-26.6271 -0.022,-37.0329 0.7715,-4.5089 4.0765,-18.1671 7.3445,-30.3517 6.4731,-24.1355 8.7912,-35.2023 8.7912,-41.9705 v -4.3819 l -5.6739,-0.593 c -10.0521,-1.0507 -39.668,-0.6145 -52.0253,0.7662 -14.9986,1.6759 -29.2807,4.3551 -42.5971,7.9908 l -10.29634,2.8113 -0.52228,11.227 c -0.28726,6.1748 -0.75471,20.5731 -1.03883,31.9962 -0.90812,36.5085 -3.88403,74.5935 -9.32899,119.3894 l -2.33815,19.2355 -6.30415,7.9953 c -20.28093,25.7213 -33.09222,59.0176 -34.85022,90.5752 -0.45101,8.0974 -0.88735,10.1918 -2.60317,12.4969 -5.05744,6.7946 -9.6708,18.9032 -11.60584,30.4616 -0.65677,3.9229 -1.20905,21.1489 -1.40585,43.8461 -0.17824,20.5616 -0.41529,39.6692 -0.5268,42.4616 -0.11141,2.7923 0.35003,13.5972 1.02554,24.0108 3.34339,51.5426 -6.23512,105.0797 -27.81167,155.4476 -6.2419,14.5709 -12.43539,37.4131 -17.74244,65.4357 -6.15088,32.4783 -9.59281,62.7889 -14.80041,130.3366 -6.09613,79.0729 -8.88114,103.7516 -15.78177,139.8462 -4.41425,23.0893 -6.4187,30.8452 -9.66175,37.3846 -5.73425,11.5627 -6.17111,17.9938 -3.98287,58.633 1.18319,21.974 -4.24751,35.9756 -17.16983,44.2677 -11.47075,7.3608 -45.2205,16.8443 -73.99256,20.7915 -12.65831,1.7365 -46.98074,2.5224 -58.50376,1.3395 z m 715.07784,-536.2901 c 4.1729,-1.159 8.3022,-5.7185 10.5461,-11.6446 0.9332,-2.4649 4.6464,-9.0509 8.2515,-14.6355 39.1245,-60.6071 60.4322,-132.2541 60.4322,-203.2033 0,-41.4964 -10.3332,-159.0407 -22.1825,-252.3351 -8.0999,-63.7732 -21.4154,-150.0588 -23.4851,-152.184 -1.0351,-1.063 -1.9991,-0.8455 -6.138,1.3846 -10.1632,5.476 -15.1813,16.2163 -17.8515,38.2081 -2.7335,22.513 -3.4024,26.1843 -6.5555,35.985 -4.0204,12.4965 -5.3654,19.3643 -8.3094,42.4287 -1.3267,10.3947 -3.4095,22.8562 -4.6282,27.6923 -4.131,16.3919 -12.0011,28.5693 -22.1752,34.3112 -4.4633,2.5189 -5.0882,3.3037 -7.7813,9.773 -4.1349,9.9326 -6.993,21.9617 -8.7489,36.8225 -5.5069,46.6092 -6.4078,51.2347 -12.4328,63.8383 l -3.6543,7.6443 1.4335,9.4326 c 1.7801,11.7137 1.312,31.1728 -0.9189,38.1873 -3.9278,12.3502 -10.6976,17.5959 -24.3448,18.8641 -17.6277,1.638 -23.6645,5.8384 -41.8697,29.1335 -6.0103,7.6907 -13.1777,15.9984 -15.9276,18.4615 -9.4268,8.444 -25.4272,36.658 -29.1904,51.4724 -3.4055,13.4063 -2.0523,27.7566 3.7672,39.9504 1.5425,3.2319 6.5295,10.846 11.0822,16.9201 4.5527,6.0742 13.5114,19.0434 19.9081,28.8205 20.9828,32.0715 33.2186,46.5628 47.3702,56.1023 10.8389,7.3065 24.7719,11.9306 36.0544,11.966 7.5068,0.024 14.4815,2.1469 28.5144,8.6807 19.6093,9.1301 22.0621,9.8042 28.8343,7.9231 z"
       id="path44"
       inkscape:connector-curvature="0" />
    <path
       style="fill:#a3a3a3;fill-opacity:1;stroke-width:0.92307693"
       d="m 687.81807,2495.9009 c -34.47177,-3.0642 -65.62791,-14.2618 -89.4356,-32.1436 -7.06636,-5.3075 -8.27847,-6.6413 -9.70556,-10.6804 -2.3788,-6.7325 -1.72639,-16.2978 1.57134,-23.0381 3.1698,-6.4788 11.99155,-15.3932 21.45931,-21.6846 10.49492,-6.974 37.14721,-19.716 47.13756,-22.5357 31.21965,-8.8116 55.70013,-34.1026 62.99328,-65.0789 0.64134,-2.724 3.81126,-10.4931 7.04425,-17.2645 49.36344,-103.3913 70.75837,-227.0906 58.90155,-340.552 -0.74276,-7.1077 -1.96536,-22.0615 -2.71688,-33.2308 -4.09731,-60.8943 -11.2771,-109.9312 -23.04367,-157.3846 -1.7142,-6.9132 -3.35451,-16.366 -3.68411,-21.2308 -3.73896,-55.1853 -10.9574,-106.2969 -22.68354,-160.6153 -1.47959,-6.8539 -3.16264,-16.8231 -3.74009,-22.1539 -0.63088,-5.8239 -1.33523,-41.192 -1.76476,-88.6154 -0.71814,-79.286 -1.02022,-86.5277 -4.62175,-110.7919 -1.55286,-10.4619 -5.37791,-28.7456 -6.89562,-32.9611 -0.25936,-0.7203 -3.72352,1.1885 -9.44477,5.2043 -26.46071,18.5733 -60.96559,33.7209 -91.65058,40.2347 -6.34615,1.3471 -14.73083,3.6627 -18.63261,5.1457 -17.35022,6.5948 -33.55286,5.0735 -48.43935,-4.5481 -6.5735,-4.2487 -13.94227,-12.3202 -17.29226,-18.9413 -3.25879,-6.4409 -7.68724,-10.6516 -11.92572,-11.3394 -5.3751,-0.8723 -11.67045,2.9099 -24.16966,14.5207 -6.09125,5.6583 -12.72804,11.1311 -14.74843,12.1618 -7.06731,3.6055 -13.25793,1.9174 -17.25077,-4.704 -6.67126,-11.063 -45.81883,-46.3906 -76.9258,-69.4194 -7.1077,-5.2619 -16.18674,-12.4239 -20.17565,-15.9156 -17.12552,-14.9907 -39.07033,-26.4659 -60.324,-31.5442 -6.42436,-1.5349 -6.72111,-1.7294 -8.61702,-5.6458 -2.95062,-6.0952 -3.58798,-13.1633 -2.51675,-27.9096 1.53103,-21.0756 -0.90602,-29.7393 -10.38636,-36.9235 -2.27373,-1.723 -4.85169,-4.5038 -5.72879,-6.1794 -3.73195,-7.1296 -8.29758,-8.2671 -20.07837,-5.0026 -19.80441,5.4882 -24.33847,1.0731 -33.71096,-32.8259 -7.88995,-28.5368 -11.5782,-36.704 -20.65927,-45.7474 -3.62232,-3.6072 -8.18278,-7.0592 -11.19957,-8.4771 -5.84786,-2.7486 -16.45167,-13.0141 -22.82163,-22.0934 -5.84632,-8.333 -12.85707,-22.6573 -16.4352,-33.5804 -6.80672,-20.779 -9.8133,-44.20118 -11.96087,-93.17862 -1.38274,-31.53465 -2.59956,-48.80113 -4.16335,-59.07693 -2.49381,-16.38706 -4.03366,-50.42471 -4.05068,-89.53846 -0.0172,-39.44584 0.58135,-53.64976 3.67566,-87.23077 3.08543,-33.4847 3.11799,-33.62811 12.49781,-55.06642 10.94457,-25.0147 21.95738,-51.79499 31.14108,-75.72708 7.5916,-19.7832 22.28316,-60.67734 22.28316,-62.02548 0,-1.21185 -10.13872,-7.9919 -17.4013,-11.63673 -17.96534,-9.01619 -31.68675,-12.3645 -77.67562,-18.95451 C 55.062054,472.12407 31.057616,461.6154 12.2517,437.24951 2.3463954,424.4157 -0.6259505,414.29615 0.27650302,396.47919 0.92509638,383.67414 3.1766907,375.66106 10.137722,361.38462 19.788899,341.59094 32.236899,325.9095 60.845114,297.5057 c 20.444981,-20.29889 26.723021,-25.56638 36.077515,-30.2702 13.820251,-6.94941 26.401881,-9.48188 61.846591,-12.44871 29.1845,-2.44284 36.43941,-3.62844 51.23077,-8.37219 11.30013,-3.62407 14.01701,-4.15503 35.16063,-6.87138 28.77732,-3.69708 38.46638,-6.56489 48.21527,-14.27094 5.98187,-4.72839 9.63913,-10.73017 13.10991,-21.51409 4.38605,-13.62773 10.69577,-21.98364 23.05264,-30.52843 2.28462,-1.57982 11.89357,-6.87901 21.35323,-11.77599 19.94911,-10.32706 25.07589,-13.57739 33.90958,-21.49839 4.45487,-3.9946 7.9427,-6.2678 11.2613,-7.33959 16.05479,-5.18512 29.07234,-1.96579 57.20856,14.14809 18.65365,10.68313 28.01507,15.02123 37.53264,17.3927 8.92464,2.22374 8.78506,2.15511 22.42699,11.02565 35.86387,23.32013 68.84634,53.73543 93.44446,86.17125 5.44532,7.18035 6.23149,8.77873 7.94534,16.15384 1.04612,4.50175 2.77734,14.62345 3.84714,22.49268 3.57188,26.27393 7.41183,36.80878 16.86104,46.25799 2.98888,2.98888 5.80641,5.43432 6.26117,5.43432 1.28906,0 6.43127,5.99108 11.3585,13.23355 12.52454,18.40966 20.215,40.57443 24.26411,69.93196 1.36182,9.87375 1.61005,21.4881 1.80322,84.37295 0.1232,40.1077 0.23738,76.45385 0.25372,80.76924 0.0722,19.03947 -6.89808,47.50031 -16.06202,65.58447 -1.40166,2.76603 -2.86737,7.73615 -3.36927,11.42492 -1.41619,10.40847 -5.69334,21.69971 -16.45977,43.45215 -15.27814,30.86788 -17.70752,40.23919 -15.6738,60.46153 1.00539,9.99712 0.94361,14.00461 -0.46253,30 -1.87053,21.27813 -1.54649,31.46048 1.19867,37.66638 3.17685,7.18178 10.30309,10.04332 19.9988,8.0305 4.82753,-1.00219 5.27014,-1.32767 7.31867,-5.38179 3.2208,-6.37408 6.52605,-17.64863 8.84209,-30.16124 5.1795,-27.98274 7.68152,-39.3414 10.26819,-46.61538 1.53458,-4.31539 5.60914,-16.36154 9.05458,-26.76924 16.49626,-49.83048 29.66521,-82.4848 48.02178,-119.07692 39.13323,-78.00848 86.35375,-131.79639 145.7449,-166.01495 12.06018,-6.94856 19.37066,-12.58059 38.00253,-29.27742 61.46852,-55.08457 110.71474,-128.41558 138.93394,-206.88208 3.9087,-10.86853 5.182,-13.24489 11.8707,-22.15384 8.4389,-11.2401 26.6031,-29.87927 53.1953,-54.5861 25.7693,-23.9422 39.0078,-39.21519 49.017,-56.549688 l 4.5763,-7.92561 7.588,-1.604535 c 10.8282,-2.289699 42.7848,-10.293006 54.2034,-13.574825 38.6563,-11.110295 43.9936,-13.255441 71.5384,-28.752335 29.7526,-16.739037 43.3547,-22.881891 60,-27.096736 7.7259,-1.956297 11.9396,-2.398019 25.8462,-2.709371 28.4616,-0.637227 58.2738,-3.6931407 85.3407,-8.74787 l 14.2638,-2.66376465 12.0439,3.60518925 c 43.4356,13.0019254 84.4744,29.5952674 100.6136,40.6814174 65.9477,45.299981 113.6542,115.533398 131.0065,192.867898 4.4993,20.0519 13.7549,44.40022 27.2587,71.70882 18.3888,37.18727 37.0877,66.54823 80.7242,126.75272 52.7209,72.73842 68.9404,97.05412 87.3155,130.90051 11.7362,21.61801 21.3659,43.25929 28.6248,64.33026 6.9478,20.16785 33.5943,69.21156 59.3728,109.27699 30.3853,47.22553 61.8345,87.71446 102.4584,131.90879 8.6345,9.39332 17.91,20.52627 20.9164,25.10471 15.4066,23.46299 25.7367,54.17164 33.6967,100.17105 9.3381,53.96288 14.6489,79.96808 17.3227,84.82368 0.6573,1.1936 3.1696,4.612 5.5829,7.5964 8.8222,10.9098 13.6263,22.9194 13.5919,33.9782 -0.036,11.598 -5.6867,19.0825 -16.7508,22.1869 l -5.6227,1.5777 0.6393,7.0724 c 0.3516,3.8898 2.5549,16.0032 4.8961,26.9186 3.9528,18.4282 4.2611,20.8354 4.3153,33.6923 0.065,15.3287 -1.2351,20.9625 -7.0131,30.3991 -1.5334,2.5042 -5.2496,12.4008 -8.2583,21.9925 -16.2997,51.9625 -37.212,103.4668 -63.6189,156.6853 -7.4315,14.9769 -14.8916,30.1385 -16.5781,33.6923 -3.9806,8.3883 -14.1035,18.7791 -21.8136,22.3908 -7.4174,3.4747 -14.4623,3.4788 -19.0086,0.011 -5.0604,-3.8597 -7.0979,-9.407 -9.0492,-24.6378 -0.9483,-7.401 -3.1748,-23.2179 -4.9479,-35.1487 -4.5088,-30.3389 -5.5177,-42.8322 -4.8718,-60.33 0.8984,-24.3437 6.0477,-41.5624 17.2922,-57.8238 2.9907,-4.3251 3.855,-6.7857 5.8363,-16.6154 5.5774,-27.6705 7.4661,-49.2208 6.7554,-77.077 -0.792,-31.0389 -4.7908,-57.9068 -12.4332,-83.5384 -3.1665,-10.6197 -3.425,-12.347 -3.247,-21.6923 0.6527,-34.2734 -6.3804,-64.6975 -21.0183,-90.9231 -7.7483,-13.88207 -7.3303,-13.56342 -12.1925,-9.2944 -7.1502,6.2781 -9.8854,14.9084 -12.6,39.7559 -1.0261,9.3923 -2.6767,20.1923 -3.6682,24 -2.1325,8.1897 -7.5765,45.8558 -10.2063,70.6154 -5.1984,48.944 -6.8767,86.7515 -6.2282,140.3077 0.9644,79.6667 7.4779,141.3456 23.3306,220.928 8.4338,42.3388 8.8676,53.1426 4.4685,111.3031 -1.8323,24.2249 -1.4265,54.7117 0.8948,67.232 1.3592,7.3317 1.9269,8.6111 6.141,13.8408 5.6103,6.9623 13.0795,21.7938 15.5485,30.8745 3.0048,11.0512 4.1178,23.2836 3.5042,38.5146 -0.6382,15.843 -2.4203,28.0689 -8.8836,60.946 -2.5009,12.7216 -5.2181,28.3226 -6.0381,34.6687 -0.82,6.3462 -2.5136,18.1846 -3.7634,26.3077 -11.5597,75.129 -12.2274,139.2731 -2.1812,209.5329 4.8252,33.7461 13.0535,70.8665 22.414,101.1166 2.5724,8.3133 4.5293,16.8334 5.1863,22.5813 3.4979,30.5966 9.4261,60.1482 19.0886,95.1533 l 1.5499,5.6149 -4.4903,7.5487 c -10.6318,17.8731 -27.6604,32.5235 -46.9393,40.3834 -22.4427,9.1498 -50.1816,9.5656 -69.3412,1.0394 -5.6182,-2.5002 -7.7548,-2.925 -16.3707,-3.2554 -5.45,-0.2089 -15.8346,0.07 -23.0769,0.6212 -25.014,1.9018 -34.9475,-1.7881 -41.9075,-15.5671 -2.2671,-4.4881 -2.5548,-6.0404 -2.4808,-13.3846 0.1382,-13.716 4.5253,-28.356 14.4178,-48.1137 16.5155,-32.9849 21.8796,-48.5768 21.8796,-63.5968 0,-5.0636 1.1648,-11.5273 4.5219,-25.0934 18.7833,-75.9033 27.7935,-150.3926 27.7794,-229.6576 -0.01,-54.2682 -3.5625,-99.5293 -11.9918,-152.7693 -3.6276,-22.9126 -5.9005,-44.8816 -9.2635,-89.5384 -4.8732,-64.7127 -8.2745,-90.7169 -15.7317,-120.2723 -2.4711,-9.7941 -3.2536,-11.5726 -7.7894,-17.7058 -16.1192,-21.7966 -33.7581,-51.3819 -48.4429,-81.2527 -16.3739,-33.3063 -29.147,-66.8606 -37.9501,-99.6923 -2.0419,-7.6154 -6.7648,-21.9461 -10.4953,-31.8461 -21.4547,-56.9352 -39.2868,-113.7499 -52.4172,-167.0058 l -2.1446,-8.698 -4.8068,7.4936 c -14.0831,21.954 -33.8711,59.7605 -44.8008,85.5948 -26.709,63.131 -41.7543,124.8113 -47.8469,196.1538 -1.6076,18.8255 -1.5447,71.4415 0.1093,91.3846 0.7369,8.8846 1.3142,17.4 1.2829,18.9231 -0.1841,8.9591 2.0491,30.9974 5.4251,53.5385 3.5377,23.6207 3.8735,27.4357 3.8995,44.3077 0.025,16.3861 -0.2088,19.3436 -2.0824,26.3077 -2.9466,10.9523 -8.3439,21.3636 -15.4775,29.8552 -3.3451,3.982 -9.6348,12.7051 -13.9772,19.3846 -4.3423,6.6797 -20.67,31.0448 -36.2836,54.1448 -15.6137,23.1 -32.8564,49.0615 -38.3172,57.6923 -32.2141,50.9145 -51.4033,90.6186 -64.6874,133.8433 -3.609,11.743 -3.8196,15.5896 -1.2962,23.6749 3.5436,11.354 10.889,18.4312 33.6759,32.4466 19.3924,11.9274 27.0492,19.5241 33.6845,33.4198 22.5014,47.1226 33.0149,94.2859 32.183,144.3734 l -0.2974,17.9118 -14.7692,6.8614 c -30.7232,14.2731 -39.887,17.1944 -54,17.2141 -7.9629,0.011 -10.6505,-0.3651 -15.0619,-2.1092 -8.0625,-3.1874 -15.569,-10.7307 -22.7316,-22.843 -15.042,-25.4369 -32.6953,-52.6965 -48.869,-75.4621 l -9.7656,-13.7459 -1.674,3.8385 c -2.7558,6.32 -5.0284,16.5477 -7.5454,33.9586 -1.3099,9.0609 -3.1976,19.8907 -4.1949,24.0664 -3.761,15.7467 -11.4983,26.8675 -22.827,32.8095 -12.5813,6.5989 -42.5854,15.2571 -67.6383,19.5182 -21.59,3.6721 -33.2131,4.5977 -57.6923,4.5942 -24.6176,0 -39.209,-1.2913 -61.745,-5.449 -10.8017,-1.9928 -12.1885,-2.476 -15.0394,-5.2392 -10.8515,-10.5177 -10.9208,-27.0853 -0.1805,-43.169 9.5794,-14.3453 28.2643,-28.7062 46.0418,-35.3871 37.5497,-14.1112 68.146,-45.9851 80.8267,-84.2018 1.604,-4.8338 3.5651,-8.6175 5.6795,-10.9579 7.1441,-7.9077 12.0904,-23.5061 10.8108,-34.0916 -1.4174,-11.724 -5.3684,-20.1641 -13.5881,-29.027 -3.1791,-3.4279 -9.5013,-10.5941 -14.0494,-15.9248 -10.9764,-12.8654 -41.9263,-43.8054 -58.6026,-58.5841 -13.1111,-11.6192 -27.0751,-23.5158 -67.8004,-57.762 -43.9846,-36.9872 -82.0823,-73.0984 -90.4103,-85.6963 -28.3144,-42.8315 -33.0045,-104.6517 -14.2778,-188.1945 2.0709,-9.2386 3.6197,-13.7839 6.3211,-18.5514 11.0432,-19.4879 18.6495,-44.0773 21.3146,-68.9041 1.2935,-12.0497 0.6117,-34.1526 -1.4236,-46.1538 -2.7838,-16.4148 -1.5034,-32.828 4.2485,-54.4615 9.045,-34.0192 11.1187,-43.0319 11.6085,-50.451 l 0.5276,-7.9894 -6.1786,-0.6617 c -11.4146,-1.2224 -49.724,0.1244 -63.3142,2.2258 -12.2845,1.8996 -38.29603,7.9044 -40.71431,9.3989 -0.97421,0.6021 -1.37778,6.9844 -1.87532,29.6608 -1.04234,47.5072 -4.54726,93.8256 -10.63541,140.5504 l -1.55899,11.9648 -4.53064,5.5737 c -20.8992,25.711 -34.75606,60.6855 -36.40329,91.8815 -0.48397,9.1653 -0.6985,9.9934 -3.9445,15.2308 -4.58981,7.4053 -7.85584,15.8742 -9.78969,25.3846 -1.31815,6.4827 -1.65286,14.423 -1.926,45.6923 -0.18184,20.8154 -0.42138,40.5462 -0.53224,43.8462 -0.11096,3.3 0.32963,14.1098 0.97901,24.0219 3.33259,50.8686 -6.41083,105.6665 -27.48759,154.5934 -7.35808,17.0808 -13.91788,42.0127 -19.40797,73.7639 -5.80288,33.5601 -8.38659,57.3345 -13.85265,127.4669 -4.29068,55.0518 -6.51347,78.0797 -9.80114,101.5385 -4.34922,31.0334 -11.21006,64.2672 -14.32052,69.3682 -5.9283,9.7222 -7.17424,21.1634 -5.45142,50.059 1.33665,22.4189 0.69179,30.1381 -3.23539,38.729 -5.39315,11.7977 -12.87297,17.3857 -31.56997,23.5851 -37.35715,12.3865 -77.32737,17.4612 -112.7392,14.3134 z m 714.59613,-536.5511 c 4.1933,-1.7868 6.5415,-4.6534 10.3111,-12.5873 1.8074,-3.804 6.6102,-12.1086 10.6729,-18.4548 14.2354,-22.2363 31.197,-58.7232 39.5834,-85.1499 6.9129,-21.7834 12.1657,-45.9802 15.4809,-71.3116 2.7102,-20.7085 2.3333,-64.9086 -0.9012,-105.6923 -7.8214,-98.6193 -15.8273,-170.6747 -28.8707,-259.8462 -6.0173,-41.1369 -12.5214,-79.3757 -13.7103,-80.6055 -2.5724,-2.6607 -12.4506,4.0352 -16.6269,11.2706 -4.3972,7.6179 -6.0759,15.2238 -9.293,42.1041 -0.9337,7.8013 -2.4808,15.3958 -4.1371,20.3077 -4.2001,12.4558 -5.2684,17.6108 -8.2592,39.8542 -4.2146,31.3448 -6.8066,41.6384 -13.1373,52.1714 -3.3975,5.6528 -10.4025,12.4371 -15.5569,15.0667 -2.5785,1.3155 -3.9082,2.9574 -5.7328,7.0794 -5.7026,12.8822 -8.1219,23.9855 -10.8395,49.7478 -3.2765,31.0601 -5.2797,40.514 -11.1884,52.8033 -3.603,7.4938 -3.656,7.7509 -2.6622,12.9231 1.6716,8.6995 2.2228,28.6059 0.9905,35.7682 -2.8669,16.6627 -11.7018,25.3293 -25.859,25.3661 -14.7337,0.038 -25.6057,7.7059 -42.1775,29.7463 -3.9175,5.2104 -10.1484,12.4414 -13.8462,16.0687 -10.9049,10.6972 -24.4679,33.0766 -29.5689,48.7894 -1.7191,5.2954 -2.5257,10.1301 -2.8511,17.0885 -0.776,16.5885 2.611,25.7491 16.3776,44.2962 4.7104,6.3461 14.1421,20.0166 20.959,30.3789 15.6237,23.7489 24.1129,34.8299 33.7414,44.0432 12.1135,11.5911 21.6268,17.1572 35.3021,20.6547 3.9704,1.0155 9.7651,1.8462 12.8772,1.8462 8.2192,0 14.9392,2.0598 30.0244,9.2027 18.207,8.6211 22.6859,9.717 28.8977,7.0702 z"
       id="path42"
       inkscape:connector-curvature="0" />
    <path
       style="fill:#8c8c8c;fill-opacity:1;stroke-width:0.92307693"
       d="m 693.23073,2496.3642 c -40.99171,-3.6851 -72.82877,-14.9783 -97.4439,-34.5652 -4.87644,-3.8803 -5.89963,-5.241 -7.30827,-9.7195 -6.26542,-19.9194 8.47348,-38.0966 45.21371,-55.7611 13.15713,-6.3258 16.43707,-7.6443 27.4592,-11.0386 29.3369,-9.0342 52.92798,-33.6698 60.33028,-63.0015 0.80738,-3.1992 4.29737,-11.8505 7.75553,-19.2252 49.81149,-106.2249 70.49877,-226.7112 58.55816,-341.0531 -0.74225,-7.1077 -1.96531,-22.0615 -2.71789,-33.2308 -3.99907,-59.3501 -10.06383,-101.3959 -21.83601,-151.3846 -3.7514,-15.9297 -4.39499,-20.5486 -6.30245,-45.2307 -3.20237,-41.4381 -10.17117,-89.2909 -19.4248,-133.3847 -2.50381,-11.9307 -5.02239,-26.0538 -5.59682,-31.3846 -0.62341,-5.7852 -1.33931,-41.8792 -1.77594,-89.5384 -0.76993,-84.0398 -1.06311,-90.1274 -5.55609,-115.3687 -2.35227,-13.2148 -5.45726,-26.6457 -6.27586,-27.1467 -0.33952,-0.2078 -3.73269,1.8825 -7.54039,4.645 -26.72345,19.3883 -62.40357,34.9154 -97.35035,42.3646 -5.60346,1.1944 -12.8881,3.304 -16.1881,4.6879 -8.53571,3.5798 -23.7264,4.236 -32.92326,1.4222 -13.49045,-4.1273 -24.70202,-13.4433 -31.30805,-26.0145 -3.79042,-7.2132 -7.05555,-10.0845 -12.26191,-10.7828 -5.31323,-0.7127 -11.33307,2.8969 -22.77735,13.6576 C 485.79374,1376.7506 480.94444,1380 476.0386,1380 c -5.03095,0 -7.79531,-1.96 -13.11555,-9.2993 -9.42507,-13.002 -46.97101,-46.2572 -78.00724,-69.0925 -5.91729,-4.3537 -14.04791,-10.7596 -18.06804,-14.2353 -17.22363,-14.8909 -38.66574,-25.8001 -60.9449,-31.0069 -4.28769,-1.0021 -4.91179,-1.4913 -6.92308,-5.426 -2.15422,-4.2144 -2.21057,-4.9012 -2.21057,-26.94 0,-21.6579 -0.09,-22.8108 -2.12641,-27.2308 -2.35726,-5.1164 -5.61743,-8.9013 -10.00829,-11.619 -1.59715,-0.9885 -3.15114,-2.7824 -3.45331,-3.9863 -0.30216,-1.204 -2.02138,-3.4814 -3.8205,-5.0611 -3.98844,-3.5018 -8.02896,-3.7385 -17.51457,-1.0259 -10.87195,3.1091 -17.35174,2.2867 -21.48377,-2.7268 -3.87669,-4.7038 -7.99206,-16.1193 -14.99017,-41.5809 -6.11808,-22.2597 -15.52394,-36.4397 -28.1767,-42.4783 -9.77352,-4.6645 -23.81247,-20.8988 -31.71722,-36.6772 -12.78412,-25.5178 -17.12964,-50.3473 -19.94153,-113.94246 -1.38926,-31.42011 -2.29854,-44.15822 -4.13869,-57.97892 -1.6459,-12.36181 -3.63297,-46.02252 -4.25032,-72 -0.90015,-37.87774 1.37603,-84.53928 6.08408,-124.72301 l 1.7971,-15.33839 7.44561,-16.77766 c 11.16998,-25.17 22.72261,-53.23805 32.51883,-79.0071 9.10373,-23.94744 21.92971,-59.81409 21.92971,-61.32439 0,-1.34211 -14.54622,-10.70015 -21.44081,-13.79354 C 167.86222,489.72 153.43479,486.30347 116.76922,480.93007 102.55384,478.84678 86.976919,476.32731 82.153842,475.33125 45.755747,467.8143 23.397054,454.56316 8.4321604,431.63925 2.5365087,422.60801 0.93120447,417.46905 0.26350829,405.48943 -1.1771038,379.64236 9.9187333,353.98666 35.307276,324.46154 49.700687,307.723 83.411905,275.11726 90.93796,270.65515 c 16.47029,-9.76507 28.38347,-12.53149 68.2928,-15.85866 26.31622,-2.19393 36.33134,-3.79778 49.56653,-7.93771 11.7285,-3.66865 19.90954,-5.23905 40.76323,-7.82477 18.00295,-2.23225 26.99241,-4.33567 35.02031,-8.19435 11.62881,-5.58947 17.53932,-12.85513 21.89328,-26.91288 1.95454,-6.31068 4.03749,-10.69188 7.27489,-15.30177 7.46718,-10.63288 14.61752,-15.77377 39.32804,-28.27575 16.93092,-8.56598 23.65298,-12.84898 31.23166,-19.8994 7.85305,-7.30568 13.91747,-9.65217 25.07589,-9.70255 12.56629,-0.0568 22.72156,3.81879 47.53846,18.14199 14.35769,8.28662 25.44988,13.28505 34.02776,15.33382 8.11663,1.93861 15.54537,6.03469 33.26542,18.34199 25.33841,17.59858 58.46362,48.63857 77.7747,72.87878 11.72158,14.71352 12.37217,16.48427 16.50697,44.92808 4.31302,29.6698 8.69358,40.08159 20.89921,49.67363 17.28021,13.57998 31.25252,43.38357 36.6903,78.2621 2.70156,17.32814 3.15118,34.3723 2.8855,109.38461 -0.23266,65.68501 -0.4707,76.81944 -1.80048,84.21764 -2.61739,14.56166 -8.78632,33.47942 -14.76419,45.2762 -1.32455,2.61387 -2.40827,6.04709 -2.40827,7.62937 0,3.45638 -2.96243,15.2471 -5.43859,21.64602 -0.98229,2.53847 -6.11758,13.40929 -11.41176,24.15738 -15.02321,30.49974 -17.64413,40.6696 -15.53548,60.28173 1.00054,9.30585 0.94285,13.41342 -0.40999,29.19519 -2.6746,31.20103 -1.00289,40.84882 7.87274,45.43526 3.48948,1.80317 5.07576,2.06717 9.91797,1.65059 3.17027,-0.27273 6.61253,-0.94993 7.64946,-1.50487 4.44806,-2.38054 9.04026,-17.53554 14.67991,-48.44604 4.24673,-23.27598 4.03502,-22.52456 17.42478,-61.84616 17.65696,-51.85303 28.56075,-78.97957 45.41734,-112.98964 24.86408,-50.16608 50.26516,-87.02879 82.02464,-119.03629 21.86654,-22.0373 42.47506,-37.62329 71.95262,-54.41693 14.2556,-8.12157 59.3052,-50.62389 79.92231,-75.40329 39.78078,-47.81172 69.30918,-98.79263 89.82188,-155.07693 3.879,-10.64374 6.1645,-15.39497 9.8815,-20.54274 9.0996,-12.60204 22.1378,-26.31588 48.4859,-50.99845 33.7925,-31.6563 46.8144,-46.36835 56.8181,-64.192251 l 4.1946,-7.473717 6.2121,-1.212896 c 12.2473,-2.391215 52.7425,-12.923044 72.6738,-18.900694 22.2507,-6.673267 30.9889,-10.500861 55.3846,-24.259913 42.0439,-23.712566 57.0207,-28.817355 86.3077,-29.417657 26.7,-0.547277 49.1403,-2.7667842 79.3846,-7.8516909 8.8846,-1.4937526 16.6747,-2.9050209 17.3114,-3.13615176 1.3428,-0.48753945 22.9102,5.84695836 40.5957,11.92326866 29.671,10.194226 59.1233,22.525758 68.9221,28.857409 25.2005,16.283707 53.4117,42.095998 73.4184,67.175373 31.2198,39.13565 50.8226,80.45198 63.2992,133.41473 5.27,22.37025 19.0591,55.42955 35.9992,86.30769 18.7242,34.12983 33.3025,55.82421 91.4935,136.15385 52.5371,72.52444 77.3545,115.82593 95.0597,165.85996 10.3571,29.26875 48.1709,95.43427 81.4092,142.44773 26.2406,37.1157 52.465,69.2723 84.7926,103.9735 13.0964,14.05797 19.4088,23.29559 27.5251,40.28042 11.6838,24.45067 16.6887,43.55485 26.7762,102.20759 7.9094,45.9882 11.8534,62.4454 16.0133,66.8174 4.7551,4.9976 10.0942,13.3944 13.1737,20.7183 3.4366,8.1732 4.6377,19.5857 2.6842,25.505 -2.2274,6.7489 -9.255,12.4996 -17.3054,14.1612 -3.2483,0.6704 -3.4931,0.9567 -3.7389,4.3731 -0.2927,4.0674 1.8985,17.1626 6.2494,37.3481 3.7014,17.1728 4.5806,32.6763 2.3814,41.9974 -0.8382,3.5525 -3.3174,9.7833 -5.5093,13.8462 -2.3075,4.2771 -5.8367,13.411 -8.3828,21.6949 -9.7481,31.7169 -27.0657,77.7419 -42.1692,112.0731 -4.0398,9.1829 -13.911,29.9884 -21.9361,46.2346 -8.0249,16.2461 -15.7524,32.0052 -17.1721,35.02 -1.6518,3.5082 -4.9355,7.8571 -9.1204,12.0795 -14.8592,14.9923 -29.3407,16.2188 -35.9301,3.0434 -2.1094,-4.2175 -2.9713,-8.0053 -4.4112,-19.3846 -0.9844,-7.7786 -2.6358,-19.5429 -3.6699,-26.1429 -6.3111,-40.2781 -7.7709,-64.1416 -5.054,-82.6154 2.4408,-16.5967 8.0654,-31.569 16.2984,-43.3846 3.1415,-4.5086 3.8484,-6.627 6.315,-18.9231 5.0904,-25.3761 5.9855,-35.1819 6.0246,-66 0.028,-21.8668 -0.335,-31.0398 -1.6246,-41.077 -2.1924,-17.0639 -6.355,-37.3772 -10.9191,-53.2848 -3.5575,-12.3988 -3.6782,-13.2556 -3.0734,-21.8105 2.0571,-29.1033 -7.0739,-65.6912 -23.2581,-93.1945 -4.4728,-7.601 -5.239,-8.46231 -6.6096,-7.4308 -10.1964,7.6735 -12.8384,14.6926 -15.8311,42.0604 -1.0105,9.2406 -2.6615,20.0406 -3.6689,24 -4.3654,17.1564 -10.805,69.9671 -14.4413,118.4295 -1.9476,25.9581 -2.7661,102.3101 -1.3951,130.1538 3.4436,69.9404 10.71,126.3344 25.3932,197.077 1.2645,6.0923 2.7415,14.6076 3.282,18.923 1.5622,12.4686 1.1604,42.192 -0.958,70.8976 -2.3213,31.4538 -2.132,62.8656 0.456,75.6834 1.3722,6.7967 2.1201,8.4008 6.6492,14.2626 15.9371,20.6268 21.5774,47.6199 17.4091,83.3159 -1.5476,13.2535 -2.3839,18.1369 -8.2979,48.4559 -2.2282,11.4231 -4.7301,25.7539 -5.56,31.8462 -0.8297,6.0923 -2.7058,18.9692 -4.1689,28.6154 -3.1193,20.564 -5.9232,45.0211 -7.4611,65.0769 -1.4267,18.6052 -1.4221,72.0558 0.01,90.9231 4.0943,54.025 13.0251,102.6748 28.1292,153.2307 2.8668,9.5953 4.5989,17.672 5.6422,26.3077 3.1881,26.3891 9.164,56.778 16.2406,82.5872 l 3.7209,13.5705 -3.346,6.0871 c -4.4597,8.1136 -9.9518,15.0921 -17.6312,22.4029 -8.1715,7.7795 -13.8204,11.8169 -22.9517,16.4042 -14.7932,7.4317 -27.0979,10.3327 -43.8254,10.3327 -13.4293,0 -24.4497,-1.9806 -32.3285,-5.8103 -5.9872,-2.9102 -6.0324,-2.9163 -21.2308,-2.9319 -8.3769,-0.01 -20.4423,0.1397 -26.812,0.3296 -18.8205,0.561 -26.9855,-3.0722 -33.0496,-14.7062 l -3.1055,-5.9581 0.4481,-11.0769 c 0.5958,-14.7291 3.4051,-23.3346 16.5193,-50.6021 15.2559,-31.721 18.1724,-40.2243 18.8945,-55.0902 0.3533,-7.2737 1.5951,-14.2993 4.9763,-28.1539 11.7241,-48.039 20.4463,-100.665 24.4017,-147.2307 2.8214,-33.2136 3.4897,-54.6263 2.9822,-95.5385 -0.6892,-55.5564 -3.328,-86.7356 -12.1092,-143.0769 -3.4691,-22.2583 -4.8531,-35.7398 -8.3869,-81.6923 -4.7344,-61.5662 -6.995,-81.4928 -12.1477,-107.077 -5.0294,-24.9718 -5.8938,-27.3114 -14.6403,-39.6276 -37.7137,-53.1052 -66.294,-113.7159 -83.8193,-177.757 -2.2229,-8.123 -8.0148,-25.3615 -12.8708,-38.3077 -18.9548,-50.5339 -38.2274,-112.1225 -49.1791,-157.1599 -2.0232,-8.3208 -2.8856,-10.5818 -3.6967,-9.6923 -0.5819,0.6379 -3.9834,5.9368 -7.559,11.7753 -49.7322,81.2068 -79.7437,172.4207 -88.3806,268.6154 -2.0298,22.6062 -2.7527,63.3793 -1.4813,83.5385 0.5764,9.1384 1.4645,25.0061 1.9736,35.2614 1.0066,20.2783 2.0202,29.4038 6.5413,58.8924 3.7043,24.1602 4.2951,49.4378 1.4401,61.6062 -3.1805,13.5561 -9.2123,25.1727 -18.3377,35.3169 -2.2835,2.5384 -6.7735,8.7692 -9.9777,13.8461 -3.2043,5.077 -17.7609,26.8847 -32.3479,48.4616 -33.5154,49.5754 -43.4424,64.747 -55.6857,85.1061 -24.7516,41.1588 -42.5361,79.688 -52.8385,114.4718 -2.9093,9.8225 -3.2849,12.1494 -2.7998,17.3446 1.2629,13.5235 9.5768,23.3724 30.7152,36.3861 24.1814,14.887 30.0643,20.3599 37.226,34.6312 22.1956,44.23 33.786,95.006 33.0696,144.8746 l -0.2702,18.8145 -17.782,8.1767 c -30.2055,13.8892 -44.9076,17.9353 -57.5551,15.8396 -14.889,-2.4671 -21.6104,-8.6437 -36.4455,-33.4914 -12.4103,-20.7862 -29.5637,-47.0926 -43.5945,-66.8562 l -9.7823,-13.7793 -1.9665,4.5485 c -2.9185,6.7506 -4.5936,14.4462 -7.7809,35.7463 -4.1859,27.9737 -7.8428,38.1337 -17.033,47.324 -5.7044,5.7044 -12.05,9.0693 -25.9064,13.7378 -35.4141,11.9316 -68.9937,17.3476 -108,17.4193 -25.1537,0.046 -40.1857,-1.2744 -62.5591,-5.4962 -12.6551,-2.388 -12.728,-2.4163 -16.0367,-6.2139 -12.9789,-14.8965 -9.1235,-33.5238 11.1218,-53.7345 10.1297,-10.1125 20.3108,-17.3143 29.9432,-21.181 12.5419,-5.0349 28.5436,-13.3685 36.5739,-19.0478 10.2253,-7.2318 24.1256,-21.0252 31.2447,-31.0044 6.9618,-9.759 14.4768,-24.2858 18.2658,-35.3087 2.0275,-5.8984 4.1044,-10.0239 6.3439,-12.6018 4.6133,-5.31 8.2379,-13.1163 9.92,-21.3645 2.9523,-14.4772 -1.8267,-29.8447 -12.9303,-41.5792 -3.199,-3.3807 -9.5052,-10.5084 -14.0137,-15.8391 -11.414,-13.4959 -44.9805,-46.7709 -63.6143,-63.062 -8.5728,-7.495 -27.0574,-23.2499 -41.0769,-35.0109 -52.9388,-44.4103 -62.4404,-52.8463 -88.5674,-78.6328 -19.8749,-19.6159 -24.6953,-25.674 -31.997,-40.2124 -20.0434,-39.9089 -22.3509,-92.9627 -7.2469,-166.6204 3.0278,-14.7658 3.6188,-16.5098 10.0096,-29.5385 10.8807,-22.1818 16.6188,-41.417 19.0002,-63.6923 1.3198,-12.3455 0.6044,-36.5421 -1.4056,-47.5384 -3.1283,-17.115 -1.2867,-34.1111 6.9016,-63.6923 6.1949,-22.3804 8.3277,-32.0626 9.0791,-41.2171 l 0.6176,-7.5247 -4.4507,-0.5904 c -7.1564,-0.9494 -41.8372,-0.6766 -51.892,0.4082 -17.4072,1.878 -48.8579,8.3258 -53.97894,11.0665 -1.42661,0.7635 -1.63892,3.7589 -2.14033,30.1987 -0.8077,42.5856 -4.05997,87.409 -9.59733,132.2741 l -2.44938,19.8462 -4.61649,5.5385 c -20.60391,24.7187 -34.57957,60.0735 -36.30674,91.8461 -0.49375,9.083 -0.72822,10.0007 -3.73071,14.598 -10.0824,15.4377 -12.79689,31.8766 -11.7648,71.2482 0.43902,16.7489 0.29566,27.7145 -0.45489,34.7788 -0.84868,7.9881 -0.84628,12.7809 0.0111,21.2308 1.58667,15.6464 1.38295,47.895 -0.40819,64.6055 -3.90353,36.4181 -12.7921,70.8578 -26.40472,102.3079 -5.33169,12.3182 -7.82264,20.2188 -12.46064,39.5219 -9.54202,39.7134 -14.04435,74.5836 -20.76018,160.7858 -6.98809,89.697 -10.81975,119.1472 -21.25742,163.3847 -0.59893,2.5384 -2.28682,6.9428 -3.75084,9.7873 -5.00005,9.7152 -5.77871,15.5654 -4.90175,36.828 1.07689,26.1104 0.94563,37.4389 -0.5027,43.3847 -2.41519,9.9147 -7.22707,17.1055 -15.03778,22.472 -11.25534,7.7332 -46.64603,17.6105 -76.6466,21.3916 -11.12439,1.402 -41.48589,2.4615 -49.60939,1.7313 z m 709.25247,-537.0188 c 3.6823,-1.5385 8.0658,-6.659 9.7559,-11.3962 0.6845,-1.9182 4.8781,-9.303 9.3192,-16.4107 31.4314,-50.3033 49.6917,-101.3673 56.7629,-158.7345 1.6681,-13.533 3.1827,-43.4796 2.6628,-52.6501 -6.8258,-120.4082 -20.8108,-247.0957 -40.6064,-367.8462 -2.4729,-15.0846 -4.6731,-25.9014 -5.4225,-26.6585 -2.9203,-2.9498 -13.7002,5.2442 -18.0082,13.6885 -2.6985,5.2895 -5.2223,16.8935 -6.9366,31.8931 -1.8867,16.5075 -2.8404,21.3493 -6.0328,30.625 -3.3703,9.7927 -4.9414,17.9137 -7.8261,40.4519 -3.6065,28.177 -6.8949,40.2395 -13.8105,50.6581 -3.8286,5.7681 -7.7796,9.5083 -13.7251,12.9926 -3.2233,1.889 -4.5791,3.5148 -6.4994,7.7938 -5.8211,12.9711 -7.8466,22.4975 -11.1745,52.5562 -3.2898,29.7151 -5.7336,40.5124 -11.7769,52.034 -2.677,5.1036 -2.7294,5.444 -1.7065,11.0769 1.7964,9.8913 2.3094,26.6976 1.0527,34.4876 -2.8829,17.8714 -9.826,24.7289 -26.6494,26.3205 -16.35,1.5469 -23.652,6.776 -41.511,29.7268 -5.8964,7.5774 -12.5407,15.2914 -14.7651,17.1423 -2.2244,1.8507 -7.3648,8.3497 -11.4229,14.442 -25.3095,37.9959 -26.8266,64.2901 -5.3262,92.3077 3.1167,4.0615 12.745,17.9769 21.396,30.923 8.6511,12.9462 18.3223,26.8616 21.4914,30.9231 6.6859,8.5686 19.234,20.9495 25.6531,25.3115 9.9182,6.7397 25.3889,12.0731 35.0201,12.0731 7.787,0 15.0966,2.0559 26.9873,7.5904 21.0353,9.7909 26.8113,11.3052 33.0987,8.6781 z"
       id="path40"
       inkscape:connector-curvature="0" />
    <path
       style="fill:#767676;fill-opacity:1;stroke-width:0.92307693"
       d="m 689.99996,2495.9136 c -32.35542,-2.6327 -62.35128,-12.3996 -85.24812,-27.7575 -13.00954,-8.7262 -14.53331,-10.3069 -16.3286,-16.9392 -5.74819,-21.2355 10.17196,-38.9757 52.19211,-58.1586 5.83846,-2.6654 13.93846,-5.7507 18,-6.8562 16.23844,-4.4198 33.81604,-15.7258 44.76269,-28.7914 7.15484,-8.5397 13.19946,-19.676 16.64978,-30.6746 1.61347,-5.1433 5.56851,-15.1668 8.78898,-22.2745 30.68425,-67.7213 47.76825,-126.032 56.70062,-193.5292 6.34374,-47.9364 7.20834,-104.3918 2.29149,-149.6288 -0.7309,-6.7247 -1.95992,-21.7805 -2.73116,-33.4574 -3.88192,-58.7738 -11.31458,-108.8227 -23.50997,-158.3077 -1.48237,-6.0151 -2.88015,-14.8158 -3.22538,-20.3077 -3.05668,-48.6259 -10.23983,-100.2271 -21.26632,-152.7692 -2.23743,-10.6616 -4.54476,-24.1616 -5.1274,-30 -0.62576,-6.2705 -1.37218,-43.2968 -1.82364,-90.4616 -0.42036,-43.9154 -0.98488,-81.0923 -1.25448,-82.6154 -0.2696,-1.523 -0.94623,-6.923 -1.50363,-12 -1.38919,-12.6531 -3.31924,-23.9693 -6.14004,-36 -1.30941,-5.5846 -2.47153,-10.2619 -2.58248,-10.394 -0.11096,-0.1321 -6.18596,3.7605 -13.50001,8.6503 -25.5536,17.0837 -59.81497,31.7022 -88.52905,37.773 -6.34615,1.3418 -13.61538,3.2949 -16.15384,4.3403 -11.3092,4.6576 -24.10131,5.7328 -34.94369,2.9373 -13.17493,-3.3969 -25.59389,-13.3931 -32.44381,-26.1147 -5.78967,-10.7524 -11.7613,-13.4819 -20.37414,-9.3124 -2.13564,1.0338 -8.59709,6.2984 -14.3588,11.6991 C 485.46461,1377.033 481.00422,1380 475.73623,1380 c -4.73001,0 -8.28342,-2.6795 -12.71468,-9.5875 -5.98914,-9.3368 -46.57023,-45.3403 -74.40619,-66.0131 -7.86923,-5.8442 -17.00769,-13.0588 -20.30769,-16.0324 -7.73077,-6.9661 -20.33743,-15.4362 -30.78247,-20.682 -7.22976,-3.631 -23.20095,-9.4477 -32.90983,-11.9857 -2.46969,-0.6456 -3.7744,-1.815 -5.53846,-4.9642 -2.28665,-4.0821 -2.30769,-4.326 -2.30769,-26.7351 0,-21.8666 -0.073,-22.777 -2.20556,-27.4963 -1.9423,-4.2983 -9.19306,-12.196 -11.19703,-12.196 -0.37462,0 -1.1981,-1.2481 -1.82995,-2.7735 -0.63184,-1.5254 -2.56592,-4.0177 -4.29794,-5.5384 -3.85619,-3.3858 -8.00056,-3.6047 -17.3926,-0.9189 -3.55061,1.0154 -8.63656,1.8462 -11.3021,1.8462 -4.25559,0 -5.28879,-0.3997 -8.475,-3.2782 -4.703,-4.2489 -7.87824,-11.914 -13.96219,-33.7051 -7.31685,-26.2069 -11.98868,-36.1981 -20.93378,-44.769 -2.40531,-2.3047 -6.97157,-5.4694 -10.14725,-7.0329 -10.13841,-4.9911 -23.68212,-20.8079 -31.9268,-37.2852 -11.78256,-23.5477 -16.8547,-51.50589 -19.07812,-105.16038 -1.26159,-30.44433 -2.56914,-50.24712 -4.17503,-63.23077 -2.05422,-16.60836 -3.10644,-32.28697 -4.26437,-63.54103 -1.57615,-42.5426 0.44615,-90.51749 5.71678,-135.61914 1.56359,-13.37992 2.31435,-16.92561 4.69087,-22.15384 6.3777,-14.03069 20.79557,-47.97409 27.54149,-64.83984 12.20879,-30.5237 31.39243,-83.06926 31.39243,-85.98645 0,-1.52273 -16.35418,-11.56572 -24.14369,-14.82648 -15.51504,-6.49472 -28.9431,-9.52987 -66.31785,-14.98983 C 76.378154,474.94144 60.082147,470.92878 45.082935,463.42143 33.719607,457.73391 27.805305,453.47614 19.384614,444.92091 4.195759,429.4894 -0.81512533,416.90646 0.27713619,396.93971 1.4397288,375.68731 10.578835,355.33991 29.928742,330.92308 c 8.136472,-10.26707 43.807965,-46.8043 53.148177,-54.43807 16.26479,-13.29324 32.804491,-18.16458 72.000001,-21.20569 24.71005,-1.91723 37.35158,-3.66992 47.53845,-6.591 19.65808,-5.63696 25.00876,-6.76386 43.26547,-9.11214 10.59601,-1.36292 22.39722,-3.279 26.22492,-4.25796 19.38451,-4.95773 28.55755,-13.27889 34.35476,-31.16429 6.26861,-19.33975 15.92482,-28.44979 46.15485,-43.54428 16.36381,-8.17079 24.08757,-13.08418 31.69868,-20.16477 7.69001,-7.15399 13.92387,-9.61371 24.60901,-9.71005 12.42585,-0.11203 22.67649,3.70988 46.02401,17.15987 14.64925,8.43912 27.61236,14.41456 34.74521,16.01607 8.24108,1.85033 10.23415,2.85054 25.12878,12.61066 34.91081,22.87632 67.57735,53.03482 91.40387,84.38619 6.91983,9.10523 8.47777,13.99795 11.7853,37.01171 1.25836,8.75563 2.71866,17.89409 3.2451,20.30769 3.2318,14.81703 8.7111,24.32058 18.54668,32.16823 13.78365,10.99775 27.56956,36.95763 33.53202,63.14322 5.18975,22.79208 5.91838,39.12208 5.60141,125.53846 -0.26419,72.02346 -0.35823,75.6419 -2.20593,84.87424 -2.57399,12.86125 -6.72903,26.00818 -12.12248,38.35653 -2.54808,5.83387 -4.68973,12.31383 -5.03381,15.23077 -1.02501,8.68923 -6.39615,22.77875 -16.36296,42.92308 -14.99282,30.3026 -17.61293,40.29852 -15.68477,59.83883 0.86474,8.76338 0.86329,13.98221 -0.006,23.69963 -1.77157,19.79112 -1.56503,38.31391 0.48651,43.63126 3.11788,8.0812 10.51092,11.24035 21.14051,9.03366 l 5.1866,-1.07674 2.76236,-6.64024 c 3.66717,-8.81528 5.98569,-17.9368 9.40165,-36.98798 4.0209,-22.42498 6.04451,-31.00064 9.58332,-40.61222 1.70592,-4.63357 5.89916,-16.94005 9.31823,-27.34774 47.68277,-145.14678 110.1794,-235.67528 195.4154,-283.06584 11.43031,-6.35516 29.44344,-21.66616 52.50231,-44.62647 34.1184,-33.97269 58.134,-64.80095 81.61642,-104.76924 14.9546,-25.45357 33.8325,-66.41402 41.9045,-90.92307 3.9809,-12.08701 19.667,-30.0983 55.1106,-63.27978 33.9089,-31.74473 48.8909,-48.81506 58.0852,-66.181763 1.8143,-3.426923 3.8984,-6.230769 4.6315,-6.230769 5.0265,0 55.7286,-13.018741 81.182,-20.845066 20.1626,-6.199536 24.2337,-8.005167 48.9231,-21.698528 47.1472,-26.149117 58.5739,-30.053181 90.3025,-30.853105 27.8129,-0.7012 64.2861,-4.6553843 88.2176,-9.56395 l 8.6167,-1.76737726 16.2777,4.89811136 c 24.6385,7.4139449 47.808,15.9159419 73.5085,26.9737449 37.5311,16.14803 84.6927,60.637201 113.3192,106.897862 19.0436,30.7749 30.1738,57.54494 39.8962,95.95831 7.5224,29.72105 18.3439,56.99526 34.7589,87.60533 18.6688,34.81282 35.2378,59.92028 83.5127,126.54852 49.5149,68.3397 65.5404,93.22974 84.6911,131.53846 9.8837,19.77107 17.1907,36.82954 22.7356,53.07692 3.032,8.88419 14.4046,31.78996 27.0294,54.44061 37.6649,67.57551 81.3547,127.49016 136.1647,186.73121 14.7895,15.98517 20.0054,23.37444 28.3323,40.13753 11.3204,22.7893 17.738,46.60718 26.7988,99.45984 5.0768,29.6137 10.2719,55.4247 12.8569,63.8776 0.7716,2.5231 3.4376,6.8979 6.3699,10.4529 14.9153,18.0826 18.9058,40.2694 9.1008,50.6003 -2.9859,3.1459 -8.1112,5.8988 -12.8599,6.9072 l -3.4758,0.738 0.1705,7.3274 c 0.1089,4.672 1.749,14.6869 4.5258,27.6351 3.9528,18.4316 4.3635,21.5015 4.4448,33.2308 0.1002,14.4341 -0.7845,18.3411 -6.5838,29.0769 -1.7826,3.3 -6.7692,16.8 -11.0813,30 -18.1133,55.4469 -34.7548,96.0496 -62.2362,151.8462 -8.1268,16.5 -15.6765,31.848 -16.7772,34.1067 -2.9526,6.0593 -13.8962,16.7857 -20.2726,19.8702 -6.7209,3.2512 -13.5786,3.5766 -18.222,0.8647 -5.4725,-3.1961 -8.021,-9.7135 -10.0746,-25.7647 -0.9743,-7.6154 -3.2317,-23.6077 -5.0164,-35.5385 -3.8542,-25.7657 -5.1773,-39.3249 -5.1816,-53.1011 -0.01,-25.1835 5.6099,-45.9624 17.098,-63.2429 3.8962,-5.8607 4.4678,-7.4842 6.8874,-19.562 4.4414,-22.169 5.724,-34.5867 6.2228,-60.2478 0.3618,-18.6141 0.1169,-27.4181 -1.0911,-39.2308 -2.3137,-22.6233 -7.094,-47.0077 -12.6672,-64.6154 -1.6129,-5.0957 -1.9312,-8.7823 -2.1119,-24.4615 -0.2979,-25.8457 -3.5526,-43.3346 -11.9624,-64.2789 -3.8336,-9.5475 -11.6815,-24.694 -15.1471,-29.2339 l -1.6245,-2.12814 -4.2647,3.75394 c -7.606,6.695 -10.0531,14.3089 -12.7701,39.7331 -1.0039,9.3923 -2.4858,19.3616 -3.2933,22.1539 -4.2798,14.7997 -11.8074,77.1087 -15.3336,126.9231 -1.8758,26.4988 -1.5575,122.7022 0.4963,150 4.3714,58.1019 10.5105,103.2575 21.3967,157.3846 2.7569,13.7077 5.4443,28.4429 5.9717,32.745 1.5217,12.4102 1.1216,41.0557 -0.9629,68.9338 -1.5018,20.0837 -1.8199,30.652 -1.4546,48.3212 0.6049,29.2572 1.4004,33.2727 8.4254,42.5285 15.4087,20.3024 21.3423,46.5328 17.9727,79.4506 -1.1443,11.1773 -3.6697,26.1524 -9.4737,56.1747 -2.3065,11.9308 -5.0243,28.1308 -6.0398,36 -1.0153,7.8693 -2.9033,21.1872 -4.1955,29.5955 -15.1522,98.5979 -7.7268,201.8557 21.5184,299.2389 2.4794,8.2564 4.7966,17.7118 5.149,21.0118 3.0458,28.5204 11.137,69.4379 19.024,96.2056 l 1.8286,6.2056 -2.0077,3.9482 c -10.5043,20.6573 -31.7269,38.7027 -54.7232,46.5305 -20.1988,6.8756 -47.8171,6.5961 -62.8574,-0.6362 -7.6964,-3.7008 -16.2007,-4.7283 -30.155,-3.6433 -34.188,2.6583 -44.2177,-0.026 -51.3134,-13.733 -2.7544,-5.3207 -3.006,-6.5174 -3.0001,-14.2658 0.011,-14.9252 4.387,-28.7389 17.2675,-54.5136 13.6318,-27.2777 18.4992,-42.0405 19.127,-58.0121 0.2476,-6.2986 1.5629,-13.5263 4.9992,-27.4705 14.072,-57.103 22.6775,-115.8633 26.0627,-177.9602 1.4367,-26.3544 0.6061,-98.0145 -1.409,-121.5783 -2.0491,-23.9584 -4.7613,-47.8054 -7.5066,-66 -1.264,-8.3769 -2.8897,-19.1769 -3.6128,-24 -2.529,-16.8686 -4.2023,-34.0206 -7.4294,-76.1538 -4.9885,-65.1312 -8.7936,-94.7869 -15.6599,-122.047 -2.7931,-11.0887 -3.5657,-12.952 -7.6808,-18.5255 -2.5165,-3.4083 -8.2875,-11.8045 -12.8245,-18.6583 -32.5352,-49.15 -56.485,-101.0745 -71.9332,-155.9553 -6.2213,-22.1015 -6.9345,-24.2722 -14.4214,-43.8909 -17.9385,-47.0058 -35.4224,-102.324 -47.8296,-151.3299 -5.7234,-22.6062 -3.7221,-22.5793 -17.1065,-0.2302 -48.404,80.8252 -76.5503,169.0793 -85.4292,267.8678 -1.5201,16.9123 -1.5575,72.3292 -0.065,96.4616 2.3852,38.5704 3.0404,45.3493 6.8263,70.6275 3.528,23.5557 3.8692,27.4214 3.8694,43.834 10e-5,15.5772 -0.2692,18.994 -2.0007,25.3846 -2.9117,10.7465 -9.2297,22.894 -16.0877,30.9316 -3.2467,3.8052 -10.1641,13.4749 -15.372,21.4882 -5.2079,8.0133 -19.6688,29.6125 -32.1354,47.9981 -55.7122,82.1636 -76.0131,117.2786 -93.7702,162.1975 -10.5007,26.5629 -13.9011,38.0224 -13.9746,47.0963 -0.057,7.0833 0.2357,8.4738 2.9469,13.9811 4.2218,8.5759 11.5409,15.045 30.6845,27.121 10.8286,6.8309 18.2192,12.2403 22.7893,16.6806 6.162,5.9868 7.3288,7.7521 13.1169,19.8461 11.4274,23.8771 19.9124,49.1931 25.023,74.6595 4.7361,23.6008 5.8573,35.1902 5.9271,61.2692 l 0.064,23.8845 -12.9231,5.9379 c -36.4208,16.7347 -49.2698,20.3637 -63.1726,17.8422 -14.3194,-2.597 -20.6122,-8.3258 -34.3987,-31.3149 -16.2582,-27.1108 -44.1497,-69.3008 -53.0739,-80.2821 l -1.7893,-2.2018 -2.0702,4.8123 c -2.6997,6.2756 -5.0797,17.4363 -7.4913,35.1296 -2.4955,18.3088 -4.7435,27.439 -8.7889,35.6952 -6.4235,13.1101 -14.2839,18.9468 -34.4794,25.6029 -57.0074,18.7886 -114.6751,22.6247 -172.7357,11.4906 -10.2615,-1.9678 -11.5937,-2.704 -15.7227,-8.6891 -9.7398,-14.1181 -5.5323,-31.6858 11.8869,-49.6317 11.113,-11.4492 21.5738,-18.3709 37.6943,-24.9418 5.6761,-2.3136 12.7376,-5.5516 15.6923,-7.1954 30.61,-17.0294 52.7604,-43.1246 64.0512,-75.4581 1.9696,-5.6403 4.2042,-10.0161 6.5695,-12.8641 4.7917,-5.7697 7.8553,-12.2217 9.5081,-20.0245 1.6988,-8.0202 1.7094,-11.2834 0.062,-19.0576 -1.8954,-8.9427 -5.524,-15.8597 -11.9625,-22.8034 -3.1225,-3.3677 -9.3723,-10.4845 -13.8884,-15.8153 -11.5005,-13.575 -46.8928,-48.6478 -65.5827,-64.9905 -8.6308,-7.5468 -29.3746,-25.1921 -46.0975,-39.2117 -43.53,-36.4932 -58.3563,-49.6659 -81.1509,-72.0996 -20.6779,-20.3506 -26.2066,-27.1671 -32.9132,-40.5801 -7.2714,-14.5425 -12.3306,-31.2459 -15.3895,-50.8104 -2.2948,-14.6763 -2.2819,-51.2857 0.025,-70.1538 2.0462,-16.738 5.3973,-36.3596 8.8953,-52.0832 2.2608,-10.1626 3.6354,-13.9515 8.5716,-23.6257 8.6582,-16.9689 14.2833,-33.5844 17.866,-52.7732 2.2816,-12.22 2.6976,-38.7241 0.8159,-51.9795 -3.4704,-24.4463 -2.8364,-36.2246 3.201,-59.4626 1.9234,-7.4033 5.1891,-19.9413 7.2571,-27.8623 3.187,-12.2075 6.2376,-30.9988 5.2061,-32.0692 -0.1681,-0.1745 -6.6706,-0.7146 -14.45,-1.2002 -27.7098,-1.7301 -60.526,1.9359 -88.9998,9.9424 l -8.39381,2.3603 -0.5761,29.2227 c -0.84434,42.8271 -4.01317,86.6671 -9.5711,132.4134 l -2.44376,20.1136 -4.61991,5.7325 c -21.27267,26.396 -34.16667,58.8347 -36.48609,91.792 -0.73264,10.4103 -0.90609,11.0754 -4.15726,15.9405 -5.73997,8.5895 -9.12212,19.3195 -10.7016,33.951 -0.5327,4.9346 -0.96683,23.5106 -0.9647,41.2798 0,17.7692 -0.0434,35.6308 -0.10053,39.6923 -0.0572,4.0615 0.20446,18.7019 0.58191,32.5341 0.47474,17.3995 0.34145,29.2044 -0.43246,38.3077 -3.04327,35.7965 -12.31443,72.982 -26.52506,106.389 -5.8402,13.7294 -7.25618,18.0848 -11.70399,36 -10.47156,42.1781 -14.85491,75.2289 -21.79188,164.3126 -4.1762,53.63 -6.41993,77.0072 -9.76436,101.7335 -4.40792,32.5891 -11.05104,64.0519 -15.30614,72.4923 -5.05572,10.0284 -5.72926,15.3272 -4.84017,38.077 1.40131,35.8561 0.7229,43.243 -4.85521,52.8658 -5.07292,8.7513 -11.85334,13.6008 -26.14387,18.6985 -34.81334,12.4186 -78.88984,18.4403 -114.04076,15.58 z m 712.44524,-536.332 c 3.9854,-2.0436 8.053,-6.8036 9.7969,-11.4644 0.9769,-2.6109 4.4465,-8.8631 7.7104,-13.8937 17.1801,-26.4795 30.4737,-54.0116 40.8991,-84.705 16.2167,-47.7438 22.5689,-95.8533 19.3296,-146.3948 -6.6289,-103.427 -17.9821,-209.0837 -33.3321,-310.2006 -6.9709,-45.9205 -10.526,-65.8927 -11.992,-67.3722 -1.2024,-1.2133 -1.8398,-1.1174 -5.5093,0.8292 -8.0769,4.2848 -13.6955,12.8045 -16.49,25.0045 -0.7559,3.3 -2.031,11.8154 -2.8334,18.9231 -1.9775,17.5152 -2.9707,22.7105 -6.0309,31.5481 -3.4016,9.823 -5.0286,18.078 -7.8598,39.8772 -5.2696,40.575 -11.3378,54.7432 -27.5037,64.2171 -3.3199,1.9455 -4.5749,3.5108 -6.8947,8.5988 -5.4908,12.0431 -7.6392,22.2755 -10.8244,51.5543 -3.2133,29.5383 -6.4672,43.5014 -12.5336,53.7848 -1.8043,3.0585 -1.81,3.3527 -0.2969,15.2307 2.7834,21.8481 0.4424,38.3176 -6.6189,46.5671 -4.7953,5.6022 -9.0438,7.4511 -19.3662,8.4276 -16.2797,1.5403 -23.8526,6.8246 -40.4048,28.1943 -5.1122,6.6 -12.2799,14.9077 -15.9283,18.4615 -10.0568,9.7961 -23.2112,31.4637 -28.5804,47.077 -3.0459,8.8572 -4.1286,24.2041 -2.3031,32.6453 1.7087,7.9014 7.4596,19.0002 14.8913,28.7393 3.6804,4.8231 12.291,17.2846 19.1348,27.6923 25.9434,39.4535 39.0506,53.8853 57.4044,63.206 8.4853,4.3092 14.6604,5.9577 26.3061,7.0227 12.028,1.0999 15.6114,2.1716 29.779,8.906 17.5516,8.3429 24.8768,10.1769 30.0509,7.5238 z"
       id="path38"
       inkscape:connector-curvature="0" />
    <path
       style="fill:#606060;fill-opacity:1;stroke-width:0.92307693"
       d="m 691.54137,2495.9658 c -34.02385,-2.6397 -64.32041,-12.5222 -87.84909,-28.6557 -11.5322,-7.9076 -13.49824,-9.983 -15.28753,-16.1379 -3.13355,-10.7791 0.1936,-21.2997 9.95214,-31.4692 7.33553,-7.6444 17.10094,-14.1309 33.48923,-22.2448 14.10665,-6.9841 18.97026,-8.9713 31.11396,-12.7127 27.59923,-8.5029 50.12406,-32.2172 58.43004,-61.5156 1.19927,-4.2302 5.89532,-15.7914 10.43567,-25.6914 27.21382,-59.3384 45.83992,-124.2913 54.13203,-188.7692 5.94977,-46.2644 6.65958,-104.5273 1.81056,-148.6154 -0.7259,-6.6 -1.94282,-21.7616 -2.70425,-33.6923 -3.41084,-53.4431 -9.70313,-96.9036 -21.65043,-149.5385 -2.84684,-12.542 -4.71997,-23.2435 -5.08951,-29.0769 -2.98935,-47.1907 -10.7894,-103.019 -21.21513,-151.8462 -6.01652,-28.1773 -6.2937,-32.875 -6.57635,-111.4553 -0.28478,-79.1767 -1.35642,-100.0906 -6.46844,-126.237 -1.47281,-7.5329 -5.03634,-22.8826 -5.41326,-23.3171 -0.11458,-0.1321 -5.98487,3.6101 -13.04507,8.316 -27.57853,18.3822 -58.93747,31.6582 -91.79832,38.8635 -5.81729,1.2756 -13.48457,3.4367 -17.03842,4.8025 -7.82239,3.0063 -21.40953,4.0678 -29.19888,2.2811 -14.15175,-3.2462 -27.40127,-13.5261 -34.49342,-26.7623 -5.77188,-10.7722 -11.68379,-13.4354 -20.42825,-9.2023 -2.16381,1.0475 -9.03797,6.665 -15.27591,12.4834 -11.98079,11.175 -16.75398,14.2275 -22.24747,14.2275 -4.03205,0 -9.05608,-3.9685 -11.77767,-9.3033 -2.00332,-3.9268 -27.60885,-28.3394 -45.19378,-43.0883 -6.34615,-5.3227 -18.80769,-15.1184 -27.6923,-21.7685 -8.88462,-6.65 -18.85385,-14.5184 -22.15385,-17.4852 -10.69433,-9.6146 -27.30994,-19.8509 -41.79839,-25.7508 -2.64934,-1.0788 -9.38622,-3.2667 -14.97083,-4.862 -10.06845,-2.8761 -10.17326,-2.9351 -12.46154,-7.0135 -2.28827,-4.0784 -2.30789,-4.3072 -2.33105,-27.1899 -0.0273,-27.012 -0.0375,-27.052 -9.26259,-36.4616 -3.23531,-3.3 -7.50909,-7.7654 -9.4973,-9.923 -3.24764,-3.5245 -4.047,-3.9231 -7.86709,-3.9231 -2.33867,0 -7.44681,0.8764 -11.35141,1.9477 -17.55192,4.8152 -22.91151,-0.1931 -30.73058,-28.717 -10.63335,-38.7901 -17.27477,-50.5766 -32.8078,-58.2235 -9.80708,-4.828 -23.93265,-21.1478 -31.81754,-36.7599 -3.60315,-7.1342 -8.26929,-20.066 -10.59774,-29.3705 -5.09574,-20.3627 -7.12889,-39.46848 -9.26143,-87.03067 -0.78533,-17.51538 -2.03993,-37.45384 -2.78799,-44.30769 -7.76904,-71.18078 -7.42454,-142.42581 1.02213,-211.38462 1.36774,-11.16629 1.66451,-12.1108 9.20104,-29.28304 19.82314,-45.1677 35.69701,-85.68523 51.74472,-132.07674 l 2.65232,-7.66748 -3.23076,-2.66964 c -9.07519,-7.49902 -25.66696,-14.9834 -42.81893,-19.31518 -10.3943,-2.62512 -17.88617,-3.91565 -59.18107,-10.19445 C 49.451601,470.46893 23.89245,456.9956 6.7698848,428.95137 2.7739871,422.40668 1.0994911,416.45617 0.33113246,406.07056 -1.4209557,382.38825 8.3432323,358.03989 31.022069,329.53846 c 3.43379,-4.31538 16.447016,-18.07812 28.918282,-30.58386 24.980635,-25.04969 31.283072,-29.94839 44.842309,-34.8547 14.02433,-5.0746 22.56813,-6.48349 56.48715,-9.31489 24.06613,-2.00892 37.53508,-4.20826 48.35208,-7.89537 10.2914,-3.50797 16.10372,-4.65469 37.19628,-7.33851 20.75896,-2.64138 32.03479,-5.39613 40.45269,-9.88282 9.28302,-4.94781 16.6996,-14.69327 19.27259,-25.32441 1.71481,-7.08525 7.11088,-16.56125 12.61623,-22.15526 6.616,-6.72256 14.97605,-12.09275 33.50211,-21.52054 17.80566,-9.06117 24.40785,-13.27022 31.33819,-19.97881 5.85102,-5.66381 10.95977,-8.18413 19.31775,-9.53015 12.59481,-2.02833 24.2571,1.52194 47.16111,14.35697 24.09054,13.49993 38.11769,19.71466 44.49761,19.71466 3.80775,0 30.98914,17.99883 49.63891,32.86962 16.17952,12.9011 43.98669,40.75888 57.01748,57.1213 12.08678,15.17705 12.55728,16.42315 16.38726,43.401 2.91973,20.56621 4.40916,26.84885 8.31397,35.06962 3.58782,7.5534 8.17766,13.19507 13.98641,17.1916 9.10237,6.26259 22.88744,29.2629 28.82886,48.10079 3.63731,11.53246 7.04368,28.65302 8.49728,42.70761 1.12793,10.9058 1.30393,24.70088 1.24838,97.84616 -0.0154,20.30769 -0.0291,44.81538 -0.0303,54.46154 -0.003,24.94778 -3.48084,42.28756 -12.93463,64.49284 -3.1739,7.45494 -5.63648,14.8803 -6.39572,19.28491 -1.95717,11.35408 -5.45839,20.52398 -15.8578,41.53243 -15.47012,31.25211 -18.54548,43.23301 -16.12256,62.80994 0.74078,5.98545 0.71986,11.44541 -0.0796,20.76923 -0.59652,6.95701 -1.10307,19.29526 -1.12567,27.41834 -0.0392,14.09103 0.0649,14.95622 2.26661,18.84131 3.62882,6.40329 6.34899,7.92792 14.14461,7.92792 10.00137,0 11.06337,-0.514 13.79468,-6.67647 3.95804,-8.93029 6.14798,-17.36474 10.01033,-38.5543 4.1796,-22.93006 6.34317,-32.08192 9.67925,-40.94296 1.27015,-3.37368 6.19763,-17.76473 10.94994,-31.98012 14.47413,-43.2958 25.77187,-71.24771 42.5327,-105.23077 13.0797,-26.51949 20.61094,-39.71174 35.04344,-61.38461 32.4583,-48.74171 70.30821,-85.36598 113.44367,-109.77015 24.10511,-13.63763 69.24164,-56.87686 98.07035,-93.94811 33.8973,-43.58887 60.7555,-92.29702 78.7952,-142.89713 3.0737,-8.62168 5.1328,-12.67983 9.2898,-18.30847 9.573,-12.96201 22.1224,-26.14548 47.2788,-49.66769 33.3816,-31.21314 47.9521,-47.59066 57.0934,-64.174201 2.0046,-3.63655 4.1462,-7.00997 4.7592,-7.496494 0.613,-0.486523 4.4376,-1.591577 8.4992,-2.455674 25.1111,-5.342422 71.4128,-18.077078 90.2394,-24.819108 5.5322,-1.981151 18.4638,-8.455185 33.51,-16.776352 47.0709,-26.032165 57.7155,-29.641917 89.6671,-30.407722 27.4342,-0.65753 59.1048,-4.066101 85.59,-9.2116505 l 11.0065,-2.13835604 12.0705,3.61340124 c 26.9724,8.0744933 63.0754,21.4261013 83.226,30.7786773 14.7476,6.844802 37.3273,23.504898 57.087,42.120726 43.9446,41.400663 77.2299,99.916413 90.9143,159.828243 6.1785,27.05051 20.3267,61.26714 39.5831,95.73006 17.6095,31.51549 36.0191,58.8773 82.9158,123.23662 57.6712,79.14592 82.594,122.17151 101.8993,175.91416 6.1333,17.07418 22.9514,49.28542 44.4889,85.20819 33.9404,56.60981 73.3141,108.59809 120.8924,159.62383 28.0236,30.0543 40.2349,60.12443 51.9863,128.0172 7.2338,41.7929 8.7688,49.8872 12.1041,63.826 3.1495,13.1624 3.3683,13.6848 8.3129,19.8461 12.3523,15.3918 17.6421,31.8554 14.0682,43.7842 -2.168,7.236 -9.1666,13.0252 -17.3232,14.3295 l -3.777,0.604 v 4.8026 c 0,5.1001 1.8108,15.6509 6.4232,37.423 5.9232,27.9604 4.4812,42.7539 -5.8486,60 -0.7603,1.2692 -4.3542,11.6538 -7.9865,23.0769 -17.6429,55.484 -35.2927,98.179 -67.1603,162.4616 -14.6746,29.6011 -15.589,31.1796 -21.39,36.923 -10.6715,10.5657 -22.0707,14.1548 -29.7945,9.3812 -5.2713,-3.2578 -7.8164,-9.4931 -9.4821,-23.2306 -0.7693,-6.3444 -2.6343,-19.6352 -4.1444,-29.5352 -4.3269,-28.3663 -5.5706,-39.1803 -6.1569,-53.5384 -1.1743,-28.7543 4.0018,-51.2337 15.9894,-69.44 4.8054,-7.2984 5.1473,-8.2303 7.7108,-21.0216 5.2072,-25.9822 5.9171,-33.9032 5.957,-66.4615 0.03,-23.8466 -0.3046,-32.556 -1.6277,-42.4616 -2.2801,-17.0714 -6.434,-37.1198 -10.7479,-51.8721 -3.5165,-12.0256 -3.5961,-12.616 -3.0919,-22.9279 1.5345,-31.3866 -7.78,-67.3735 -24.3021,-93.8903 -4.7353,-7.59991 -5.0058,-7.62798 -10.8763,-1.1301 -6.3133,6.988 -8.6603,15.4452 -11.1761,40.272 -0.7796,7.6945 -2.2148,17.0407 -3.1892,20.7693 -4.1014,15.6934 -10.949,70.8974 -14.295,115.2407 -2.6078,34.5604 -3.3322,103.3997 -1.462,138.9231 3.384,64.2764 10.4406,119.407 23.5347,183.8676 2.2884,11.2656 4.5801,24.1425 5.0925,28.6153 1.3499,11.7811 1.1444,38.4944 -0.4636,60.2863 -3.2811,44.4676 -3.3015,68.472 -0.072,85.1211 1.173,6.0474 2.0632,8.011 5.9046,13.0228 8.5622,11.171 13.631,22.1675 17.0183,36.9199 1.5773,6.8693 1.9559,11.6222 1.9983,25.09 0.062,19.5209 -1.7973,33.7242 -9.1063,69.5818 -3.1144,15.2787 -5.6541,30.508 -7.3305,43.9567 -0.7595,6.0923 -2.4302,17.7231 -3.7128,25.8461 -10.818,68.5173 -10.1644,144.5637 1.8567,216.0001 4.796,28.5001 13.9801,66.7641 22.045,91.8461 1.2244,3.8077 2.7041,11.4923 3.2883,17.0769 2.5064,23.9595 10.0931,62.598 17.0925,87.0514 l 3.2514,11.359 -2.8093,5.2563 c -8.5275,15.9552 -24.4086,31.2314 -41.3466,39.7715 -15.1868,7.6573 -30.7412,10.8185 -49.0392,9.9666 -12.3275,-0.574 -19.7945,-2.1469 -27.32,-5.7548 -7.2592,-3.4803 -16.191,-4.4478 -30.2214,-3.2734 -33.1734,2.7768 -43.2162,0.052 -50.3105,-13.653 -2.6983,-5.2125 -3.0065,-6.608 -3.0065,-13.6123 0,-15.7179 3.45,-26.4965 18.4279,-57.5728 14.2473,-29.5605 17.2657,-38.911 18.1048,-56.0867 0.2854,-5.8436 1.7098,-13.7768 4.5016,-25.0732 13.9103,-56.2831 22.7276,-115.316 26.413,-176.8401 1.3595,-22.6941 1.3589,-81.9593 0,-103.8462 -2.2349,-35.9711 -5.3572,-65.1748 -10.2935,-96.276 -4.046,-25.4926 -6.019,-44.2261 -9.644,-91.5701 -4.9477,-64.619 -8.5086,-92.3685 -15.4704,-120.5565 -2.9269,-11.8508 -3.4136,-12.9922 -8.6601,-20.3077 -39.1427,-54.5794 -69.1402,-117.5449 -86.1484,-180.8281 -2.1149,-7.8693 -6.6835,-21.7846 -10.1524,-30.9231 -20.7191,-54.5839 -40.4188,-117.2588 -52.6109,-167.3835 -1.7918,-7.3665 -2.2817,-8.4279 -3.3822,-7.3273 -2.9465,2.9466 -22.3335,36.7393 -31.6524,55.1723 -36.6226,72.4398 -57.0236,144.6482 -64.8083,229.3846 -3.343,36.3896 -0.3579,122.3 5.6129,161.5385 4.7394,31.1458 5.1018,34.8283 5.0433,51.2308 -0.051,14.3637 -0.3233,17.1485 -2.4556,25.1296 -3.035,11.36 -8.2559,21.3887 -15.8257,30.3994 -3.2656,3.887 -9.9641,13.2332 -14.8855,20.7692 -4.9214,7.536 -21.3051,31.9787 -36.4082,54.3172 -40.0876,59.2925 -57.0186,86.8279 -72.943,118.6298 -10.5073,20.9838 -17.7032,38.3023 -25.1097,60.4318 -6.1153,18.2713 -6.4589,19.7393 -6.0638,25.8966 0.8161,12.7172 8.4064,23.3631 23.7109,33.2561 4.3623,2.8198 12.4634,8.0378 18.0023,11.5956 18.8256,12.0918 24.2078,19.6261 36.8433,51.5747 14.6124,36.9473 21.4073,70.8581 22.4875,112.2246 0.3059,11.7159 0.2861,22.7414 -0.044,24.5011 -0.5483,2.9225 -1.1787,3.4515 -7.2866,6.1143 -3.6775,1.6032 -12.1542,5.4283 -18.8371,8.5001 -29.3693,13.4995 -45.8668,15.7591 -60.9278,8.3445 -8.0186,-3.9475 -12.9832,-9.8613 -24.4645,-29.1422 -15.3694,-25.8103 -42.2827,-66.4647 -51.8817,-78.371 l -2.2185,-2.7517 -1.5442,3.6747 c -2.8967,6.8934 -5.0378,16.585 -7.8603,35.5798 -4.0582,27.3093 -6.3465,34.6767 -13.9233,44.8274 -6.7101,8.9896 -16.5309,13.8836 -43.2145,21.535 -36.3566,10.4251 -73.0326,14.7021 -110.6226,12.9002 -17.8199,-0.8542 -25.2523,-1.7106 -44.5765,-5.1365 -15.4898,-2.7462 -16.7213,-3.5006 -21.4733,-13.1529 -2.419,-4.9138 -2.8957,-6.9358 -2.8312,-12.0088 0.1504,-11.8435 6.7157,-24.0542 19.5008,-36.269 11.3798,-10.8722 19.0471,-15.6396 37.5729,-23.3626 26.0002,-10.8388 46.4506,-27.6186 62.2155,-51.0487 5.262,-7.8204 12.2735,-22.1009 15.2395,-31.0384 1.3663,-4.1173 3.7628,-8.956 5.4862,-11.0769 8.1242,-9.9987 11.2202,-18.773 11.1,-31.4584 -0.1324,-13.974 -4.165,-23.3188 -14.7494,-34.1788 -2.4874,-2.5521 -9.2116,-10.0896 -14.9427,-16.7498 -21.8365,-25.3768 -53.6249,-54.8566 -111.0973,-103.0286 -15.5576,-13.0402 -35.2807,-29.8421 -43.8291,-37.3377 -19.2648,-16.8919 -51.6549,-48.5603 -57.1668,-55.8927 -12.5844,-16.741 -21.8993,-41.378 -25.9376,-68.6027 -2.2468,-15.1467 -2.2588,-50.1264 -0.024,-68.6712 1.9658,-16.3104 5.3206,-35.9967 8.948,-52.508 2.352,-10.7058 3.6346,-14.2157 9.6132,-26.3077 10.071,-20.3691 15.425,-38.0811 18.1172,-59.9343 1.4239,-11.5594 0.6276,-39.5215 -1.4641,-51.4039 -2.9625,-16.8299 -1.0418,-32.1895 8.2941,-66.3258 5.1992,-19.0104 7.38,-29.1223 8.3175,-38.5643 l 0.5619,-5.6595 -3.9565,-0.5286 c -27.8423,-3.7198 -69.8982,0.3801 -103.87964,10.1269 l -4.84615,1.39 -0.009,15.8576 c -0.024,39.9528 -4.35535,102.052 -10.48098,150.2645 l -2.06511,16.2531 -4.23628,4.9776 c -7.06228,8.2983 -14.46083,20.0287 -20.60566,32.67 -9.31311,19.1595 -14.35615,37.6512 -16.09864,59.0293 -0.80511,9.8783 -1.12025,11.0985 -4.12837,15.9865 -4.3044,6.9945 -7.37336,14.7358 -9.41936,23.76 -1.42837,6.3001 -1.72827,12.975 -2.05283,45.6858 -0.20907,21.0692 -0.22089,44.1231 -0.0268,51.2308 0.88191,32.2123 0.30157,65.4603 -1.36154,78 -4.49055,33.8589 -12.67603,64.1368 -25.34845,93.7634 -7.40425,17.3104 -13.56352,39.9918 -19.03131,70.0827 -5.79264,31.8787 -9.08531,61.5394 -14.34601,129.2308 -4.10579,52.8306 -6.45751,77.8032 -9.30134,98.7692 -4.82776,35.5926 -11.49745,67.9137 -15.76116,76.3783 -4.32615,8.5885 -5.42237,14.4463 -5.39252,28.8157 0.0148,7.1279 0.42537,18.3599 0.91233,24.9599 1.53408,20.7913 -1.13161,33.2921 -8.95476,41.9933 -6.35084,7.0637 -11.22725,9.9362 -24.59423,14.4873 -34.93328,11.894 -76.92861,17.6135 -110.31039,15.0236 z M 1402.3453,1959.795 c 3.5502,-1.3498 7.9975,-6.6018 9.9031,-11.6947 0.9841,-2.6304 4.4655,-8.8866 7.7364,-13.9029 31.0249,-47.5806 50.6113,-101.2158 58.2756,-159.582 3.0329,-23.0961 3.66,-46.0821 1.9676,-72.1126 -7.3851,-113.58 -19.8705,-225.7084 -37.5038,-336.8105 -6.8296,-43.0308 -6.6246,-42.3571 -12.185,-40.0639 -4.4579,1.8385 -10.706,8.001 -13.2976,13.1153 -3.3058,6.5235 -5.5267,16.1468 -7.2087,31.2352 -1.7641,15.825 -3.4073,24.4752 -5.9422,31.2832 -3.1162,8.369 -5.3953,19.7469 -7.9445,39.661 -1.3323,10.4077 -2.8457,21 -3.3631,23.5385 -4.246,20.8315 -12.1366,34.4463 -23.9896,41.3927 -3.5151,2.0599 -4.6922,3.5161 -7.0283,8.6946 -5.7923,12.8399 -7.6802,21.7118 -10.9089,51.2654 -3.2444,29.6961 -6.5881,43.9976 -12.633,54.0318 -1.7668,2.9329 -1.7939,3.4731 -0.577,11.5385 0.7022,4.6539 1.2742,14.0693 1.2713,20.9231 -0.01,15.2016 -2.1676,23.3359 -7.9422,29.8962 -4.4005,4.9992 -8.7761,6.809 -19.103,7.9015 -4.4145,0.467 -9.7962,1.4828 -11.9595,2.2576 -8.6181,3.0861 -17.616,11.4933 -30.2371,28.2524 -4.0146,5.3308 -10.2791,12.6 -13.9212,16.1538 -7.6905,7.5044 -15.9556,19.7702 -23.0136,34.1539 -6.466,13.1771 -8.983,22.4656 -9.0047,33.2308 -0.031,15.266 3.675,24.4503 17.3192,42.923 4.6874,6.3462 13.8226,19.6305 20.3003,29.5207 14.6671,22.3935 22.5988,32.9396 31.8275,42.3184 15.3708,15.6207 30.7985,23.0114 51.2782,24.5652 10.4892,0.7956 12.2465,1.3284 26.3077,7.9746 18.708,8.8427 25.52,10.6417 31.5761,8.3392 z"
       id="path36"
       inkscape:connector-curvature="0" />
    <path
       style="fill:#494949;fill-opacity:1;stroke-width:0.92307693"
       d="m 693.69227,2496.0131 c -39.00669,-2.8262 -70.4049,-13.7112 -96.68211,-33.5171 -7.55369,-5.6933 -9.49051,-9.7303 -9.43531,-19.6663 0.0304,-5.4713 0.52717,-7.5518 3.00522,-12.5854 3.37001,-6.8455 11.74874,-15.3601 21.45769,-21.8058 9.51497,-6.3169 36.52838,-19.2381 45.65451,-21.8377 19.8624,-5.6578 36.72327,-17.0006 48.68945,-32.7546 5.79156,-7.6249 13.05752,-22.4388 15.39356,-31.3846 0.99431,-3.8077 4.90384,-13.5693 8.68783,-21.6923 34.92404,-74.9712 54.41812,-152.6558 59.76204,-238.1539 1.34349,-21.4948 0.58313,-73.4639 -1.36408,-93.2308 -0.75018,-7.6154 -1.80935,-18.4154 -2.3537,-24 -0.54436,-5.5846 -1.60676,-19.5 -2.36088,-30.923 -3.06618,-46.4449 -9.71623,-90.3832 -21.16564,-139.8462 -3.25251,-14.0513 -4.26438,-20.5668 -5.08909,-32.7692 -3.33155,-49.2935 -9.96389,-94.5156 -23.01454,-156.9231 -3.60955,-17.2607 -4.14818,-29.8171 -4.29623,-100.1539 -0.16379,-77.8163 -0.95248,-95.0343 -5.58122,-121.8461 -1.9995,-11.582 -5.95048,-28.1539 -6.7123,-28.1539 -0.3491,0 -3.53353,2.1201 -7.0765,4.7112 -15.969,11.6786 -41.70846,25.102 -62.28793,32.4837 -11.07432,3.9722 -33.10085,9.9843 -41.29931,11.2725 -2.15308,0.3384 -5.57516,1.4174 -7.60462,2.398 -7.0924,3.4266 -14.64691,4.7752 -24.0185,4.2877 -10.62427,-0.5528 -18.74468,-3.3704 -27.29224,-9.4698 -6.88884,-4.9157 -11.15602,-9.8954 -15.87044,-18.5201 -4.10321,-7.5067 -8.01367,-10.5478 -13.56297,-10.5478 -5.08744,0 -10.15647,3.2847 -21.39147,13.8615 -11.70343,11.0179 -16.1693,14.0258 -21.59799,14.5474 -3.77828,0.3631 -4.70124,0.079 -7.2486,-2.2272 -1.60548,-1.4537 -4.26095,-4.6988 -5.90106,-7.2112 -6.14054,-9.4064 -46.28378,-45.0993 -73.13586,-65.0279 -7.61538,-5.6518 -17.02098,-13.0227 -20.90134,-16.3799 -18.22362,-15.766 -36.62833,-25.7292 -58.127,-31.466 l -9.58704,-2.5582 -2.30769,-4.6154 c -2.28206,-4.5642 -2.30495,-4.8454 -2.06125,-25.3253 0.31555,-26.5171 -0.14829,-28.4422 -8.90784,-36.9705 -3.39619,-3.3065 -7.0842,-7.4982 -8.1956,-9.3149 -3.59085,-5.8695 -9.53703,-6.8951 -20.98916,-3.6201 -18.47049,5.2822 -22.86716,0.5065 -32.82816,-35.6572 -8.90673,-32.3362 -15.51728,-43.2872 -31.00816,-51.368 -11.86991,-6.192 -25.91451,-23.6099 -34.17876,-42.388 -10.45352,-23.7527 -14.70067,-49.90166 -16.91216,-104.12523 -1.10908,-27.19372 -2.31719,-44.81335 -4.1456,-60.46154 -6.47017,-55.37398 -5.91294,-131.62794 1.4363,-196.54873 l 1.87337,-16.54873 8.38139,-18.98973 c 11.0095,-24.94424 21.89218,-51.44555 31.76509,-77.35383 9.59331,-25.17453 21.6167,-58.95262 21.6167,-60.72919 0,-1.69627 -9.88097,-8.6306 -18.31373,-12.85232 -15.48469,-7.75216 -32.34655,-11.91038 -71.22473,-17.56437 -27.678742,-4.02527 -42.497361,-7.01392 -54.865187,-11.06532 -25.229774,-8.26466 -42.136057,-21.22406 -54.342405,-41.6558 -2.5551739,-4.27702 -3.7164881,-7.68777 -4.871579,-14.3077 -4.4068003,-25.25579 4.3848934,-51.17114 27.447612,-80.90753 8.430201,-10.86967 48.960854,-52.17468 57.093098,-58.18391 16.173101,-11.95091 31.099511,-15.80643 75.692301,-19.5515 25.09184,-2.10731 34.54546,-3.6161 46.39277,-7.40428 12.63826,-4.04108 18.62735,-5.23903 38.99184,-7.79924 20.72524,-2.60555 30.40437,-4.85593 38.53149,-8.95849 10.51799,-5.30947 18.33753,-15.02867 21.07483,-26.19472 1.88461,-7.68771 6.30851,-15.32205 12.73778,-21.98161 7.03452,-7.2865 13.30831,-11.3382 33.75987,-21.80256 17.10618,-8.75264 23.77985,-13.07223 31.43449,-20.34623 6.90984,-6.56624 14.2914,-9.35678 24.75064,-9.35678 12.71582,0 22.22394,3.59488 47.03946,17.78492 16.78898,9.6003 26.68832,14.03561 35.03112,15.6954 8.91195,1.77303 30.19946,15.22968 53.59583,33.87997 21.32102,16.99595 57.7438,55.28256 66.15782,69.54325 2.36326,4.00544 4.85314,15.36777 7.37548,33.65734 4.18761,30.36448 6.7925,35.7572 25.56541,52.9263 11.18303,10.22764 23.47895,34.86329 28.79487,57.69231 5.62853,24.17154 7.12388,49.91062 5.81857,100.15385 -0.68102,26.21364 -0.65482,43.30949 0.0932,60.82625 0.80158,18.77038 0.78312,26.93031 -0.0804,35.53846 -1.92867,19.22572 -6.60232,36.74832 -14.42875,54.09683 -2.44995,5.43068 -4.35592,11.36319 -5.00635,15.58269 -1.62391,10.53458 -4.8673,19.07708 -16.16333,42.57115 -16.57412,34.47173 -15.74881,31.19014 -15.7863,62.76923 -0.016,13.45385 -0.39173,31.73077 -0.83502,40.61539 -0.69302,13.88995 -0.59351,16.88396 0.71009,21.36354 2.63974,9.07095 8.90932,12.77197 19.52278,11.52456 7.04983,-0.82857 7.40236,-1.07157 9.96925,-6.87204 4.52098,-10.21618 5.60909,-14.66594 12.62526,-51.63022 1.56581,-8.24931 4.00903,-18.42624 5.42939,-22.61538 1.42036,-4.18914 6.58509,-19.50923 11.47716,-34.04467 15.31293,-45.49814 28.08499,-77.05752 44.96625,-111.11041 38.75336,-78.17325 87.44268,-134.08371 145.83904,-167.4685 17.59052,-10.05638 43.6112,-32.51347 69.57267,-60.04451 45.98991,-48.77049 82.66404,-107.90712 106.29964,-171.40703 6.6726,-17.92663 8.8398,-21.78725 19.1524,-34.11658 8.7819,-10.49948 18.4799,-20.23632 43.7591,-43.93454 29.9832,-28.10801 41.002,-40.53835 52.3138,-59.014962 l 5.7485,-9.38959 15.6539,-3.535758 c 33.2745,-7.515752 81.9814,-21.684777 92.2692,-26.841477 3.0462,-1.52686 15.2701,-8.193349 27.1643,-14.814418 31.0552,-17.28726 46.8414,-24.010696 63.1036,-26.876206 4.1681,-0.73444 15.6783,-1.570325 25.5783,-1.857523 26.6575,-0.773333 51.3473,-3.4033348 80.6102,-8.5867442 16.1448,-2.85978147 13.2761,-3.30384752 44.4667,6.8834534 33.7704,11.0298918 68.0339,25.1700468 79.1179,32.6510838 68.2724,46.079276 117.0899,117.752391 134.1583,196.968681 3.8427,17.83495 16.2548,49.20677 30.3123,76.61539 18.9806,37.00731 36.2712,63.20895 97.1579,147.23077 53.5214,73.85783 78.5822,117.68696 96.3237,168.46154 8.1641,23.36513 40.7522,81.57995 69.9756,125.00296 28.4578,42.28572 63.7589,86.36966 97.6242,121.91282 24.8884,26.12154 38.0533,58.6945 48.876,120.93038 7.4011,42.55948 9.8712,55.56288 13.0255,68.56968 3.0219,12.4604 3.651,14.0657 7.2371,18.4679 9.6839,11.8881 15.0318,23.3202 15.932,34.0579 0.7181,8.5648 -0.944,14.0027 -5.7481,18.8069 -3.5966,3.5966 -10.4852,6.8668 -14.4645,6.8668 -2.6891,0 -2.1553,9.2355 1.5738,27.2308 1.7886,8.6308 3.9349,19.0154 4.7696,23.0769 0.8982,4.3712 1.5445,12.0932 1.5838,18.9231 0.076,13.189 -1.7188,20.6515 -7.1031,29.5385 -1.7871,2.9496 -5.1207,11.6523 -7.9556,20.7692 -10.3255,33.2051 -27.8108,79.471 -43.0843,114 -5.2019,11.7601 -18.5593,39.3292 -38.448,79.3552 -6.4202,12.9208 -20.246,23.104 -31.3705,23.1056 -4.6361,7e-4 -5.6896,-0.3628 -8.6924,-2.9992 -4.8533,-4.2613 -6.487,-8.742 -8.1644,-22.3931 -0.8104,-6.5953 -2.6889,-19.8839 -4.1742,-29.53 -1.4854,-9.6462 -3.3443,-22.7308 -4.1309,-29.0769 -5.1736,-41.7388 -0.8781,-70.8869 13.7154,-93.0686 3.2516,-4.9424 5.4455,-9.5185 6.3805,-13.3088 8.1782,-33.1533 10.5312,-81.1956 5.776,-117.9303 -2.082,-16.0835 -6.2541,-36.2199 -10.3275,-49.8462 -3.4127,-11.4161 -3.4469,-11.6902 -3.2194,-25.8462 0.4336,-26.9845 -4.689,-52.073 -15.2618,-74.7462 -4.2943,-9.2092 -11.9282,-22.7501 -13.3055,-23.6013 -1.2391,-0.76581 -9.0914,6.8895 -11.0947,10.8164 -2.9361,5.7551 -4.4895,13.2834 -6.443,31.2235 -1.0228,9.3923 -2.6547,19.9846 -3.6265,23.5384 -2.7012,9.8785 -8.3816,50.6139 -11.5203,82.6154 -11.5277,117.5313 -5.4629,233.2638 18.4542,352.1539 2.7576,13.7076 5.4371,28.6615 5.9544,33.2307 1.4465,12.7761 1.1366,36.8981 -0.8283,64.4887 -2.7048,37.9787 -3.0195,47.9127 -1.9529,61.6623 1.6156,20.8272 2.5768,24.4356 8.6069,32.3101 10.0349,13.1043 16.2218,29.5408 18.2867,48.5818 1.9627,18.0993 -0.104,37.301 -8.8439,82.1668 -2.7999,14.373 -5.7276,31.4037 -6.5061,37.8462 -0.7784,6.4423 -2.0089,15.2441 -2.7344,19.5595 -4.1688,24.7985 -7.3041,53.761 -8.7435,80.7692 -4.0659,76.2928 6.2418,159.8675 28.6328,232.1539 2.755,8.8943 4.3596,16.425 5.6054,26.3077 3.6383,28.8637 9.2221,57.2145 16.4703,83.626 l 3.6488,13.2952 -2.8408,5.0779 c -12.8872,23.036 -34.6084,39.8239 -60.6586,46.882 -7.9642,2.1578 -10.4957,2.4027 -24.5713,2.377 -17.0719,-0.031 -22.1796,-0.9819 -34.6154,-6.4442 -5.9433,-2.6106 -6.1394,-2.6317 -20.7692,-2.2384 -31.8813,0.8571 -40.2294,0.569 -44.8888,-1.5489 -5.6758,-2.58 -10.6787,-7.7333 -13.5086,-13.9147 -2.1555,-4.7083 -2.2766,-5.7375 -1.8013,-15.3105 0.7773,-15.6501 3.3622,-23.2599 18.6935,-55.0322 13.4852,-27.9466 17.9667,-42.6104 17.9667,-58.7883 0,-2.8139 1.0254,-8.9108 2.2787,-13.5486 3.5888,-13.2806 10.2528,-43.7167 13.7708,-62.8939 16.8269,-91.7293 20.2871,-185.6796 10.2329,-277.8461 -1.673,-15.3359 -2.3413,-20.2507 -6.4649,-47.5385 -3.9472,-26.1207 -6.2454,-48.2431 -9.2055,-88.6154 -4.1195,-56.1826 -7.5547,-84.719 -13.4455,-111.6923 -4.034,-18.4711 -4.8694,-20.6237 -11.7713,-30.3346 -39.1623,-55.1001 -66.352,-112.618 -85.5856,-181.05 -2.6398,-9.3923 -8.2184,-26.0077 -12.3968,-36.9231 -17.1457,-44.7893 -37.8638,-111.1257 -49.9471,-159.923 -1.1001,-4.4424 -2.2606,-8.0744 -2.579,-8.0712 -0.3185,0 -1.2586,1.1456 -2.0893,2.5385 -0.8307,1.3929 -5.0289,8.348 -9.3295,15.4557 -47.0075,77.6924 -75.862,166.0011 -85.2051,260.7693 -2.0012,20.2968 -2.7986,71.7248 -1.41,90.923 0.5875,8.1231 1.4545,23.077 1.9264,33.2308 0.8679,18.668 1.719,26.432 5.9198,54 4.9292,32.3475 5.1909,51.3248 0.936,67.8462 -2.1395,8.3071 -9.0251,21.5625 -14.2403,27.4139 -2.5434,2.8537 -13.8853,19.0375 -25.204,35.9642 -11.3188,16.9266 -28.7143,42.8219 -38.6567,57.5449 -49.8009,73.7474 -75.1311,122.0295 -89.8533,171.2696 -2.9437,9.8457 -3.3726,12.406 -3.0076,17.9531 0.8305,12.6205 8.6767,22.9241 25.7593,33.8268 35.3822,22.5822 36.0964,23.3182 47.2992,48.7426 13.76,31.2274 22.4101,63.0905 26.4527,97.4387 1.3144,11.1689 2.2407,43.9932 1.4256,50.5178 -0.5343,4.2759 -1.0269,5.359 -2.671,5.8735 -1.1087,0.3468 -7.8312,3.3214 -14.9389,6.6101 -30.7236,14.2159 -44.226,17.9217 -57.6923,15.8347 -15.2838,-2.3688 -21.6933,-8.3417 -37.5629,-35.0035 -15.7728,-26.4992 -48.7695,-76.0049 -51.9825,-77.9908 -2.3138,-1.43 -6.8467,15.2467 -9.7679,35.937 -4.2209,29.8961 -8.2111,41.5673 -17.3111,50.634 -6.0203,5.9984 -11.0026,8.6698 -25.0679,13.4411 -35.5571,12.0618 -70.4103,17.713 -109.2736,17.7179 -25.4619,0 -39.7976,-1.2848 -64.1177,-5.7611 -10.7988,-1.9876 -10.9671,-2.0574 -14.0592,-5.8309 -11.765,-14.3575 -8.8038,-32.4599 8.3371,-50.9676 11.0602,-11.942 23.2661,-20.0348 40.6519,-26.9528 36.5531,-14.5449 65.2893,-44.7887 78.5538,-82.6748 1.4806,-4.229 4.1156,-9.3335 6.1664,-11.9453 15.3538,-19.5543 14.1601,-45.3252 -2.9249,-63.1473 -2.849,-2.9718 -9.884,-10.8387 -15.6335,-17.482 -13.6069,-15.7224 -46.1595,-47.6365 -67.1156,-65.7992 -9.1216,-7.9057 -29.877,-25.532 -46.1231,-39.1695 -41.9249,-35.1931 -57.3128,-48.9492 -79.4694,-71.0428 -20.694,-20.6351 -24.2835,-25.2361 -31.71,-40.6446 -19.9901,-41.4765 -21.7471,-96.1034 -5.4776,-170.3077 2.3855,-10.8802 3.6067,-14.2186 9.6235,-26.3077 7.6831,-15.4373 12.1967,-28.3651 15.7404,-45.0837 3.6023,-16.9946 4.1206,-42.0909 1.2931,-62.6061 -3.1977,-23.2009 -2.1674,-32.9441 7.0383,-66.5572 5.6709,-20.7064 8.2075,-32.1995 9.1508,-41.4615 l 0.6283,-6.17 -3.5626,-0.7068 c -1.9593,-0.3888 -13.324,-0.6929 -25.2548,-0.6756 -22.5224,0.032 -35.39,1.208 -54.5613,4.9837 -8.9418,1.7611 -12.2542,2.5822 -24.44425,6.0589 l -4.69782,1.34 -0.61024,27.4391 c -1.07659,48.4044 -5.35939,104.2279 -11.22416,146.3014 -1.18671,8.5136 -1.47157,9.2596 -5.11034,13.3846 -5.52812,6.267 -14.79129,20.5267 -19.75338,30.4087 -9.87794,19.6718 -15.126,38.3356 -17.21418,61.2187 -0.99037,10.8524 -1.2457,11.8128 -4.63459,17.4317 -4.31917,7.1612 -6.60175,13.0587 -8.81667,22.7793 -1.4184,6.2249 -1.71471,12.8703 -2.01305,45.1455 -0.49255,53.2807 -0.49782,51.9158 0.30323,78.4616 1.59628,52.8943 -6.8396,97.4929 -27.66582,146.2632 -5.66736,13.2716 -9.93894,27.8408 -14.76294,50.3522 -8.30898,38.7742 -11.83596,67.5314 -18.00079,146.7692 -6.1589,79.1617 -9.28091,106.4211 -16.28084,142.1539 -3.37677,17.2375 -6.70683,30.0387 -8.64449,33.2307 -5.4155,8.9212 -6.80748,21.3499 -5.22079,46.6154 1.92192,30.6036 0.091,40.672 -9.22618,50.7356 -6.00463,6.4858 -12.18161,9.8195 -27.11374,14.6339 -34.44979,11.107 -73.29748,16.3086 -104.76923,14.0282 z M 1405.6342,1957.997 c 1.7707,-1.2608 4.0266,-4.4749 5.7982,-8.2611 3.5448,-7.575 2.8745,-6.4114 12.0486,-20.9171 34.1231,-53.9539 53.7331,-116.8111 57.3233,-183.7419 0.9304,-17.347 0.8234,-22.635 -1.0178,-50.3077 -7.6139,-114.4292 -20.5739,-228.2707 -38.4597,-337.8322 -4.7646,-29.1863 -5.4824,-32.3216 -7.3992,-32.3216 -2.4833,0 -8.1606,3.4577 -11.6181,7.0757 -6.9318,7.2537 -9.8591,16.6437 -12.7554,40.9161 -1.9553,16.3857 -3.4335,23.6857 -6.0775,30.0136 -2.2645,5.4198 -4.7309,17.8872 -6.8467,34.61 -3.6714,29.0175 -5.7832,38.4003 -11.1587,49.5813 -3.9623,8.2415 -10.4663,15.6236 -16.4587,18.6807 -4.1872,2.1362 -5.6819,4.2712 -9.2125,13.1592 -3.8905,9.7937 -6.1689,21.5217 -8.8393,45.5019 -3.5737,32.0908 -5.4696,40.9443 -11.2079,52.3392 l -3.3088,6.5701 1.4731,11.6223 c 2.4363,19.2219 1.3342,32.8209 -3.4144,42.1302 -4.6157,9.0486 -9.7992,12.0176 -23.1945,13.2849 -15.5065,1.467 -23.5795,7.2539 -40.5983,29.1015 -5.129,6.5842 -11.7559,14.2688 -14.7266,17.0769 -6.1755,5.8375 -16.501,20.8269 -22.2749,32.3364 -11.1238,22.1738 -13.0356,38.5122 -6.5289,55.7988 2.5736,6.8377 6.3152,12.9346 14.6055,23.8002 3.2232,4.2243 12.7486,18.0543 21.1675,30.7332 8.4188,12.6788 18.6253,27.009 22.6809,31.8449 17.0367,20.314 33.8463,30.2014 55.0161,32.3605 14.5989,1.4889 17.848,2.3686 29.1966,7.9049 15.7988,7.7073 21.6639,9.6748 27.7527,9.3104 3.4616,-0.2072 6.0826,-0.9807 8.0354,-2.3713 z"
       id="path34"
       inkscape:connector-curvature="0" />
    <path
       style="fill:#333333;fill-opacity:1;stroke-width:0.92307693"
       d="m 694.59759,2495.9245 c -28.9028,-1.7538 -53.97216,-8.3213 -76.11376,-19.9399 -9.6378,-5.0574 -21.30925,-12.8112 -26.06523,-17.3162 -3.15842,-2.9918 -4.77295,-8.4975 -4.77692,-16.2896 -0.008,-16.3607 14.98741,-30.8603 48.44392,-46.8407 8.32983,-3.9788 18.05283,-7.9676 21.60667,-8.864 8.6132,-2.1725 23.50963,-9.4298 30.92308,-15.0651 16.3689,-12.4428 27.33252,-28.8194 33.52046,-50.0705 1.25658,-4.3154 5.39929,-14.4923 9.20605,-22.6154 28.72047,-61.2854 48.5731,-132.6907 56.01045,-201.4566 2.86038,-26.4469 3.69601,-42.5701 3.69601,-71.3126 0,-28.1823 -0.78561,-43.7543 -3.60918,-71.5385 -0.98028,-9.6462 -2.24607,-25.4308 -2.81286,-35.0769 -2.72059,-46.302 -10.24938,-96.7926 -21.67868,-145.3846 -2.80026,-11.9054 -4.19385,-20.1519 -4.60177,-27.2308 -2.57348,-44.6589 -10.77845,-102.8772 -21.7177,-154.0977 -5.42103,-25.3827 -5.89141,-34.1366 -6.05432,-112.6715 -0.15751,-75.9297 -0.73871,-88.1336 -5.58304,-117.2308 -1.59222,-9.5636 -5.87638,-28.1539 -6.48811,-28.1539 -0.22725,0 -6.69379,4.1655 -14.37008,9.2567 -27.70197,18.3726 -58.19871,31.0639 -91.67107,38.1493 -5.58462,1.182 -11.48326,2.8379 -13.10808,3.6794 -4.4819,2.3214 -13.88086,4.2719 -20.58423,4.2719 -11.63265,0 -23.25306,-4.1727 -32.93669,-11.8272 -4.43424,-3.5051 -14.14023,-16.5284 -14.14023,-18.9732 0,-1.3308 -4.19892,-5.4187 -7.09316,-6.9056 -3.05817,-1.5712 -8.26587,-1.2434 -12.20937,0.7684 -1.94518,0.9924 -8.26324,6.2114 -14.04015,11.5977 -19.77673,18.4398 -26.11863,19.6141 -34.57097,6.4009 -6.32349,-9.8851 -43.16793,-42.9525 -71.00942,-63.7299 -9.13846,-6.8198 -19.93846,-15.2931 -24,-18.8296 -17.9179,-15.602 -37.22481,-25.9405 -59.11169,-31.6536 l -8.27292,-2.1593 -2.30769,-4.5614 c -2.28431,-4.5151 -2.30507,-4.7708 -2.04919,-25.2297 0.33344,-26.6599 -0.12835,-28.5701 -8.95063,-37.024 -3.44379,-3.3 -6.92565,-7.2883 -7.73747,-8.8629 -3.29775,-6.3963 -8.03814,-7.4948 -19.49611,-4.5177 -10.21138,2.6531 -14.31688,2.8621 -18.07242,0.9201 -6.20132,-3.2069 -9.23739,-9.9642 -17.17112,-38.2172 -8.4783,-30.1924 -15.67248,-41.8426 -30.42683,-49.2727 -15.05186,-7.58 -30.80259,-29.9696 -39.16459,-55.6723 -6.96296,-21.4025 -10.04732,-45.12418 -11.99114,-92.22345 -1.11391,-26.99032 -2.28093,-43.74569 -4.17901,-60 -3.09718,-26.52277 -3.68438,-41.09021 -3.66502,-90.92307 0.0205,-52.753 0.61656,-64.81115 5.17913,-104.76924 1.75608,-15.37938 2.17417,-17.23338 5.62033,-24.92307 13.24996,-29.56557 29.58262,-69.30218 40.47012,-98.46186 8.1926,-21.942 17.48011,-48.59461 17.48011,-50.16309 0,-3.20933 -18.3289,-13.81767 -32.30769,-18.69895 -12.06391,-4.21261 -26.08163,-7.21748 -50.30769,-10.78406 C 110.12307,479.63668 94.961534,477.28997 88.61538,476.2156 65.789693,472.35131 45.806508,465.16688 32.218919,455.93972 21.807175,448.86924 10.630271,436.35498 5.0665458,425.53847 0.91716589,417.4716 -0.86280747,402.6371 0.91308901,390.92308 5.7100339,359.28188 27.614766,327.8472 75.782726,283.48042 c 21.060638,-19.39863 35.579914,-24.6393 76.986494,-27.78788 31.16716,-2.36997 41.38559,-3.94618 56.68935,-8.74442 11.83994,-3.71221 15.2871,-4.37103 38.84911,-7.42488 20.16664,-2.61378 28.86474,-4.68617 37.08524,-8.83587 11.0163,-5.56101 17.79918,-14.26777 21.87396,-28.07823 2.24748,-7.61728 6.03451,-13.98645 11.97355,-20.13751 6.73569,-6.97615 11.88887,-10.34732 30.69205,-20.07852 19.96244,-10.33114 27.5831,-15.17598 35.41363,-22.51426 6.7728,-6.34703 13.60596,-8.80193 24.50002,-8.80193 11.8802,0 22.16967,3.83431 43.98008,16.38892 7.03403,4.04896 15.37527,8.66492 18.53608,10.25768 6.53654,3.29382 18.85286,7.50725 21.94452,7.50725 2.47972,0 18.57583,9.6156 31.38547,18.74927 30.26994,21.5834 56.85876,46.94566 78.89814,75.25856 8.55647,10.99206 9.79963,14.72423 13.42615,40.30717 3.94782,27.84948 8.01124,38.67004 17.84005,47.5066 10.74288,9.65836 12.07665,11.08602 16.54959,17.71462 22.17236,32.85803 28.2706,67.76552 26.01683,148.92532 -0.78472,28.25825 -0.76261,41.9002 0.0942,58.13186 0.61575,11.66483 0.85063,25.63623 0.52197,31.04756 -1.2126,19.96512 -6.69603,42.03532 -14.65243,58.97443 -2.3787,5.06423 -4.14481,10.59566 -4.98114,15.60087 -1.93806,11.59887 -5.01912,19.754 -15.72797,41.6299 -16.7018,34.11819 -16.43949,33.0966 -16.47223,64.15385 -0.0139,13.2 -0.38673,31.70449 -0.82848,41.12108 -0.70235,14.97195 -0.60917,17.70516 0.74229,21.77402 1.67134,5.03193 5.04879,8.87309 9.17158,10.43079 3.26554,1.23381 10.22239,1.25629 14.57547,0.0471 2.93195,-0.81443 3.66424,-1.66494 6.15501,-7.14869 3.89672,-8.57915 5.98777,-16.76229 10.31787,-40.37814 4.55221,-24.82718 4.89577,-26.06635 17.40316,-62.76923 20.0659,-58.8833 35.00084,-94.94281 53.90645,-130.15385 23.27239,-43.34402 45.46167,-73.94362 74.98617,-103.40792 22.50064,-22.45474 41.00665,-36.73611 65.22366,-50.33406 5.39216,-3.02771 14.29819,-9.24501 19.84615,-13.8546 67.89241,-56.40905 119.59073,-127.83304 151.29253,-209.01879 3.1719,-8.12307 6.4858,-16.97749 7.364,-19.67646 0.9582,-2.9444 4.3851,-8.6673 8.5676,-14.30769 6.8967,-9.30051 17.4591,-20.13921 63.5837,-65.24662 21.9158,-21.4325 30.0249,-31.03345 39.2812,-46.507991 l 4.9053,-8.200311 13.3812,-3.011844 c 39.2971,-8.845014 83.3974,-21.791773 96.2647,-28.260998 3.9551,-1.98851 16.209,-8.652347 27.2308,-14.808526 38.8669,-21.70903 55.7029,-27.506996 79.9297,-27.526124 21.0177,-0.0166 52.9028,-3.0522531 79.0329,-7.5244111 25.1032,-4.29640046 21.7138,-4.42079247 40.7588,1.4958689 40.4216,12.5576482 78.4354,28.0486872 93.1089,37.9428332 43.2331,29.151389 81.0322,71.929303 104.6306,118.412263 12.2938,24.21565 19.7779,44.65752 26.9196,73.52771 6.1857,25.00597 14.8849,47.87245 28.7565,75.589 18.2116,36.38797 37.2636,65.99278 83.2325,129.33407 39.5344,54.47508 54.6614,76.56328 70.6027,103.09315 18.9939,31.61006 32.5689,60.14608 42.6704,89.69714 3.0523,8.92936 14.6574,32.23028 27.4207,55.05587 38.419,68.70752 86.4645,134.19807 139.2541,189.81641 15.7515,16.59557 26.5942,35.69646 35.3479,62.27027 5.9243,17.9844 9.9605,35.85535 15.7207,69.6056 5.3091,31.1074 8.1277,45.6398 11.8013,60.8456 2.7804,11.5089 3.0473,12.1096 7.688,17.3106 2.6441,2.9633 6.4788,8.6058 8.5215,12.539 11.3801,21.9115 7.4235,40.0646 -9.6977,44.4935 -2.4359,0.63 -4.8653,1.2678 -5.3987,1.4173 -1.652,0.4629 0.1996,15.4471 4.2164,34.1234 4.8998,22.7816 6.1779,34.4159 4.7733,43.4507 -1.3172,8.4727 -3.8763,15.902 -7.4146,21.5261 -1.4858,2.3616 -4.8836,11.3553 -7.5507,19.9861 -16.219,52.4854 -38.6585,107.5359 -66.4106,162.9231 -6.4866,12.9461 -13.1516,26.4088 -14.811,29.9168 -3.9276,8.3034 -12.2598,16.7386 -20.5805,20.8349 -5.3637,2.6405 -6.8086,2.9629 -11.6964,2.6093 -4.7953,-0.3469 -6.0225,-0.8356 -8.7597,-3.4885 -4.2669,-4.1357 -5.772,-8.9925 -7.8744,-25.411 -0.9752,-7.6154 -3.2397,-23.7854 -5.0323,-35.9334 -6.1491,-41.6719 -6.4002,-62.7359 -1.002,-84.0666 2.5462,-10.0613 8.846,-24.0632 13.9628,-31.0337 2.7838,-3.7923 3.6167,-6.2385 5.8958,-17.3163 8.6738,-42.1588 9.1441,-87.6625 1.3452,-130.162 -1.8178,-9.9061 -6.3072,-28.1592 -8.8796,-36.1034 -1.6768,-5.1779 -1.9146,-7.9162 -1.7354,-19.9862 0.3325,-22.3979 -2.4127,-40.1335 -9.319,-60.207 -3.7198,-10.8114 -13.7919,-31.6042 -17.6267,-36.3881 l -2.0692,-2.58131 -3.2127,2.37511 c -8.0639,5.9617 -11.2101,14.8126 -13.8809,39.0492 -1.0472,9.5023 -2.7159,20.4771 -3.7083,24.3886 -2.0785,8.1923 -7.3721,44.3 -10.0544,68.5805 -9.3362,84.5162 -9.488,168.5576 -0.4591,254.3077 4.0623,38.58 9.6415,74.0968 18.4158,117.2308 2.2204,10.9154 4.5274,24.4154 5.1265,30 1.336,12.4524 0.6442,43.4295 -1.5361,68.7692 -2.1752,25.2831 -2.1679,56.4953 0.017,70.0065 1.6589,10.2615 1.7916,10.5985 6.7236,17.077 6.5025,8.5414 13.4662,22.9838 15.8713,32.9165 5.7795,23.8675 4.6243,44.087 -5.4586,95.5385 -2.4872,12.6923 -5.3759,29.3077 -6.419,36.923 -1.0433,7.6154 -2.7307,19.2462 -3.7498,25.8462 -7.2999,47.2754 -9.7814,82.1215 -8.9072,125.0769 1.3151,64.6183 10.3487,122.5195 28.7312,184.1539 2.7256,9.1384 5.2239,19.5231 5.552,23.0769 2.2538,24.4177 11.6604,71.667 19.0082,95.4793 l 1.8332,5.9408 -4.4076,7.3245 c -17.3958,28.908 -46.0684,45.9852 -79.6384,47.4323 -14.0902,0.6073 -26.2676,-1.2371 -34.9774,-5.2979 -9.0581,-4.2232 -16.1721,-5.0471 -32.6849,-3.7853 -29.0677,2.2212 -35.7525,1.1309 -44.0984,-7.1928 -6.0951,-6.0788 -8.2393,-11.3767 -8.2393,-20.3574 0,-15.3618 3.3956,-25.6306 19.8418,-60.005 5.2224,-10.9154 10.5627,-22.9841 11.8675,-26.8193 2.8561,-8.3958 5.2138,-21.3142 5.2138,-28.5676 0,-3.199 1.8087,-12.7533 4.5642,-24.1098 24.7637,-102.0632 32.8075,-205.2201 24.0196,-308.0394 -1.9931,-23.3203 -5.376,-51.391 -8.2417,-68.3891 -3.9177,-23.2384 -6.287,-45.7576 -9.7196,-92.3825 -4.2886,-58.2514 -7.5479,-84.7614 -13.9563,-113.5168 -3.5562,-15.9579 -4.83,-18.8919 -13.4341,-30.9448 -22.5072,-31.5287 -44.3918,-71.3712 -60.3366,-109.8461 -7.2488,-17.4917 -18.3739,-50.3518 -22.9875,-67.8987 -1.8097,-6.8827 -7.2762,-23.0827 -12.1479,-36 -17.4942,-46.3867 -34.3295,-99.4979 -46.2137,-145.7936 -3.3234,-12.9462 -6.1638,-23.6676 -6.3121,-23.8255 -0.1484,-0.1578 -3.7791,5.4499 -8.0683,12.4615 -49.98,81.7047 -79.3192,169.5207 -88.9143,266.1332 -2.0159,20.2974 -2.7972,72.277 -1.3945,92.7692 0.5908,8.6308 1.4643,24 1.941,34.1539 0.5996,12.7682 1.9985,26.1793 4.5365,43.4877 5.1152,34.8852 6.116,47.6679 4.7707,60.937 -1.8779,18.5231 -7.9499,33.3941 -18.2044,44.5844 -2.593,2.8296 -8.5727,11.1678 -13.2885,18.5293 -4.7157,7.3616 -17.6006,26.677 -28.6332,42.9231 -51.9543,76.5063 -70.7869,107.404 -88.2667,144.8146 -13.0078,27.8396 -24.209,59.351 -25.0019,70.3356 -1.2075,16.728 6.6159,26.8799 33.4432,43.3973 14.4307,8.8849 23.1837,15.6504 27.7112,21.4188 7.1156,9.0661 20.5666,41.0353 27.715,65.8708 4.0834,14.1866 8.2551,35.1383 10.0799,50.6245 1.7804,15.1092 2.8592,44.3777 1.9393,52.6153 l -0.67,6 -18.0396,8.1406 c -9.9217,4.4772 -22.2855,9.5612 -27.4751,11.2978 -22.0186,7.3678 -38.2576,5.2648 -49.8944,-6.4614 -2.9321,-2.9547 -8.6817,-11.4487 -15.6571,-23.1308 -11.1689,-18.7051 -37.1278,-58.2025 -47.5458,-72.3428 -3.6748,-4.9879 -6.0104,-7.4102 -6.5879,-6.8327 -0.4921,0.492 -1.8639,3.7617 -3.0485,7.2658 -2.0469,6.0544 -3.454,13.4702 -7.9407,41.849 -1.9672,12.4422 -5.3701,23.5713 -9.0507,29.5992 -3.4231,5.6064 -11.1653,12.6402 -17.0707,15.5086 -7.4578,3.6225 -25.5892,9.5281 -41.503,13.5179 -26.6476,6.6808 -51.9353,9.7198 -80.9619,9.7297 -21.7427,0.01 -34.7787,-0.9269 -53.0769,-3.8038 -19.4988,-3.0658 -22.7176,-4.0039 -25.6056,-7.4626 -5.067,-6.0684 -7.1637,-11.5903 -7.1637,-18.8672 0,-7.9244 2.0446,-14.0946 7.4326,-22.431 9.7613,-15.1027 25.8996,-27.6923 45.768,-35.7038 39.7546,-16.0304 67.5067,-44.6948 81.2031,-83.8725 1.4812,-4.2369 4.1081,-9.3286 6.1627,-11.9453 12.3761,-15.762 14.2585,-35.2228 5.074,-52.4548 -1.6046,-3.0105 -5.6837,-8.4443 -9.0648,-12.0752 -3.381,-3.6309 -10.559,-11.6397 -15.9509,-17.7973 -25.2597,-28.8465 -49.2221,-50.793 -124.317,-113.858 -36.2207,-30.4184 -68.6333,-60.374 -82.5341,-76.278 -27.897,-31.9169 -38.0642,-83.6739 -29.5369,-150.3606 2.8384,-22.1974 9.843,-56.5344 12.4282,-60.9231 8.8936,-15.0985 16.8639,-35.896 20.724,-54.0767 3.9295,-18.508 4.4226,-43.1755 1.2994,-65.0106 -3.0604,-21.3961 -1.9462,-31.6266 7.0364,-64.6137 6.0204,-22.1089 8.4005,-32.8285 9.2443,-41.6337 0.7673,-8.0073 2.0341,-7.4553 -19.0227,-8.2904 -28.7518,-1.1403 -63.6136,3.3891 -90.02961,11.6969 l -2.85259,0.8972 -0.62455,26.4443 c -0.68428,28.9735 -1.71019,49.3673 -3.86825,76.8944 -1.44572,18.4422 -6.24535,63.5605 -7.79372,73.2649 -0.91772,5.7519 -1.00191,5.9039 -8.65348,15.6331 -18.93249,24.0732 -30.69221,55.852 -33.37061,90.1789 -0.47031,6.0273 -1.11674,8.5952 -2.78852,11.077 -3.26446,4.8461 -7.56462,14.5514 -9.12333,20.591 -2.7816,10.7782 -3.35261,20.0624 -3.25255,52.8869 0.0554,18.2256 -0.2796,35.2744 -0.74465,37.8861 -0.52892,2.9705 -0.50335,7.1182 0.0683,11.0769 1.34723,9.33 1.28077,61.729 -0.0923,72.7898 -4.42737,35.6651 -13.14302,68.632 -26.37438,99.7606 -5.57584,13.118 -7.23762,18.3597 -12.12306,38.2394 -9.59101,39.0275 -14.23557,74.4458 -20.75955,158.3077 -4.03055,51.8103 -6.47989,77.9383 -9.34555,99.6923 -4.6464,35.2722 -11.28043,67.3453 -16.02846,77.4919 -5.67891,12.1359 -6.22059,18.2527 -4.74524,53.5851 0.90624,21.7029 0.31333,26.8464 -4.10605,35.6197 -3.57773,7.1027 -11.13712,13.792 -19.5323,17.2846 -21.09162,8.7744 -56.58085,16.6322 -81.95955,18.1472 -17.83212,1.0645 -22.8822,1.1245 -34.63314,0.4114 z m 710.54491,-537.6312 c 2.4779,-1.6838 4.3546,-4.2847 6.827,-9.4615 1.8752,-3.9267 4.9367,-9.4241 6.8032,-12.2164 31.9826,-47.8473 53.8254,-108.8822 60.4268,-168.8492 3.2869,-29.8582 2.9841,-44.7421 -2.3299,-114.5354 -7.9358,-104.23 -24.071,-234.3601 -40.3259,-325.2272 -0.6208,-3.4711 -2.3448,-3.9664 -6.8048,-1.9552 -7.96,3.5894 -14.1513,12.5775 -16.9364,24.5869 -0.7432,3.2044 -2.2302,13.0485 -3.3045,21.8757 -1.9145,15.7304 -2.9169,20.3959 -7.7313,35.9853 -1.4646,4.7428 -3.627,16.8637 -5.5989,31.3846 -3.759,27.6821 -5.8063,36.6613 -10.6554,46.7345 -3.931,8.1659 -8.9694,13.8907 -16.4583,18.7002 -4.1245,2.6489 -5.3853,4.1457 -7.5926,9.0137 -5.3788,11.8626 -7.9717,24.4438 -10.9746,53.2502 -2.878,27.6088 -5.6295,39.4993 -11.7732,50.8763 l -2.5784,4.775 1.2432,7.3846 c 1.824,10.8346 1.8072,31.9494 -0.03,38.5387 -2.0195,7.2402 -5.6718,13.1695 -10.0786,16.3617 -4.1576,3.0118 -5.3514,3.3367 -16.9561,4.6149 -15.2605,1.6809 -22.7671,7.1736 -39.8854,29.1846 -5.0967,6.5535 -11.7441,14.2679 -14.7719,17.1431 -9.8864,9.3885 -24.2937,33.7427 -29.2003,49.3607 -3.3494,10.6611 -3.9695,19.4603 -2.046,29.0318 2.0656,10.2786 6.1996,18.6225 15.0518,30.3799 4.0135,5.3308 13.6671,19.2461 21.4524,30.9231 7.7852,11.6769 16.6671,24.5538 19.7377,28.6153 11.8831,15.7187 26.5596,28.0561 40.1855,33.7811 6.7096,2.819 19.7295,5.4497 26.9725,5.4497 5.4951,0 13.3729,2.6224 24.3443,8.1038 18.2321,9.1089 26.429,10.6469 32.9887,6.1895 z"
       id="path32"
       inkscape:connector-curvature="0" />
  </g>
</svg>
