<?xml version="1.0" encoding="utf-8"?>
<!-- Generator: Adobe Illustrator 24.1.1, SVG Export Plug-In . SVG Version: 6.00 Build 0)  -->
<svg version="1.1" id="Layer_1" xmlns="http://www.w3.org/2000/svg" xmlns:xlink="http://www.w3.org/1999/xlink" x="0px" y="0px"
	 viewBox="0 0 512 512" style="enable-background:new 0 0 512 512;" xml:space="preserve">
<style type="text/css">
	.st0{fill:#FD4F00;}
</style>
<g>
	<path class="st0" d="M192.3,325.1c-2.3-0.4-3.1-0.6-4-0.7c-28.6-5.3-46.6-22.6-55.2-49.8c-5.3-16.9,4.4-29.4,22.1-30.2
		c14.6-0.7,24.5,7.7,33.3,17.4c11.4,12.5,21.8,25.9,32.9,38.7c16.1,18.3,35,30.1,60.9,26.5c23.2-3.3,43.4-12.6,61-27.9
		c2.6-2.3,5.5-4.3,8.3-6.5c-0.6-0.7-1.2-1.4-1.8-2.1c-14.8,4.6-29.8,6.1-45.2,5.4c-23.3-1.2-45.5-6-65.4-18.8
		c-18.1-11.7-31.5-27.3-37.8-48.2c-5.1-16.9,5.4-28.7,22.9-26.2c6.9,1,12.7,4.1,18,8.5c4.3,3.6,8.3,7.4,12.7,10.9
		c20.4,16.4,48.9,17.3,74.8-0.5c-42.6-0.2-71.6-23.6-97-53.3c-10-11.6-19.7-23.5-29.9-34.9c-19.7-22.1-41.5-41.6-71.4-48.3
		c-38.2-8.5-75-2.9-110.4,13.3c-7.1,3.2-13.8,7-21.1,13c3.6,0,5.6,0,7.5,0c17.8-0.5,31.2,7.5,40.8,22.1c7,10.6,10.3,22.6,12.8,35
		c3.7,18.3,1.8,37,4,55.4c5.6,47.3,29.8,80.4,74.8,97.3C156.5,327.3,173.5,329.3,192.3,325.1z M78.4,109.1c-7.1,1.8-12.8-1.1-18.7-7
		c10-2.5,18.9-3.5,28.4-3.8C87.4,104.4,83.7,107.8,78.4,109.1z M311.7,385.6c-0.6-4.6-4.5-6.6-7.6-8.9
		c-13.5-10.5-29.4-14.3-46.2-14.6c-10-0.2-19.9-0.9-29.4-4.4c-4.3-1.6-9.2-3.7-9.1-9.3c0.1-5.7,5.1-7.3,9.5-8.6
		c3.7-1.1,7.5-1.8,11.7-2.8c-10.6-6.8-21-7.8-34.9-2.2c-21.8,8.8-43.3,7.7-65.1-0.1c-12.3-4.4-23.2-11.4-34.5-17.6l-0.3,0.2l0.3-0.2
		c-0.3-0.9-0.8-0.9-1.4-0.4c0.3,0.3,0.6,0.5,0.9,0.8c9.4,15.4,22.1,27.8,36.5,38.4c27.7,20.4,57.9,32.6,93.2,27.2
		c11.4-1.7,22.9-3.1,34.4-4C284.2,377.9,298,381.9,311.7,385.6z M245.1,164.4c-0.8-0.6-1.5-1.9-3.1-0.5
		c12.7,17.2,29.1,29.9,48.7,37.9c31.7,12.9,64,15.1,96.9,3.7c25.6-8.8,44-0.2,53.5,24.6c1.4-28.8-15.6-49.8-42.6-54
		c-15.2-2.3-29.2,2.7-43.5,6.9C315.5,194.5,278.7,188.8,245.1,164.4z M442.5,276.8c5.2,0.4,10.3,0.9,15.5,1.4
		c-11.7-10.2-25.9-11.1-40.3-10.2c-21.9,1.2-37.7,13.9-52.1,29c-12.7,13.3-24.1,28.2-43,33.6c0.3,0.6,0.4,0.9,0.5,0.9
		c2.5,0,5.1,0.2,7.6,0c27.5-1.2,53.3-7,73.9-27c6.5-6.3,12.3-13.3,18.5-19.8C428.5,279.2,434.8,276.2,442.5,276.8z M378.7,242.8
		c-20.5,1.8-38.3,10.3-55,21.5c-12.9,8.6-26.6,12.7-42.1,10c-2.7-0.5-5.5-0.8-8.2-1.2c0,0.4-0.1,0.8-0.1,1.1c1,0.5,1.9,1.1,3,1.5
		c2.6,1,5.1,2.2,7.8,2.9c29.8,7.1,58.3,3.5,84-13.1c16.2-10.5,33-12.4,51.1-9.7c1.8,0.3,3.7,0.6,5.5,0.8c1.7,0.2,3.5,1.9,5.8,0
		C414.6,244.9,397.5,241.1,378.7,242.8z M305.5,173.2c10.8,0.4,21.5-1,32.7-7.7c-3.3,0.3-4.7,0.3-6,0.6
		c-15.5,3.1-29.4-0.3-41.8-10.1c-4.5-3.6-9.2-7.1-13.8-10.6c-18.3-14-39.2-18.6-62.1-18.2c0.4,1.1,0.4,1.9,0.8,2.3
		C240.2,154.6,269,171.9,305.5,173.2z M485.7,302.5c-15.4-15.3-36.1-17.3-55.2-3.9c12.7,0.6,22.2,4.6,29.9,12.6
		c2.7,2.8,5.6,5.6,8.6,8.1c11.7,9.4,31.4,9.9,43,1.1C498.4,315,498.4,315,485.7,302.5z M332.2,419.6c-13.5-25.2-36.3-30.9-62.6-29.2
		c7.8,2.2,15,5.5,21.7,10.1c6.1,4.3,11.3,9.6,16.4,15c10.1,10.7,25.8,17.3,36.2,15.1C339,427.5,334.8,424.4,332.2,419.6z
		 M458.3,278.7l0-0.5l0,0l0,0l-0.3,0l0.2,0.1L458.3,278.7z M312.5,386.2l-0.5-0.3l0.1,0.3L312.5,386.2z M311.9,385.9l-0.1-0.2
		l-0.1,0.1l0.1-0.1l-0.2,0l0,0.2L311.9,385.9z"/>
</g>
</svg>
