<?xml version="1.0" encoding="UTF-8" standalone="no"?>
<svg
   xmlns:dc="http://purl.org/dc/elements/1.1/"
   xmlns:cc="http://creativecommons.org/ns#"
   xmlns:rdf="http://www.w3.org/1999/02/22-rdf-syntax-ns#"
   xmlns:svg="http://www.w3.org/2000/svg"
   xmlns="http://www.w3.org/2000/svg"
   xmlns:sodipodi="http://sodipodi.sourceforge.net/DTD/sodipodi-0.dtd"
   xmlns:inkscape="http://www.inkscape.org/namespaces/inkscape"
   width="200"
   height="200"
   viewBox="0 0 200 200.00001"
   version="1.1"
   id="svg18"
   sodipodi:docname="rails.svg"
   inkscape:version="0.92.1 r15371">
  <metadata
     id="metadata24">
    <rdf:RDF>
      <cc:Work
         rdf:about="">
        <dc:format>image/svg+xml</dc:format>
        <dc:type
           rdf:resource="http://purl.org/dc/dcmitype/StillImage" />
        <dc:title></dc:title>
      </cc:Work>
    </rdf:RDF>
  </metadata>
  <defs
     id="defs22" />
  <sodipodi:namedview
     pagecolor="#ffffff"
     bordercolor="#666666"
     borderopacity="1"
     objecttolerance="10"
     gridtolerance="10"
     guidetolerance="10"
     inkscape:pageopacity="0"
     inkscape:pageshadow="2"
     inkscape:window-width="640"
     inkscape:window-height="480"
     id="namedview20"
     showgrid="false"
     fit-margin-top="0"
     fit-margin-left="0"
     fit-margin-right="0"
     fit-margin-bottom="0"
     inkscape:zoom="0.89883668"
     inkscape:cx="201.87403"
     inkscape:cy="70.1"
     inkscape:window-x="0"
     inkscape:window-y="0"
     inkscape:window-maximized="0"
     inkscape:current-layer="svg18" />
  <path
     style="fill:#cc0000;fill-rule:evenodd;stroke-width:0.87809014"
     inkscape:connector-curvature="0"
     id="path8"
     d="m 10.19496,164.17333 h 67.374156 c 0,0 -12.877845,-62.29184 29.764024,-87.515977 9.29593,-4.79168 38.88939,-22.692673 87.33055,15.279137 1.53511,-1.356136 2.98493,-2.441045 2.98493,-2.441045 0,0 -44.34754,-46.922304 -93.72683,-41.678579 C 79.104224,50.167499 48.572644,74.1259 30.663059,105.76908 12.753472,137.41225 10.19496,164.17333 10.19496,164.17333 Z" />
  <path
     style="fill:#cc0000;fill-rule:evenodd;stroke-width:0.87809014"
     inkscape:connector-curvature="0"
     id="path10"
     d="m 10.19496,164.17333 h 67.374156 c 0,0 -12.877845,-62.29184 29.764024,-87.515977 9.29593,-4.79168 38.88939,-22.692673 87.33055,15.279137 1.53511,-1.356136 2.98493,-2.441045 2.98493,-2.441045 0,0 -44.34754,-46.922304 -93.72683,-41.678579 C 79.104224,50.167499 48.572644,74.1259 30.663059,105.76908 12.753472,137.41225 10.19496,164.17333 10.19496,164.17333 Z" />
  <path
     style="fill:#cc0000;fill-rule:evenodd;stroke-width:0.87809014"
     inkscape:connector-curvature="0"
     id="path12"
     d="m 10.19496,164.17333 h 67.374156 c 0,0 -12.877845,-62.29184 29.764024,-87.515977 9.29593,-4.79168 38.88939,-22.692673 87.33055,15.279137 1.53511,-1.356136 2.98493,-2.441045 2.98493,-2.441045 0,0 -44.34754,-46.922304 -93.72683,-41.678579 C 79.01894,50.167499 48.487361,74.1259 30.577775,105.76908 12.668189,137.41225 10.19496,164.17333 10.19496,164.17333 Z M 150.572,52.879771 l 0.34113,-6.057404 c -0.76755,-0.452046 -2.89964,-1.536954 -8.27252,-3.164318 l -0.34113,5.966996 c 2.81436,0.994499 5.54344,2.079408 8.27252,3.254726 z" />
  <path
     style="fill:#cc0000;fill-rule:evenodd;stroke-width:0.87809014"
     inkscape:connector-curvature="0"
     id="path14"
     d="m 142.47004,72.046491 -0.34113,5.695771 c 2.81436,0.09041 5.62873,0.452045 8.44309,1.084909 l 0.34113,-5.605362 c -2.89964,-0.632863 -5.71401,-0.994499 -8.44309,-1.175318 z M 110.91506,43.838868 h 0.85284 l -1.70568,-5.514953 c -2.64379,0 -5.37288,0.180818 -8.18724,0.542454 l 1.62039,5.334135 c 2.47323,-0.271227 4.94646,-0.361636 7.41969,-0.361636 z m 4.09362,33.270531 1.96153,6.23823 c 2.47322,-1.265732 4.94645,-2.350641 7.41968,-3.164322 l -1.87624,-5.966998 c -2.89965,0.90409 -5.37288,1.89859 -7.50497,2.89309 z M 76.28986,53.331816 72.452092,47.093594 c -2.132094,1.175318 -4.349471,2.441042 -6.652132,3.887587 l 3.923052,6.328634 c 2.217377,-1.446545 4.349471,-2.802681 6.566848,-3.977999 z m 17.483166,40.684082 4.09362,6.509452 c 1.449823,-2.260226 3.155494,-4.339634 5.031744,-6.419043 l -3.837772,-6.147816 c -1.961526,1.898591 -3.752484,3.977999 -5.287592,6.057407 z m -12.366141,29.111722 6.907983,5.78618 c 0.341135,-3.52596 0.938121,-7.05191 1.790958,-10.57786 l -6.140429,-5.15332 c -1.108689,3.34514 -1.876242,6.69027 -2.558512,9.945 z M 44.052606,80.183307 37.99746,74.577945 c -2.217377,2.260227 -4.34947,4.520453 -6.310996,6.78068 l 6.566848,5.967003 c 1.790958,-2.441045 3.752484,-4.882095 5.799294,-7.142321 z m -25.75569,40.412853 -9.8076306,-3.79718 c -1.6203911,3.88759 -3.4113497,8.40805 -4.2641871,10.84909 l 9.8076307,3.79718 c 1.108688,-3.07391 2.899647,-7.50395 4.264187,-10.84909 z m 61.830713,25.49536 c 0.170567,4.79168 0.596986,8.67927 1.023404,11.39154 l 10.234049,3.88759 c -0.767554,-3.52595 -1.535107,-7.50395 -2.046809,-11.75318 z" />
</svg>
