<?xml version="1.0" encoding="UTF-8" standalone="no"?>
<svg
   xmlns:dc="http://purl.org/dc/elements/1.1/"
   xmlns:cc="http://creativecommons.org/ns#"
   xmlns:rdf="http://www.w3.org/1999/02/22-rdf-syntax-ns#"
   xmlns:svg="http://www.w3.org/2000/svg"
   xmlns="http://www.w3.org/2000/svg"
   id="svg42"
   version="1.1"
   height="37"
   width="58">
  <metadata
     id="metadata46">
    <rdf:RDF>
      <cc:Work
         rdf:about="">
        <dc:format>image/svg+xml</dc:format>
        <dc:type
           rdf:resource="http://purl.org/dc/dcmitype/StillImage" />
        <dc:title></dc:title>
      </cc:Work>
    </rdf:RDF>
  </metadata>
  <defs
     id="defs24">
    <filter
       id="a"
       filterUnits="objectBoundingBox"
       height="2"
       width="2"
       y="-0.5"
       x="-0.5">
      <feOffset
         id="feOffset2"
         result="shadowOffsetOuter1"
         in="SourceAlpha"
         dx="-2" />
      <feColorMatrix
         id="feColorMatrix4"
         result="shadowMatrixOuter1"
         in="shadowOffsetOuter1"
         values="0 0 0 0 0 0 0 0 0 0 0 0 0 0 0 0 0 0 0.15 0" />
      <feMerge
         id="feMerge10">
        <feMergeNode
           id="feMergeNode6"
           in="shadowMatrixOuter1" />
        <feMergeNode
           id="feMergeNode8"
           in="SourceGraphic" />
      </feMerge>
    </filter>
    <filter
       id="c"
       filterUnits="objectBoundingBox"
       height="2"
       width="2"
       y="-0.5"
       x="-0.5">
      <feOffset
         id="feOffset13"
         result="shadowOffsetOuter1"
         in="SourceAlpha"
         dy="1" />
      <feColorMatrix
         id="feColorMatrix15"
         in="shadowOffsetOuter1"
         values="0 0 0 0 0 0 0 0 0 0 0 0 0 0 0 0 0 0 0.15 0" />
    </filter>
    <linearGradient
       gradientUnits="userSpaceOnUse"
       gradientTransform="scale(0.99998604,1.000014)"
       id="b"
       y2="12.69221"
       x2="86.905952"
       y1="24.407806"
       x1="75.151199">
      <stop
         id="stop18"
         offset="0%" />
      <stop
         id="stop20"
         offset="100%"
         stop-color="#FFF" />
    </linearGradient>
    <path
       id="d"
       d="m 5.442,44.374 c 0.294,-0.042 0.42,0 0.714,0 1.428,0 2.142,0.42 3.36,2.646 1.68,3.276 2.688,5.166 3.738,6.51 1.134,1.428 2.142,1.806 3.696,1.806 1.68,0 3.192,-0.168 3.486,-0.42 l 0.042,-0.21 c -1.134,-1.302 -2.268,-2.898 -4.284,-6.342 -1.386,-2.352 -2.646,-4.494 -3.738,-5.46 1.47,-0.756 4.998,-2.604 4.998,-6.678 0,-5.334 -3.444,-7.686 -10.29,-7.686 -1.932,0 -6.048,0.462 -7.098,0.714 0.084,1.176 0.084,2.184 0.084,4.242 v 14.07 c 0,3.528 -0.042,6.006 -0.126,7.686 0.882,0 3.276,-0.042 4.452,-0.168 C 5.148,55 5.442,54.832 5.442,53.992 Z m 0,-12.39 c 0.546,-0.126 1.176,-0.126 1.764,-0.126 2.646,0 4.746,1.47 4.746,4.83 0,2.646 -1.68,3.906 -2.52,4.242 -0.63,0.294 -2.94,0.336 -3.99,0.21 z m 25.998,4.032 c -5.67,0 -9.786,4.158 -9.786,9.912 0,5.964 3.99,9.576 9.408,9.576 5.88,0 9.744,-4.074 9.744,-9.996 0,-5.46 -3.486,-9.492 -9.324,-9.492 z m -0.378,3.36 c 3.234,0 4.284,3.528 4.284,6.552 0,3.654 -1.26,6.216 -3.864,6.216 -2.394,0 -4.368,-2.226 -4.368,-6.762 0,-3.402 1.386,-6.006 3.906,-6.006 z M 59.832,50.8 c -1.05,0.42 -2.73,0.756 -4.578,0.756 -2.856,0 -5.922,-1.68 -5.922,-6.048 0,-3.57 2.226,-5.712 5.208,-5.712 1.092,0 2.394,0.294 3.192,0.588 1.68,0.294 2.394,-1.302 2.436,-2.73 -0.504,-0.546 -2.562,-1.638 -5.754,-1.638 -5.88,0 -10.416,4.158 -10.416,10.206 0,6.048 4.158,9.282 9.702,9.282 1.89,0 3.654,-0.378 4.83,-1.134 0.798,-0.714 1.386,-2.226 1.428,-3.444 z M 68.82,29.38 c 0,-2.562 -0.168,-2.772 -0.798,-2.772 -0.924,0 -3.654,0.252 -4.62,0.63 0.084,0.882 0.168,2.142 0.168,4.62 v 15.708 c 0,3.486 -0.042,5.964 -0.126,7.686 2.184,0.042 2.982,-0.042 4.032,-0.168 1.05,-0.084 1.344,-0.252 1.344,-1.092 v -8.19 c 1.554,2.772 4.158,5.88 5.67,7.812 1.008,1.344 1.722,1.722 3.108,1.722 1.302,0 2.982,-0.252 3.738,-0.588 L 81.42,54.58 c -2.226,-2.562 -5.964,-7.56 -7.266,-9.702 1.974,-2.184 3.906,-4.326 5.796,-6.636 0.924,-1.092 0.756,-1.638 -0.252,-1.89 -1.05,-0.252 -2.268,-0.378 -3.15,-0.336 -1.008,1.344 -5.838,7.35 -7.728,9.366 z m 29.19,21.126 c -0.672,0.336 -2.814,1.05 -4.914,1.05 -2.814,0 -5.418,-1.428 -5.67,-4.872 2.226,0.084 6.678,0.042 7.728,-0.21 1.722,-0.42 3.444,-1.092 3.57,-1.722 0.084,-0.294 0.126,-0.798 0.126,-1.386 -0.042,-3.444 -2.142,-7.35 -7.56,-7.35 -5.712,0 -9.03,4.914 -9.03,9.954 0,6.216 3.402,9.534 9.576,9.534 1.428,0 3.234,-0.462 3.864,-0.714 0.882,-0.378 2.394,-2.184 2.394,-4.116 z m -7.098,-11.34 c 2.058,0 3.024,1.638 2.982,3.612 0,0.504 -0.252,0.882 -0.546,0.882 -1.008,0.084 -4.2,0.126 -5.838,0 0.126,-3.024 1.806,-4.494 3.36,-4.494 z m 23.184,11.844 c -0.504,0.294 -1.68,0.756 -2.94,0.756 -1.428,0 -2.562,-0.756 -2.772,-2.772 -0.126,-1.722 -0.21,-5.67 -0.042,-9.03 1.68,0 3.108,-0.084 4.032,-0.168 0.84,-0.084 1.806,-0.294 2.31,-3.276 h -6.216 c 0,-1.176 0.084,-2.646 0.252,-3.906 -1.554,0.084 -2.52,0.714 -3.234,1.302 -0.714,0.546 -4.158,3.654 -4.788,4.788 0,0.504 0.756,1.26 2.394,1.26 v 9.828 c 0,2.982 1.386,5.712 5.712,5.712 1.89,0 3.654,-0.42 4.662,-1.302 0.798,-0.714 0.966,-2.058 0.798,-3.108 z" />
  </defs>
  <g
     transform="translate(-118.6286,-24.85852)"
     style="fill:none;fill-rule:evenodd"
     id="g40">
    <g
       style="filter:url(#a)"
       id="g32"
       transform="rotate(45,84.094,114.25)">
      <path
         style="fill:#ffffff"
         id="path26"
         d="m 63.563,29.254 c 0,1.444 0.367,2.725 1.1,3.793 L 62.1,35.615 c -0.272,0.294 -0.072,0.497 0.216,0.786 l 2.012,2.003 c 0.277,0.294 0.465,0.475 0.748,0.187 l 2.78,-2.778 c 0.624,0.229 2.121,0.628 4.385,0.296 l 1.74,-1.311 c 0.13,-0.099 0.357,-0.245 0.507,-0.327 l 1.563,-0.855 -1.253,1.266 c -0.12,0.121 -0.324,0.3 -0.453,0.398 l -1.496,1.127 2.55,6.977 a 0.45,0.45 0 0 0 0.735,0.171 l 5.985,-5.693 a 0.455,0.455 0 0 0 0.134,-0.248 l 1.342,-7.499 c 1.632,-1.411 3.284,-3.053 4.913,-4.882 9.376,-10.53 10.775,-18.76 10.775,-22.728 0,-1.307 -0.159,-2.027 -0.165,-2.057 A 0.452,0.452 0 0 0 98.753,0.102 c -0.466,-0.08 -11.581,-1.793 -26.046,12.662 -0.018,0.02 -1.897,1.957 -3.92,4.674 l -7.428,2.065 a 0.451,0.451 0 0 0 -0.226,0.147 l -5.284,6.349 a 0.452,0.452 0 0 0 0.221,0.722 l 7.1,2.064 1.195,-1.375 c 0.106,-0.122 0.295,-0.308 0.423,-0.418 l 1.334,-1.143 -0.945,1.48 a 4.67,4.67 0 0 1 -0.356,0.478 z M 79.24,13.868 c 2.348,-2.348 5.694,-2.81 7.473,-1.03 1.78,1.78 1.319,5.125 -1.03,7.474 -2.348,2.348 -5.693,2.809 -7.473,1.03 -1.78,-1.78 -1.318,-5.126 1.03,-7.474 z" />
      <path
         style="fill:url(#b);fill-opacity:0.1"
         id="path28"
         d="m 79.225,13.894 c 2.348,-2.349 5.694,-2.81 7.473,-1.03 1.78,1.78 1.319,5.125 -1.03,7.473 -2.348,2.349 -5.693,2.81 -7.473,1.03 -1.78,-1.78 -1.318,-5.125 1.03,-7.473 z" />
    </g>
    <g
       id="g38"
       transform="translate(0,-26)" />
  </g>
</svg>
