<?xml version="1.0" encoding="UTF-8" standalone="no"?>
<svg
   xmlns:dc="http://purl.org/dc/elements/1.1/"
   xmlns:cc="http://creativecommons.org/ns#"
   xmlns:rdf="http://www.w3.org/1999/02/22-rdf-syntax-ns#"
   xmlns:svg="http://www.w3.org/2000/svg"
   xmlns="http://www.w3.org/2000/svg"
   xmlns:sodipodi="http://sodipodi.sourceforge.net/DTD/sodipodi-0.dtd"
   xmlns:inkscape="http://www.inkscape.org/namespaces/inkscape"
   id="Layer_1"
   data-name="Layer 1"
   viewBox="0 0 133.78773 212.09"
   version="1.1"
   sodipodi:docname="scala-final.svg"
   width="133.78773"
   height="212.09"
   inkscape:version="0.92.1 r15371">
  <metadata
     id="metadata31">
    <rdf:RDF>
      <cc:Work
         rdf:about="">
        <dc:format>image/svg+xml</dc:format>
        <dc:type
           rdf:resource="http://purl.org/dc/dcmitype/StillImage" />
        <dc:title>scala-full-color</dc:title>
      </cc:Work>
    </rdf:RDF>
  </metadata>
  <defs
     id="defs29" />
  <sodipodi:namedview
     pagecolor="#ffffff"
     bordercolor="#666666"
     borderopacity="1"
     objecttolerance="10"
     gridtolerance="10"
     guidetolerance="10"
     inkscape:pageopacity="0"
     inkscape:pageshadow="2"
     inkscape:window-width="640"
     inkscape:window-height="480"
     id="namedview27"
     showgrid="false"
     fit-margin-top="0"
     fit-margin-left="0"
     fit-margin-right="0"
     fit-margin-bottom="0"
     inkscape:zoom="0.48135593"
     inkscape:cx="264.64773"
     inkscape:cy="93.000004"
     inkscape:window-x="388"
     inkscape:window-y="145"
     inkscape:window-maximized="0"
     inkscape:current-layer="Layer_1" />
  <title
     id="title2">scala-full-color</title>
  <path
     d="M 0.19772919,78.92 C 2.0477292,81.47 17.647729,86.28 40.917729,91.29 c 23.27,4.46 47.47,22.07 66.290001,16.64 12.73,-3.68 26.54,-36.47 26.54,-41.34 v -0.5 c 0,-3.4 -2.55,-6.13 -6.88,-8.4 -17.75,-9.07 -21.11,-12.41 -27.690001,-10.6 -34.16,9.43 -94.4699998,4.61 -98.97999981,31.83 z"
     style="fill:#380d09;fill-rule:evenodd"
     id="path14"
     inkscape:connector-curvature="0" />
  <path
     d="m 0.19772919,145.5 c 1.85000001,2.59 17.44999981,7.36 40.71999981,12.38 26,4.74 48.61,20.19 67.440001,14.75 12.73,-3.68 25.39,-34.58 25.39,-39.46 v -0.48 c 0,-3.39 -2.55,-6.13 -6.88,-8.39 -13.54,-7.2 -31.430001,-15.13 -38.000001,-13.32 -34.22,9.41 -79.9599998,11.48 -88.66999981,34.52 z"
     style="fill:#380d09;fill-rule:evenodd"
     id="path16"
     inkscape:connector-curvature="0" />
  <path
     d="m 0.00772919,93.23 v 0.48 0 a 3.73,3.73 0 0 1 0,-0.48 z"
     style="fill:#555555;fill-rule:evenodd"
     id="path18"
     inkscape:connector-curvature="0" />
  <path
     d="M 108.30773,12.87 C 76.847729,21.96 26.937729,27.09 0.04772919,27.09 v 0 51.35 a 0.8,0.8 0 0 0 0.19,0.48 c 18.34999981,0 74.99999981,-6 109.18000081,-15.4 a 129,129 0 0 0 17.49,-5.81 c 4.18,-1.88 6.88,-3.86 6.88,-5.92 V 0 c -0.04,4.88 -12.75,9.2 -25.48,12.87 z"
     style="fill:#de3423;fill-rule:evenodd"
     id="path20"
     inkscape:connector-curvature="0" />
  <path
     d="m 108.30773,79.46 c -18.830001,5.43 -44.240001,9.47 -67.390001,11.83 -15.54,1.59 -30.06,2.42 -40.86999981,2.42 v 0 51.31 a 0.8,0.8 0 0 0 0.19,0.48 c 18.34999981,0 74.99999981,-6 109.18000081,-15.39 a 130.38,130.38 0 0 0 17.49,-5.81 c 4.18,-1.89 6.88,-3.86 6.88,-5.92 V 66.59 c -0.04,4.87 -12.75,9.19 -25.48,12.87 z"
     style="fill:#de3423;fill-rule:evenodd"
     id="path22"
     inkscape:connector-curvature="0" />
  <path
     d="m 108.30773,146.09 c -18.830001,5.43 -44.240001,9.46 -67.390001,11.83 -15.56,1.59 -30.1,2.42 -40.90999981,2.42 v 51.75 c 18.15999981,0 75.09999981,-5.95 109.37000081,-15.39 12.63,-3.48 24.37,-7.44 24.37,-11.74 v -51.79 c 0,4.92 -12.71,9.2 -25.44,12.92 z"
     style="fill:#de3423;fill-rule:evenodd"
     id="path24"
     inkscape:connector-curvature="0" />
</svg>
