<?xml version="1.0" encoding="UTF-8" standalone="no"?>
<svg
   xmlns:dc="http://purl.org/dc/elements/1.1/"
   xmlns:cc="http://creativecommons.org/ns#"
   xmlns:rdf="http://www.w3.org/1999/02/22-rdf-syntax-ns#"
   xmlns:svg="http://www.w3.org/2000/svg"
   xmlns="http://www.w3.org/2000/svg"
   viewBox="0 0 63.061618 62.980664"
   height="62.980663"
   width="63.061619"
   xml:space="preserve"
   id="svg29"
   version="1.1"><metadata
     id="metadata35"><rdf:RDF><cc:Work
         rdf:about=""><dc:format>image/svg+xml</dc:format><dc:type
           rdf:resource="http://purl.org/dc/dcmitype/StillImage" /><dc:title></dc:title></cc:Work></rdf:RDF></metadata><defs
     id="defs33" /><g
     transform="matrix(1.3333333,0,0,-1.3333333,0,62.980665)"
     id="g37"><path
       d="M 42.932,13.2246 C 37.1109,5.46875 24.6762,8.08672 16.7039,7.71016 c 0,0 -1.4113,-0.07852 -2.8328,-0.3125 0,0 0.5375,0.22929 1.223,0.46562 5.5993,1.93633 8.2454,2.32542 11.6477,4.07302 6.3926,3.2746 12.7547,10.4075 14.0492,17.8172 C 38.3578,22.627 30.9574,16.4934 24.2191,14.0027 19.607,12.3008 11.2664,10.6445 11.2652,10.6438 c 0.0039,-0.0059 -0.3324,0.1746 -0.3371,0.1785 -5.67224,2.7597 -5.83591,15.0449 4.466,19.005 4.5168,1.7375 8.8372,0.7832 13.72,1.9454 5.2078,1.2382 11.2394,5.1418 13.691,10.2453 2.7484,-8.152 6.05,-20.9059 0.1269,-28.7934 z m 0.1012,31.3195 c -0.693,-1.6464 -1.5387,-3.13 -2.5137,-4.457 -4.2914,4.4043 -10.2812,7.1484 -16.9019,7.1484 C 10.5941,47.2355 0,36.6402 0,23.6191 0,16.793 2.91367,10.6367 7.55898,6.32148 L 8.07617,5.86328 C 7.2125,6.56758 7.07969,7.83594 7.77969,8.70039 8.48398,9.56523 9.75352,9.69922 10.6176,8.99883 11.484,8.29688 11.616,7.02539 10.9145,6.15938 10.2156,5.29297 8.94375,5.16211 8.07852,5.86133 L 8.43047,5.54961 C 12.5395,2.08984 17.8363,0 23.6176,0 36.066,0 46.2879,9.6875 47.1629,21.9148 c 0.648,5.9868 -1.1203,13.5887 -4.1297,22.6293"
       style="fill:#5fb832;fill-opacity:1;fill-rule:nonzero;stroke:none;stroke-width:0.1"
       id="path55" /></g></svg>