<?xml version="1.0" encoding="UTF-8" standalone="no"?>
<svg
   xmlns:dc="http://purl.org/dc/elements/1.1/"
   xmlns:cc="http://creativecommons.org/ns#"
   xmlns:rdf="http://www.w3.org/1999/02/22-rdf-syntax-ns#"
   xmlns:svg="http://www.w3.org/2000/svg"
   xmlns="http://www.w3.org/2000/svg"
   xmlns:sodipodi="http://sodipodi.sourceforge.net/DTD/sodipodi-0.dtd"
   xmlns:inkscape="http://www.inkscape.org/namespaces/inkscape"
   viewBox="0 0 153 140"
   version="1.1"
   id="svg52"
   sodipodi:docname="zig.svg"
   width="153"
   height="140"
   inkscape:version="0.92.1 r15371">
  <metadata
     id="metadata58">
    <rdf:RDF>
      <cc:Work
         rdf:about="">
        <dc:format>image/svg+xml</dc:format>
        <dc:type
           rdf:resource="http://purl.org/dc/dcmitype/StillImage" />
        <dc:title></dc:title>
      </cc:Work>
    </rdf:RDF>
  </metadata>
  <defs
     id="defs56" />
  <sodipodi:namedview
     pagecolor="#ffffff"
     bordercolor="#666666"
     borderopacity="1"
     objecttolerance="10"
     gridtolerance="10"
     guidetolerance="10"
     inkscape:pageopacity="0"
     inkscape:pageshadow="2"
     inkscape:window-width="640"
     inkscape:window-height="480"
     id="namedview54"
     showgrid="false"
     fit-margin-top="0"
     fit-margin-left="0"
     fit-margin-right="0"
     fit-margin-bottom="0"
     inkscape:zoom="0.92355469"
     inkscape:cx="200"
     inkscape:cy="70"
     inkscape:window-x="0"
     inkscape:window-y="0"
     inkscape:window-maximized="0"
     inkscape:current-layer="svg52" />
  <g
     id="g30"
     style="fill:#f7a41d">
    <g
       id="g8">
      <polygon
         points="19,30 46,22 28,44 "
         id="polygon2" />
      <polygon
         points="28,44 22,44 22,95 31,95 20,100 12,117 0,117 0,22 46,22 33,33 "
         id="polygon4"
         style="shape-rendering:crispEdges" />
      <polygon
         points="4,106 31,95 12,117 "
         id="polygon6" />
    </g>
    <g
       id="g20">
      <polygon
         points="37,44 56,22 62,36 "
         id="polygon10" />
      <polygon
         points="111,44 37,44 56,32 56,22 111,22 "
         id="polygon12"
         style="shape-rendering:crispEdges" />
      <polygon
         points="90,104 116,95 97,117 "
         id="polygon14" />
      <polygon
         points="97,117 42,117 42,95 116,95 100,104 "
         id="polygon16"
         style="shape-rendering:crispEdges" />
      <polygon
         points="3,140 101,22 150,0 52,117 "
         id="polygon18" />
    </g>
    <g
       id="g28">
      <polygon
         points="122,45 141,22 140,40 "
         id="polygon22" />
      <polygon
         points="106,117 120,105 125,95 131,95 131,45 122,45 132,36 141,22 153,22 153,117 "
         id="polygon24"
         style="shape-rendering:crispEdges" />
      <polygon
         points="106,117 125,95 130,110 "
         id="polygon26" />
    </g>
  </g>
</svg>
